<?xml version="1.0" encoding="UTF-8"?>
<svg width="100px" height="100px" viewBox="0 0 100 100" version="1.1" xmlns="http://www.w3.org/2000/svg" xmlns:xlink="http://www.w3.org/1999/xlink">
    <!-- Generator: Sketch 51.3 (57544) - http://www.bohemiancoding.com/sketch -->
    <title>Artboard</title>
    <desc>Created with Sketch.</desc>
    <defs>
        <linearGradient x1="113.568611%" y1="113.195407%" x2="10.4199258%" y2="-6.65899506%" id="linearGradient-1">
            <stop stop-color="#3C24E8" offset="0%"></stop>
            <stop stop-color="#FF364A" offset="50.216763%"></stop>
            <stop stop-color="#F76B1C" offset="100%"></stop>
        </linearGradient>
    </defs>
    <g id="Artboard" stroke="none" stroke-width="1" fill="none" fill-rule="evenodd">
        <path d="M77.9735094,3 C77.5552571,3 77.2171107,3.33888665 77.2171107,3.75575976 L77.2171107,18.2931461 C77.2171107,18.9673746 78.0316394,19.3041343 78.5080218,18.8277079 L93.043355,4.29103051 C93.5197373,3.81460409 93.1822998,3 92.5088426,3 L77.9735094,3 Z M8.49044847,3 C7.81770017,3 7.48026267,3.81460409 7.95593612,4.29103051 L22.4919782,18.8277079 C22.9683606,19.3048433 23.7828893,18.9673746 23.7828893,18.2931461 L23.7828893,3.75575976 C23.7828893,3.33888665 23.4447429,3 23.0264906,3 L8.49044847,3 Z M96.7090889,6.01524039 L80.2320722,22.4944898 C79.7563988,22.9702072 80.0931274,23.7848113 80.7665846,23.7848113 L97.2436012,23.7848113 C97.6611447,23.7848113 98,23.4459247 98,23.0290515 L98,6.55051114 C98,6.09393582 97.6271174,5.79262447 97.2386389,5.79262447 C97.0529065,5.79262447 96.8636296,5.86139436 96.7090889,6.01524039 Z M47.0859264,6.01524039 L30.6089098,22.4944898 C30.1325274,22.9702072 30.4699649,23.7848113 31.1434221,23.7848113 L47.6204388,23.7848113 C48.0386911,23.7848113 48.3768375,23.4459247 48.3768375,23.0290515 L48.3768375,6.55051114 C48.3768375,6.09393582 48.0039549,5.79262447 47.6154765,5.79262447 C47.429744,5.79262447 47.2404671,5.86139436 47.0859264,6.01524039 Z M52.6231625,6.55051114 L52.6231625,23.0290515 C52.6231625,23.4459247 52.9613089,23.7848113 53.3795612,23.7848113 L69.855869,23.7848113 C70.5300351,23.7848113 70.8674726,22.9702072 70.3903813,22.4944898 L53.9140736,6.01524039 C53.7602418,5.86139436 53.570256,5.79262447 53.3852324,5.79262447 C52.9960451,5.79262447 52.6231625,6.09464479 52.6231625,6.55051114 Z M3,6.55051114 L3,23.0290515 C3,23.4459247 3.33814641,23.7848113 3.75568987,23.7848113 L20.2334154,23.7848113 C20.9061637,23.7848113 21.2443101,22.9702072 20.7672189,22.4944898 L4.29091113,6.01524039 C4.13637042,5.86139436 3.9470935,5.79262447 3.76136109,5.79262447 C3.37288262,5.79262447 3,6.09464479 3,6.55051114 Z M53.3795612,27.5827522 C52.9613089,27.5827522 52.6231625,27.9209299 52.6231625,28.339221 L52.6231625,44.8177614 C52.6231625,45.4912808 53.4376912,45.8287496 53.9140736,45.3516142 L70.3910902,28.8737827 C70.8674726,28.3973563 70.5300351,27.5827522 69.8565779,27.5827522 L53.3795612,27.5827522 Z M31.144131,27.5827522 C30.4699649,27.5827522 30.1325274,28.3973563 30.6096187,28.8737827 L47.0859264,45.3516142 C47.5623088,45.8287496 48.3768375,45.4912808 48.3768375,44.8170524 L48.3768375,28.339221 C48.3768375,27.9209299 48.0386911,27.5827522 47.6204388,27.5827522 L31.144131,27.5827522 Z M77.2171107,33.0744174 L77.2171107,47.6110948 C77.2171107,48.0293859 77.5552571,48.3675635 77.9735094,48.3675635 L92.5095515,48.3675635 C93.1822998,48.3675635 93.5197373,47.5529594 93.0440639,47.076533 L78.5080218,32.5391467 C78.35419,32.3853006 78.1649131,32.3165308 77.9791807,32.3165308 C77.5899933,32.3165308 77.2171107,32.6185511 77.2171107,33.0744174 Z M27.5939482,33.0744174 L27.5939482,47.6110948 C27.5939482,48.0293859 27.9328035,48.3675635 28.350347,48.3675635 L42.8856802,48.3675635 C43.5598463,48.3675635 43.8965749,47.5529594 43.4209014,47.076533 L28.8848593,32.5391467 C28.7310275,32.3853006 28.5410417,32.3165308 28.3560182,32.3165308 C27.9668308,32.3165308 27.5939482,32.6185511 27.5939482,33.0744174 Z M72.1151407,32.5398556 L57.5790986,47.076533 C57.1034251,47.5529594 57.4401537,48.3675635 58.1143198,48.3675635 L72.649653,48.3675635 C73.0671965,48.3675635 73.4060518,48.0293859 73.4060518,47.6110948 L73.4060518,33.0751264 C73.4060518,32.6185511 73.0331692,32.3172397 72.6446907,32.3172397 C72.4589583,32.3172397 72.2696814,32.3860096 72.1151407,32.5398556 Z M22.4919782,32.5398556 L7.95593612,47.076533 C7.48026267,47.5529594 7.81770017,48.3675635 8.49044847,48.3675635 L23.0264906,48.3675635 C23.4447429,48.3675635 23.7828893,48.0293859 23.7828893,47.6110948 L23.7828893,33.0751264 C23.7828893,32.6185511 23.4100067,32.3172397 23.0215282,32.3172397 C22.8357958,32.3172397 22.64581,32.3860096 22.4919782,32.5398556 Z M77.9735094,52.6277515 C77.5552571,52.6277515 77.2171107,52.9666382 77.2171107,53.3842202 L77.2171107,67.9208976 C77.2171107,68.5944171 78.0316394,68.9318858 78.5080218,68.4561684 L93.043355,53.918782 C93.5197373,53.4423556 93.1822998,52.6277515 92.5088426,52.6277515 L77.9735094,52.6277515 Z M58.1143198,52.6277515 C57.4401537,52.6277515 57.1034251,53.4423556 57.5790986,53.918782 L72.1151407,68.4561684 C72.591523,68.9318858 73.4060518,68.5951261 73.4060518,67.9208976 L73.4060518,53.3842202 C73.4060518,52.9666382 73.0671965,52.6277515 72.649653,52.6277515 L58.1143198,52.6277515 Z M28.350347,52.6277515 C27.9328035,52.6277515 27.5939482,52.9666382 27.5939482,53.3842202 L27.5939482,67.9208976 C27.5939482,68.5944171 28.408477,68.9318858 28.8848593,68.4561684 L43.4209014,53.918782 C43.8965749,53.4423556 43.5591374,52.6277515 42.8856802,52.6277515 L28.350347,52.6277515 Z M8.49044847,52.6277515 C7.81770017,52.6277515 7.48026267,53.4423556 7.95593612,53.918782 L22.4919782,68.4561684 C22.9683606,68.9318858 23.7828893,68.5951261 23.7828893,67.9208976 L23.7828893,53.3842202 C23.7828893,52.9666382 23.4447429,52.6277515 23.0264906,52.6277515 L8.49044847,52.6277515 Z M47.0859264,55.6429919 L30.6089098,72.1215323 C30.1325274,72.5979587 30.4699649,73.4125628 31.1434221,73.4125628 L47.6204388,73.4125628 C48.0386911,73.4125628 48.3768375,73.0743851 48.3768375,72.6560941 L48.3768375,56.1782627 C48.3768375,55.7223963 48.0039549,55.420376 47.6154765,55.420376 C47.429744,55.420376 47.2404671,55.4891459 47.0859264,55.6429919 Z M52.6231625,56.1782627 L52.6231625,72.6560941 C52.6231625,73.0743851 52.9613089,73.4125628 53.3795612,73.4125628 L69.855869,73.4125628 C70.5300351,73.4125628 70.8674726,72.5979587 70.3903813,72.1215323 L53.9140736,55.6429919 C53.7602418,55.4891459 53.570256,55.420376 53.3845235,55.420376 C52.9960451,55.420376 52.6231625,55.7223963 52.6231625,56.1782627 Z M80.7665846,77.2105037 C80.0938363,77.2105037 79.7563988,78.0251078 80.2327811,78.5015343 L96.7090889,94.9800747 C97.1861801,95.4565011 98,95.1190324 98,94.4448039 L98,77.9669725 C98,77.5486814 97.6611447,77.2105037 97.2436012,77.2105037 L80.7665846,77.2105037 Z M53.3795612,77.2105037 C52.9613089,77.2105037 52.6231625,77.5486814 52.6231625,77.9669725 L52.6231625,94.4448039 C52.6231625,95.1190324 53.4376912,95.4565011 53.9140736,94.9800747 L70.3910902,78.5015343 C70.8674726,78.0251078 70.5300351,77.2105037 69.8565779,77.2105037 L53.3795612,77.2105037 Z M31.144131,77.2105037 C30.4699649,77.2105037 30.1325274,78.0251078 30.6096187,78.5015343 L47.0859264,94.9800747 C47.5623088,95.4565011 48.3768375,95.1190324 48.3768375,94.4448039 L48.3768375,77.9669725 C48.3768375,77.5486814 48.0386911,77.2105037 47.6204388,77.2105037 L31.144131,77.2105037 Z M3.75568987,77.2105037 C3.33814641,77.2105037 3,77.5486814 3,77.9669725 L3,94.4448039 C3,95.1190324 3.81381986,95.4565011 4.29091113,94.9800747 L20.7679278,78.5015343 C21.2443101,78.0251078 20.9068726,77.2105037 20.2334154,77.2105037 L3.75568987,77.2105037 Z M77.2171107,82.7021689 L77.2171107,97.2395553 C77.2171107,97.6564284 77.5552571,97.995315 77.9735094,97.995315 L92.5095515,97.995315 C93.1822998,97.995315 93.5197373,97.1814199 93.0440639,96.7042845 L78.5080218,82.1676072 C78.35419,82.0130522 78.1642042,81.9442823 77.9784718,81.9442823 C77.5899933,81.9442823 77.2171107,82.2463026 77.2171107,82.7021689 Z M22.4919782,82.1676072 L7.95593612,96.7042845 C7.48026267,97.1814199 7.81770017,97.995315 8.49044847,97.995315 L23.0264906,97.995315 C23.4447429,97.995315 23.7828893,97.6564284 23.7828893,97.2395553 L23.7828893,82.7021689 C23.7828893,82.2463026 23.4100067,81.9442823 23.0208193,81.9442823 C22.8350869,81.9442823 22.64581,82.0137611 22.4919782,82.1676072 Z" id="ABOUT-MERJ" fill="url(#linearGradient-1)"></path>
    </g>
</svg>