<?xml version="1.0" encoding="UTF-8"?>
<svg width="100px" height="100px" viewBox="0 0 100 100" version="1.1" xmlns="http://www.w3.org/2000/svg" xmlns:xlink="http://www.w3.org/1999/xlink">
    <!-- Generator: Sketch 51.3 (57544) - http://www.bohemiancoding.com/sketch -->
    <title>Artboard Copy 2</title>
    <desc>Created with Sketch.</desc>
    <defs>
        <linearGradient x1="113.568611%" y1="113.195407%" x2="10.4199258%" y2="-6.65899506%" id="linearGradient-1">
            <stop stop-color="#3C24E8" offset="0%"></stop>
            <stop stop-color="#FF364A" offset="50.216763%"></stop>
            <stop stop-color="#F76B1C" offset="100%"></stop>
        </linearGradient>
    </defs>
    <g id="Artboard-Copy-2" stroke="none" stroke-width="1" fill="none" fill-rule="evenodd">
        <path d="M77.2501287,3 C76.8318171,3 76.4936227,3.33890336 76.4936227,3.75579703 L76.4936227,18.2939003 C76.4936227,18.968162 77.308267,19.3049384 77.7847169,18.8284885 L92.3221112,4.29109418 C92.7985611,3.81464427 92.4610757,3 91.787523,3 L77.2501287,3 Z M57.3874141,3 C56.7138614,3 56.377085,3.81464427 56.8528259,4.29109418 L71.3909292,18.8284885 C71.8673792,19.3056474 72.6820234,18.968162 72.6820234,18.2939003 L72.6820234,3.75579703 C72.6820234,3.33890336 72.3431201,3 71.9255174,3 L57.3874141,3 Z M27.6199297,3 C27.202327,3 26.8634237,3.33890336 26.8634237,3.75579703 L26.8634237,18.2939003 C26.8634237,18.968162 27.6780679,19.3049384 28.1545178,18.8284885 L42.6926211,4.29109418 C43.1683621,3.81464427 42.8308767,3 42.157324,3 L27.6199297,3 Z M7.75721504,3 C7.30345322,3 7.00212701,3.37080849 7,3.75792404 L7,3.76855908 C7.00141801,3.95219082 7.07090028,4.13865857 7.22262689,4.29109418 L21.7607302,18.8284885 C22.2371801,19.3056474 23.0511154,18.968162 23.0511154,18.2939003 L23.0511154,3.75579703 C23.0511154,3.33890336 22.71363,3 22.2953183,3 L7.75721504,3 Z M76.4936227,33.0759006 L76.4936227,47.6132949 C76.4936227,48.0316066 76.8318171,48.369801 77.2501287,48.369801 L91.788232,48.369801 C92.2427029,48.369801 92.5447381,47.9975745 92.5454471,47.6097499 L92.5454471,47.6019509 C92.5440291,47.4183191 92.4745468,47.2311424 92.3228202,47.0787068 L77.7847169,32.5406035 C77.6308633,32.3867499 77.4415595,32.3179766 77.2558008,32.3179766 C76.8665582,32.3179766 76.4936227,32.6200118 76.4936227,33.0759006 Z M26.8634237,33.0759006 L26.8634237,47.6132949 C26.8634237,48.0316066 27.202327,48.369801 27.6199297,48.369801 L42.157324,48.369801 C42.8315857,48.369801 43.1683621,47.5551567 42.6926211,47.0787068 L28.1545178,32.5406035 C27.9999552,32.3867499 27.8106515,32.3179766 27.6248927,32.3179766 C27.2363592,32.3179766 26.8634237,32.6200118 26.8634237,33.0759006 Z M71.3909292,32.5413125 L56.8528259,47.0787068 C56.377085,47.5551567 56.7138614,48.369801 57.3874141,48.369801 L71.9255174,48.369801 C72.3431201,48.369801 72.6820234,48.0316066 72.6820234,47.6132949 L72.6820234,33.0766096 C72.6820234,32.6200118 72.3090879,32.3186856 71.9205544,32.3186856 C71.7347956,32.3186856 71.5447829,32.3874589 71.3909292,32.5413125 Z M21.7607302,32.5413125 L7.22262689,47.0787068 C7.07090028,47.2311424 7.00141801,47.4176101 7,47.6019509 L7,47.6118769 C7.00212701,47.9989925 7.30345322,48.369801 7.75721504,48.369801 L22.2953183,48.369801 C22.71363,48.369801 23.0511154,48.0316066 23.0511154,47.6132949 L23.0511154,33.0766096 C23.0511154,32.6200118 22.6788889,32.3186856 22.2903553,32.3186856 C22.1038876,32.3186856 21.9145838,32.3874589 21.7607302,32.5413125 Z M77.2501287,52.630199 C76.8318171,52.630199 76.4936227,52.9691024 76.4936227,53.3867051 L76.4936227,67.9240994 C76.4936227,68.5976521 77.308267,68.9351374 77.7847169,68.4593965 L92.3221112,53.9212932 C92.7985611,53.4448433 92.4610757,52.630199 91.787523,52.630199 L77.2501287,52.630199 Z M57.3874141,52.630199 C56.7138614,52.630199 56.377085,53.4448433 56.8528259,53.9212932 L71.3909292,68.4593965 C71.8673792,68.9351374 72.6820234,68.5983611 72.6820234,67.9240994 L72.6820234,53.3867051 C72.6820234,52.9691024 72.3431201,52.630199 71.9255174,52.630199 L57.3874141,52.630199 Z M27.6199297,52.630199 C27.202327,52.630199 26.8634237,52.9691024 26.8634237,53.3867051 L26.8634237,67.9240994 C26.8634237,68.5976521 27.6780679,68.9351374 28.1545178,68.4593965 L42.6926211,53.9212932 C43.1683621,53.4448433 42.8308767,52.630199 42.157324,52.630199 L27.6199297,52.630199 Z M7.75721504,52.630199 C7.30345322,52.630199 7.00212701,53.0010075 7,53.3881231 L7,53.3987581 C7.00141801,53.5823899 7.07090028,53.7688576 7.22262689,53.9212932 L21.7607302,68.4593965 C22.2371801,68.9351374 23.0511154,68.5983611 23.0511154,67.9240994 L23.0511154,53.3867051 C23.0511154,52.9691024 22.71363,52.630199 22.2953183,52.630199 L7.75721504,52.630199 Z M76.4936227,82.7060997 L76.4936227,97.244203 C76.4936227,97.6610966 76.8318171,98 77.2501287,98 L91.788232,98 C92.2427029,98 92.5447381,97.6284825 92.5454471,97.239949 L92.5454471,97.2321499 C92.5440291,97.0485182 92.4745468,96.8613414 92.3228202,96.7089058 L77.7847169,82.1715115 C77.6308633,82.0169489 77.4408505,81.9481756 77.2550918,81.9481756 C76.8665582,81.9481756 76.4936227,82.2502108 76.4936227,82.7060997 Z M26.8634237,82.7060997 L26.8634237,97.244203 C26.8634237,97.6610966 27.202327,98 27.6199297,98 L42.157324,98 C42.8315857,98 43.1683621,97.1860647 42.6926211,96.7089058 L28.1545178,82.1715115 C27.9999552,82.0169489 27.8106515,81.9481756 27.6248927,81.9481756 C27.2363592,81.9481756 26.8634237,82.2502108 26.8634237,82.7060997 Z M71.3909292,82.1715115 L56.8528259,96.7089058 C56.377085,97.1860647 56.7138614,98 57.3874141,98 L71.9255174,98 C72.3431201,98 72.6820234,97.6610966 72.6820234,97.244203 L72.6820234,82.7060997 C72.6820234,82.2502108 72.3090879,81.9481756 71.9198454,81.9481756 C71.7340866,81.9481756 71.5447829,82.0176579 71.3909292,82.1715115 Z M21.7607302,82.1715115 L7.22262689,96.7089058 C7.07090028,96.8613414 7.00141801,97.0485182 7,97.2321499 L7,97.242076 C7.00212701,97.6299005 7.30345322,98 7.75721504,98 L22.2953183,98 C22.71363,98 23.0511154,97.6610966 23.0511154,97.244203 L23.0511154,82.7060997 C23.0511154,82.2502108 22.6788889,81.9481756 22.2896463,81.9481756 C22.1038876,81.9481756 21.9145838,82.0176579 21.7607302,82.1715115 Z" id="MARKETS-&amp;-LISTINGS" fill="url(#linearGradient-1)"></path>
    </g>
</svg>