<?xml version="1.0" encoding="UTF-8"?>
<svg width="100px" height="100px" viewBox="0 0 100 100" version="1.1" xmlns="http://www.w3.org/2000/svg" xmlns:xlink="http://www.w3.org/1999/xlink">
    <!-- Generator: Sketch 51.3 (57544) - http://www.bohemiancoding.com/sketch -->
    <title>Artboard Copy</title>
    <desc>Created with Sketch.</desc>
    <defs>
        <linearGradient x1="113.568611%" y1="113.195407%" x2="10.4199258%" y2="-6.65899506%" id="linearGradient-1">
            <stop stop-color="#3C24E8" offset="0%"></stop>
            <stop stop-color="#FF364A" offset="50.216763%"></stop>
            <stop stop-color="#F76B1C" offset="100%"></stop>
        </linearGradient>
    </defs>
    <g id="Artboard-Copy" stroke="none" stroke-width="1" fill="none" fill-rule="evenodd">
        <path d="M53.037608,3 C52.6380371,3.00146095 52.2559976,3.3119137 52.2559976,3.78087996 L52.2559976,20.7593578 C52.2559976,21.1888783 52.6044351,21.5380463 53.0354166,21.5380463 L70.013164,21.5380463 C70.7078476,21.5380463 71.0555547,20.6987282 70.5639437,20.2085781 L53.5861963,3.22936979 C53.4284133,3.07158675 53.2341064,3.00073048 53.0441823,3 L53.037608,3 Z M47.0805678,3 C46.8942961,3.00365239 46.7051026,3.07523914 46.5502414,3.22936979 L29.5717636,20.2085781 C29.080883,20.6987282 29.4285901,21.5380463 30.1225433,21.5380463 L47.1010211,21.5380463 C47.5320026,21.5380463 47.8804401,21.1888783 47.8804401,20.7593578 L47.8804401,3.78087996 C47.8804401,3.31629656 47.5049749,3.00730477 47.1097869,3 L47.0805678,3 Z M53.0354166,25.4512118 C52.6044351,25.4512118 52.2559976,25.7996494 52.2559976,26.2306308 L52.2559976,43.2091087 C52.2559976,43.9030619 53.0945852,44.2507689 53.5861963,43.7591579 L70.5646741,26.7814105 C71.0555547,26.2905299 70.7078476,25.4512118 70.0138944,25.4512118 L53.0354166,25.4512118 Z M30.1232738,25.4512118 C29.4285901,25.4512118 29.080883,26.2905299 29.5724941,26.7814105 L46.5502414,43.7591579 C47.041122,44.2507689 47.8804401,43.9030619 47.8804401,43.2083782 L47.8804401,26.2306308 C47.8804401,25.7996494 47.5320026,25.4512118 47.1010211,25.4512118 L30.1232738,25.4512118 Z M77.5984375,31.109487 L77.5984375,46.0871882 C77.5984375,46.5181697 77.9468751,46.8666072 78.3778565,46.8666072 L93.3562883,46.8666072 C93.824524,46.8666072 94.1357073,46.4831068 94.1364377,46.0835358 L94.1364377,46.0755006 C94.1349768,45.886307 94.06339,45.6934611 93.9070679,45.5364085 L78.9286362,30.5579768 C78.7701227,30.3994633 78.5750854,30.328607 78.3837004,30.328607 C77.9826685,30.328607 77.5984375,30.6397902 77.5984375,31.109487 Z M26.4650448,31.109487 L26.4650448,46.0871882 C26.4650448,46.5181697 26.8142128,46.8666072 27.2444638,46.8666072 L42.222165,46.8666072 C42.9168486,46.8666072 43.2638252,46.0272891 42.7736751,45.5364085 L27.7952434,30.5579768 C27.6367299,30.3994633 27.4409621,30.328607 27.2495771,30.328607 C26.8492757,30.328607 26.4650448,30.6397902 26.4650448,31.109487 Z M72.3411943,30.5587073 L57.3627626,45.5364085 C56.8726125,46.0272891 57.2195891,46.8666072 57.9135423,46.8666072 L72.891974,46.8666072 C73.322225,46.8666072 73.671393,46.5181697 73.671393,46.0871882 L73.671393,31.1102175 C73.671393,30.6397902 73.2871621,30.3293375 72.8868606,30.3293375 C72.6954757,30.3293375 72.4997078,30.4001938 72.3411943,30.5587073 Z M21.2078015,30.5587073 L6.22936979,45.5364085 C6.0730477,45.6934611 6.00146095,45.8855765 6,46.0755006 L6,46.0857272 C6.00219143,46.4845677 6.31264417,46.8666072 6.78014948,46.8666072 L21.7585812,46.8666072 C22.1895626,46.8666072 22.5372697,46.5181697 22.5372697,46.0871882 L22.5372697,31.1102175 C22.5372697,30.6397902 22.1537693,30.3293375 21.7534678,30.3293375 C21.5613524,30.3293375 21.366315,30.4001938 21.2078015,30.5587073 Z M46.5502414,54.3627626 L29.5717636,71.3412404 C29.080883,71.832121 29.4285901,72.6714391 30.1225433,72.6714391 L47.1010211,72.6714391 C47.5320026,72.6714391 47.8804401,72.3230016 47.8804401,71.8920201 L47.8804401,54.9142728 C47.8804401,54.444576 47.4962092,54.1333928 47.0959078,54.1333928 C46.9045228,54.1333928 46.708755,54.2042491 46.5502414,54.3627626 Z M52.2559976,54.9142728 L52.2559976,71.8920201 C52.2559976,72.3230016 52.6044351,72.6714391 53.0354166,72.6714391 L70.013164,72.6714391 C70.7078476,72.6714391 71.0555547,71.832121 70.5639437,71.3412404 L53.5861963,54.3627626 C53.4269523,54.2042491 53.2319149,54.1333928 53.0405299,54.1333928 C52.6402285,54.1333928 52.2559976,54.444576 52.2559976,54.9142728 Z M53.0354166,76.5846046 C52.6044351,76.5846046 52.2559976,76.9330422 52.2559976,77.3640236 L52.2559976,94.341771 C52.2559976,95.0364546 53.0945852,95.3841617 53.5861963,94.8932811 L70.5646741,77.9148033 C71.0555547,77.4239227 70.7078476,76.5846046 70.0138944,76.5846046 L53.0354166,76.5846046 Z M30.1232738,76.5846046 C29.4285901,76.5846046 29.080883,77.4239227 29.5724941,77.9148033 L46.5502414,94.8932811 C47.041122,95.3841617 47.8804401,95.0364546 47.8804401,94.341771 L47.8804401,77.3640236 C47.8804401,76.9330422 47.5320026,76.5846046 47.1010211,76.5846046 L30.1232738,76.5846046 Z M77.5984375,82.2428798 L77.5984375,97.2213115 C77.5984375,97.650832 77.9468751,98 78.3778565,98 L93.3562883,98 C93.824524,98 94.1357073,97.61723 94.1364377,97.2169286 L94.1364377,97.2088934 C94.1349768,97.0196998 94.06339,96.8268539 93.9070679,96.6698013 L78.9286362,81.6921001 C78.7701227,81.5328561 78.5743549,81.4619998 78.3829699,81.4619998 C77.9826685,81.4619998 77.5984375,81.773183 77.5984375,82.2428798 Z M26.4650448,82.2428798 L26.4650448,97.2213115 C26.4650448,97.650832 26.8142128,98 27.2444638,98 L42.222165,98 C42.9168486,98 43.2638252,97.1614124 42.7736751,96.6698013 L27.7952434,81.6921001 C27.6359994,81.5328561 27.4409621,81.4619998 27.2495771,81.4619998 C26.8492757,81.4619998 26.4650448,81.773183 26.4650448,82.2428798 Z M72.3411943,81.6921001 L57.3627626,96.6698013 C56.8726125,97.1614124 57.2195891,98 57.9135423,98 L72.891974,98 C73.322225,98 73.671393,97.650832 73.671393,97.2213115 L73.671393,82.2428798 C73.671393,81.773183 73.2871621,81.4619998 72.8861302,81.4619998 C72.6947452,81.4619998 72.4997078,81.5335866 72.3411943,81.6921001 Z M21.2078015,81.6921001 L6.22936979,96.6698013 C6.0730477,96.8268539 6.00146095,97.0196998 6,97.2088934 L6,97.21912 C6.00219143,97.618691 6.31264417,98 6.78014948,98 L21.7585812,98 C22.1895626,98 22.5372697,97.650832 22.5372697,97.2213115 L22.5372697,82.2428798 C22.5372697,81.773183 22.1537693,81.4619998 21.7527374,81.4619998 C21.5613524,81.4619998 21.366315,81.5335866 21.2078015,81.6921001 Z" id="INVEST-IN-MERJ" fill="url(#linearGradient-1)"></path>
    </g>
</svg>