<svg xmlns="http://www.w3.org/2000/svg" width="38.401" height="52.708" viewBox="0 0 38.401 52.708">
        <path id="Lock" d="M33.3,18.615h-.053V14.041a14.041,14.041,0,1,0-28.083,0v4.574H5.106A5.107,5.107,0,0,0,0,23.721V47.6a5.107,5.107,0,0,0,5.106,5.106H33.3A5.107,5.107,0,0,0,38.4,47.6V23.721A5.142,5.142,0,0,0,33.3,18.615ZM10.478,14.041a8.723,8.723,0,1,1,17.445,0v4.574H10.478ZM21.062,35.423v6.489a1.862,1.862,0,1,1-3.723,0V35.423a3.757,3.757,0,0,1-1.915-3.3,3.829,3.829,0,1,1,7.659,0A4.09,4.09,0,0,1,21.062,35.423Z" transform="translate(0)"/>
</svg>