<?xml version="1.0" standalone="no"?>
<!DOCTYPE svg PUBLIC "-//W3C//DTD SVG 20010904//EN"
 "http://www.w3.org/TR/2001/REC-SVG-20010904/DTD/svg10.dtd">
<svg version="1.0" xmlns="http://www.w3.org/2000/svg"
 width="360.000000pt" height="360.000000pt" viewBox="0 0 360.000000 360.000000"
 preserveAspectRatio="xMidYMid meet">
<metadata>
Created by potrace 1.11, written by Peter Selinger 2001-2013
</metadata>
<g transform="translate(0.000000,360.000000) scale(0.100000,-0.100000)"
fill="#000000" stroke="none">
<path d="M381 3189 c-114 -118 -171 -183 -164 -190 6 -6 81 -8 189 -7 l179 3
3 188 c2 174 1 187 -15 186 -10 0 -96 -81 -192 -180z"/>
<path d="M684 3357 c-2 -7 -3 -94 -2 -192 l3 -180 165 -3 c174 -3 210 1 210
21 0 13 -350 367 -363 367 -4 0 -10 -6 -13 -13z"/>
<path d="M2700 3189 c-112 -116 -169 -184 -163 -190 6 -6 82 -8 189 -7 l179 3
3 188 c2 177 1 187 -16 187 -12 0 -88 -72 -192 -181z"/>
<path d="M2996 3354 c-12 -31 -7 -349 6 -362 8 -8 62 -12 179 -12 170 0 199 3
199 23 0 15 -351 367 -366 367 -7 0 -15 -7 -18 -16z"/>
<path d="M214 2889 c-7 -13 343 -369 363 -369 10 0 13 44 13 190 l0 190 -184
0 c-125 0 -187 -4 -192 -11z"/>
<path d="M676 2884 c-3 -9 -6 -92 -6 -185 0 -146 2 -170 16 -176 20 -7 380
349 370 366 -5 7 -66 11 -191 11 -157 0 -184 -2 -189 -16z"/>
<path d="M2530 2883 c0 -24 340 -363 363 -363 16 0 17 14 15 188 l-3 187 -187
3 c-175 2 -188 1 -188 -15z"/>
<path d="M2997 2893 c-4 -3 -7 -87 -7 -185 0 -155 2 -179 16 -185 20 -7 380
349 370 366 -8 12 -367 16 -379 4z"/>
<path d="M100 2620 l0 -210 209 0 c146 0 212 3 217 11 9 14 -387 409 -410 409
-14 0 -16 -25 -16 -210z"/>
<path d="M936 2631 c-116 -116 -196 -203 -192 -210 5 -7 74 -11 217 -11 l209
0 0 210 c0 194 -1 210 -18 210 -9 0 -107 -89 -216 -199z"/>
<path d="M1260 2620 l0 -210 210 0 c162 0 210 3 210 13 0 16 -391 407 -408
407 -9 0 -12 -49 -12 -210z"/>
<path d="M2095 2629 c-244 -245 -245 -229 21 -229 100 0 189 3 198 6 14 5 16
34 16 215 0 194 -1 209 -18 209 -10 0 -107 -89 -217 -201z"/>
<path d="M2410 2621 c0 -181 2 -210 16 -215 20 -8 378 -8 398 0 9 3 16 11 16
18 0 18 -394 406 -413 406 -16 0 -17 -17 -17 -209z"/>
<path d="M3257 2632 c-108 -108 -197 -202 -197 -209 0 -6 7 -14 16 -17 20 -8
378 -8 398 0 14 5 16 34 16 215 0 193 -1 209 -18 209 -9 0 -106 -89 -215 -198z"/>
<path d="M100 2111 c0 -140 4 -212 11 -217 14 -8 409 385 409 408 0 17 -15 18
-210 18 l-210 0 0 -209z"/>
<path d="M744 2309 c-9 -15 400 -424 415 -415 7 5 11 73 11 217 l0 209 -209 0
c-144 0 -212 -4 -217 -11z"/>
<path d="M1257 2313 c-4 -3 -7 -95 -7 -203 0 -166 2 -200 15 -210 14 -11 44
15 215 186 111 110 200 206 200 216 0 17 -15 18 -208 18 -115 0 -212 -3 -215
-7z"/>
<path d="M1904 2309 c-9 -15 400 -424 415 -415 7 5 11 73 11 217 l0 209 -209
0 c-144 0 -212 -4 -217 -11z"/>
<path d="M2416 2304 c-3 -9 -6 -98 -6 -198 0 -267 -15 -265 230 -21 110 110
200 208 200 217 0 17 -16 18 -209 18 -181 0 -210 -2 -215 -16z"/>
<path d="M3064 2309 c-10 -17 402 -427 416 -413 7 7 9 82 8 215 l-3 204 -207
3 c-146 2 -209 -1 -214 -9z"/>
<path d="M387 2032 c-97 -97 -177 -183 -177 -190 0 -9 45 -12 190 -12 l190 0
0 190 c0 146 -3 190 -13 190 -7 0 -92 -80 -190 -178z"/>
<path d="M680 2020 l0 -190 190 0 c145 0 190 3 190 12 0 17 -351 368 -367 368
-10 0 -13 -44 -13 -190z"/>
<path d="M1547 2032 c-97 -97 -177 -183 -177 -190 0 -9 45 -12 190 -12 l190 0
0 190 c0 146 -3 190 -13 190 -7 0 -92 -80 -190 -178z"/>
<path d="M1836 2194 c-8 -20 -8 -328 0 -348 5 -14 32 -16 195 -16 144 0 189 3
189 12 0 16 -351 368 -366 368 -7 0 -15 -7 -18 -16z"/>
<path d="M2707 2032 c-97 -97 -177 -183 -177 -190 0 -9 45 -12 190 -12 l190 0
0 190 c0 146 -3 190 -13 190 -7 0 -92 -80 -190 -178z"/>
<path d="M2995 2188 c-3 -13 -4 -97 -3 -188 l3 -165 184 -3 c118 -1 188 1 195
8 7 7 -45 65 -169 190 -99 99 -185 180 -192 180 -7 0 -15 -10 -18 -22z"/>
<path d="M1423 1743 c-33 -3 -53 -9 -53 -16 0 -20 357 -370 369 -363 7 5 11
67 11 191 0 157 -2 184 -16 189 -16 6 -216 5 -311 -1z"/>
<path d="M1846 1734 c-13 -13 -16 -44 -16 -179 0 -167 3 -195 24 -195 15 0
366 352 366 367 0 20 -29 23 -195 23 -135 0 -166 -3 -179 -16z"/>
<path d="M2543 1743 c-7 -2 -13 -10 -13 -16 0 -20 357 -370 369 -363 7 5 11
67 11 191 0 157 -2 184 -16 189 -19 7 -333 7 -351 -1z"/>
<path d="M3008 1739 c-16 -9 -18 -29 -18 -190 0 -155 2 -180 16 -186 11 -4 67
45 195 173 98 98 179 184 179 190 0 7 -7 15 -16 18 -27 10 -338 6 -356 -5z"/>
<path d="M210 1727 c0 -20 356 -370 369 -363 7 5 11 67 11 192 l0 184 -190 0
c-146 0 -190 -3 -190 -13z"/>
<path d="M680 1550 c0 -146 3 -190 13 -190 20 0 370 356 363 369 -5 7 -67 11
-192 11 l-184 0 0 -190z"/>
<path d="M106 1673 c-3 -3 -6 -100 -6 -215 l0 -208 209 0 c140 0 212 4 217 11
6 10 -362 390 -397 409 -9 5 -19 6 -23 3z"/>
<path d="M2417 1673 c-4 -3 -7 -100 -7 -215 l0 -208 209 0 c143 0 212 4 217
11 6 10 -391 419 -407 419 -3 0 -9 -3 -12 -7z"/>
<path d="M3262 1477 c-111 -111 -202 -208 -202 -215 0 -9 50 -12 215 -12 l215
0 0 209 c0 166 -3 210 -13 214 -9 3 -94 -75 -215 -196z"/>
<path d="M936 1471 c-116 -116 -196 -203 -192 -210 5 -7 74 -11 217 -11 l209
0 0 210 c0 194 -1 210 -18 210 -9 0 -107 -89 -216 -199z"/>
<path d="M100 951 c0 -142 4 -212 11 -217 15 -9 424 400 415 415 -5 7 -75 11
-217 11 l-209 0 0 -209z"/>
<path d="M744 1149 c-9 -15 400 -424 415 -415 7 5 11 73 11 217 l0 209 -209 0
c-144 0 -212 -4 -217 -11z"/>
<path d="M2416 1144 c-3 -9 -6 -98 -6 -198 0 -266 -16 -265 229 -21 112 110
201 207 201 217 0 17 -15 18 -209 18 -181 0 -210 -2 -215 -16z"/>
<path d="M3060 1148 c0 -21 402 -417 417 -411 10 4 13 48 13 214 l0 209 -215
0 c-165 0 -215 -3 -215 -12z"/>
<path d="M386 871 c-104 -104 -176 -183 -172 -190 5 -7 67 -11 192 -11 l184 0
0 190 c0 146 -3 190 -13 190 -7 0 -93 -80 -191 -179z"/>
<path d="M680 860 l0 -190 190 0 c145 0 190 3 190 12 0 17 -351 368 -367 368
-10 0 -13 -44 -13 -190z"/>
<path d="M2707 872 c-97 -97 -177 -183 -177 -190 0 -9 45 -12 190 -12 l190 0
0 190 c0 146 -3 190 -13 190 -7 0 -92 -80 -190 -178z"/>
<path d="M2994 1037 c-2 -7 -3 -91 -2 -187 l3 -175 184 -3 c118 -1 188 1 195
8 7 7 -45 65 -169 190 -99 99 -186 180 -193 180 -7 0 -15 -6 -18 -13z"/>
<path d="M800 580 l-125 -5 -3 -165 c-3 -174 1 -210 21 -210 7 0 93 81 192
181 170 170 179 181 161 195 -12 9 -39 13 -70 12 -28 -1 -107 -5 -176 -8z"/>
<path d="M2543 583 c-7 -2 -13 -10 -13 -16 0 -20 357 -370 369 -363 7 5 11 67
11 191 0 157 -2 184 -16 189 -19 7 -333 7 -351 -1z"/>
<path d="M3008 579 c-16 -9 -18 -29 -18 -179 0 -172 3 -200 24 -200 15 0 366
352 366 367 0 6 -7 14 -16 17 -27 10 -338 6 -356 -5z"/>
<path d="M210 567 c0 -20 356 -370 369 -363 7 5 11 67 11 192 l0 184 -190 0
c-146 0 -190 -3 -190 -13z"/>
</g>
</svg>
