<svg xmlns="http://www.w3.org/2000/svg" width="499.112" height="569.666" viewBox="0 0 499.112 569.666">
  <g id="Group_237" data-name="Group 237" transform="translate(-1077.333 -2334.334)">
    <path id="Path_1055" data-name="Path 1055" d="M4709.989,4459.593a232.7,232.7,0,1,1,164.542-68.156A231.169,231.169,0,0,1,4709.989,4459.593Zm0-383.951c-83.4,0-151.254,67.853-151.254,151.254s67.854,151.253,151.254,151.253,151.253-67.853,151.253-151.253S4793.39,4075.642,4709.989,4075.642Z" transform="translate(-3380.405 -1659.865)" fill="#444de7"/>
    <path id="Path_1056" data-name="Path 1056" d="M4680.719,4342.771c-80.033,0-145.145-65.112-145.145-145.146s65.111-145.146,145.145-145.146,145.145,65.112,145.145,145.146S4760.753,4342.771,4680.719,4342.771Zm0-239.509a94.363,94.363,0,1,0,94.362,94.363A94.469,94.469,0,0,0,4680.719,4103.262Z" transform="translate(-3351.134 -1630.594)" fill="#894b98"/>
    <path id="Path_1057" data-name="Path 1057" d="M4662.166,4268.719a89.648,89.648,0,1,1,89.648-89.648A89.75,89.75,0,0,1,4662.166,4268.719Zm0-164.924a75.276,75.276,0,1,0,75.275,75.276A75.36,75.36,0,0,0,4662.166,4103.8Z" transform="translate(-3332.581 -1612.04)" fill="#fe374b"/>
    <path id="Path_1058" data-name="Path 1058" d="M4655.881,4243.639a70.852,70.852,0,1,1,70.851-70.851A70.932,70.932,0,0,1,4655.881,4243.639Zm0-135a64.144,64.144,0,1,0,64.145,64.145A64.218,64.218,0,0,0,4655.881,4108.643Z" transform="translate(-3326.297 -1605.756)" fill="#ff634e"/>
    <path id="Path_1059" data-name="Path 1059" d="M4652.329,4229.46a60.226,60.226,0,1,1,60.226-60.226A60.294,60.294,0,0,1,4652.329,4229.46Zm0-116.619a56.393,56.393,0,1,0,56.394,56.393A56.457,56.457,0,0,0,4652.329,4112.842Z" transform="translate(-3322.745 -1602.203)" fill="#fe9752"/>
    <g id="Group_137" data-name="Group 137" transform="translate(1495.844 2835.532)">
      <path id="Path_1060" data-name="Path 1060" d="M4745.75,4328.118c2.4,0,4.3,1.256,4.3,3.815,0,2.531-1.915,3.865-4.289,3.865h-2.549v-7.68Zm.01,5.885a2.068,2.068,0,1,0,.011-4.111h-.629V4334Z" transform="translate(-4742.7 -4327.695)" fill="#444de7"/>
      <path id="Path_1061" data-name="Path 1061" d="M4750.045,4332.873a1.039,1.039,0,0,0,1.068.814,1.374,1.374,0,0,0,1.111-.578l1.245.824a2.427,2.427,0,0,1-2.335,1.208,2.74,2.74,0,1,1-.107-5.475,2.568,2.568,0,0,1,2.677,2.521,5.575,5.575,0,0,1-.028.687Zm.029-1.04h1.815a.845.845,0,0,0-.894-.746A.964.964,0,0,0,4750.074,4331.833Z" transform="translate(-4740.179 -4326.917)" fill="#444de7"/>
      <path id="Path_1062" data-name="Path 1062" d="M4756.17,4331.555a2.738,2.738,0,0,0-.46-.039,1.187,1.187,0,0,0-1.344,1.325V4335h-1.874v-5.237h1.855v.824h.008a1.607,1.607,0,0,1,1.472-.874,1.49,1.49,0,0,1,.343.039Z" transform="translate(-4738.037 -4326.895)" fill="#444de7"/>
      <path id="Path_1063" data-name="Path 1063" d="M4755.377,4328.925a1.094,1.094,0,0,1,1.091-1.088,1.084,1.084,0,1,1,0,2.167A1.1,1.1,0,0,1,4755.377,4328.925Zm2.031,7.014h-1.881V4330.7h1.881Z" transform="translate(-4736.588 -4327.837)" fill="#444de7"/>
      <path id="Path_1064" data-name="Path 1064" d="M4760.228,4332.766h.008l1.082-3.022h1.932l-2.109,5.238h-1.854l-2.1-5.238h1.96Z" transform="translate(-4735.68 -4326.879)" fill="#444de7"/>
      <path id="Path_1065" data-name="Path 1065" d="M4762.657,4331.686l-1.247-.765a2.59,2.59,0,0,1,2.511-1.256c1.434,0,2.4.706,2.4,2.16v3.2h-1.777v-.608l-.019-.01a1.974,1.974,0,0,1-1.59.716,1.546,1.546,0,0,1-1.588-1.539c0-1.275,1.364-1.649,2.481-1.649h.275c.235,0,.373-.128.373-.323,0-.266-.225-.521-.7-.521A1.284,1.284,0,0,0,4762.657,4331.686Zm1.824,1.4v-.156h-.647c-.285,0-.618.117-.618.451a.458.458,0,0,0,.47.441A.722.722,0,0,0,4764.48,4333.089Z" transform="translate(-4733.589 -4326.917)" fill="#444de7"/>
      <path id="Path_1066" data-name="Path 1066" d="M4769.079,4335.52a2.714,2.714,0,0,1-.8.117,2.031,2.031,0,0,1-2.294-2.176v-1.6h-.9v-1.549h.953v-1.7h1.814v1.7h1.256v1.549h-1.256v1.452a.685.685,0,0,0,.776.756,1.714,1.714,0,0,0,.451-.059Z" transform="translate(-4731.714 -4327.446)" fill="#444de7"/>
      <path id="Path_1067" data-name="Path 1067" d="M4768.329,4328.925a1.093,1.093,0,0,1,1.091-1.088,1.084,1.084,0,1,1,0,2.167A1.1,1.1,0,0,1,4768.329,4328.925Zm2.033,7.014h-1.884V4330.7h1.884Z" transform="translate(-4730.083 -4327.837)" fill="#444de7"/>
      <path id="Path_1068" data-name="Path 1068" d="M4773.178,4332.766h.009l1.082-3.022h1.931l-2.107,5.238h-1.854l-2.1-5.238h1.959Z" transform="translate(-4729.176 -4326.879)" fill="#444de7"/>
      <path id="Path_1069" data-name="Path 1069" d="M4776.105,4332.873a1.04,1.04,0,0,0,1.069.814,1.374,1.374,0,0,0,1.109-.578l1.245.824a2.424,2.424,0,0,1-2.334,1.208,2.74,2.74,0,1,1-.108-5.475,2.57,2.57,0,0,1,2.679,2.521,5.218,5.218,0,0,1-.03.687Zm.03-1.04h1.814a.845.845,0,0,0-.892-.746A.964.964,0,0,0,4776.135,4331.833Z" transform="translate(-4727.091 -4326.917)" fill="#444de7"/>
      <path id="Path_1070" data-name="Path 1070" d="M4780.646,4335.14a2.238,2.238,0,0,1-2.316-1.248l1.2-.707a1.08,1.08,0,0,0,1.05.629c.255,0,.48-.128.48-.323s-.158-.324-.637-.422c-1.111-.228-1.933-.716-1.933-1.669a1.949,1.949,0,0,1,2.158-1.735,2.221,2.221,0,0,1,2.09,1.1l-1.187.7a.93.93,0,0,0-.855-.49c-.284,0-.47.117-.47.286,0,.2.215.3.627.383,1.257.234,2,.832,2,1.746S4782.136,4335.14,4780.646,4335.14Z" transform="translate(-4725.061 -4326.917)" fill="#444de7"/>
      <path id="Path_1071" data-name="Path 1071" d="M4746.323,4344.027v.96h-.735v-.96a2.893,2.893,0,0,1-2.718-1.755l1.6-.825a1.527,1.527,0,0,0,1.138.9v-1.432c-1.51-.441-2.423-1.11-2.423-2.405a2.5,2.5,0,0,1,2.4-2.373v-.894h.735v.884a2.823,2.823,0,0,1,2.493,1.678l-1.581.861a1.4,1.4,0,0,0-.932-.873v1.442c1.737.53,2.64,1.12,2.64,2.4S4748.05,4343.909,4746.323,4344.027Zm-.716-5.033v-1.187a.63.63,0,0,0-.5.6C4745.107,4338.621,4745.206,4338.808,4745.607,4338.994Zm.7,3.375c.432-.078.688-.3.688-.618,0-.265-.167-.443-.687-.628Z" transform="translate(-4742.871 -4324.115)" fill="#444de7"/>
      <path id="Path_1072" data-name="Path 1072" d="M4747.159,4337.483l2.677-1.531h1.581v7.68h-1.933v-5.376l-1.452.814Z" transform="translate(-4740.716 -4323.761)" fill="#444de7"/>
      <path id="Path_1073" data-name="Path 1073" d="M4750.795,4340.775a1.143,1.143,0,1,1,2.286,0,1.143,1.143,0,0,1-2.286,0Z" transform="translate(-4738.89 -4321.924)" fill="#444de7"/>
      <path id="Path_1074" data-name="Path 1074" d="M4755.58,4339.89c.843-.678,1.187-1,1.187-1.482a.836.836,0,0,0-.92-.825,1.246,1.246,0,0,0-1.208.884l-1.687-.716a2.814,2.814,0,0,1,2.885-1.884,2.549,2.549,0,0,1,2.843,2.491c0,.963-.548,1.6-1.735,2.5l-1.551,1.188h3.327v1.628h-5.849v-1.628Z" transform="translate(-4737.847 -4323.803)" fill="#444de7"/>
      <path id="Path_1075" data-name="Path 1075" d="M4765.113,4343.116a4.009,4.009,0,0,1-2.235.677,3.988,3.988,0,1,1,3.356-1.8l.773.678-1.059,1.206Zm-2.235-1.128a2.04,2.04,0,0,0,.785-.156l-1.051-.933,1.059-1.207,1.09.99a2.355,2.355,0,0,0,.166-.872,2.048,2.048,0,1,0-2.049,2.178Z" transform="translate(-4734.839 -4323.803)" fill="#444de7"/>
      <path id="Path_1076" data-name="Path 1076" d="M4766.694,4340.414a.744.744,0,1,0,1.483,0v-2.836h1.862v5.238h-1.855v-.646h-.018a1.885,1.885,0,0,1-1.5.757c-1.364,0-1.835-1.16-1.835-2.17v-3.178h1.864Z" transform="translate(-4731.841 -4322.944)" fill="#444de7"/>
      <path id="Path_1077" data-name="Path 1077" d="M4770.234,4339.521l-1.245-.766a2.591,2.591,0,0,1,2.512-1.255c1.433,0,2.4.707,2.4,2.159v3.2h-1.776v-.608l-.02-.01a1.976,1.976,0,0,1-1.591.717,1.546,1.546,0,0,1-1.586-1.541c0-1.274,1.363-1.649,2.481-1.649h.275c.235,0,.373-.127.373-.322,0-.266-.226-.521-.7-.521A1.288,1.288,0,0,0,4770.234,4339.521Zm1.826,1.4v-.157h-.648c-.284,0-.618.118-.618.452a.458.458,0,0,0,.47.441A.722.722,0,0,0,4772.06,4340.923Z" transform="translate(-4729.783 -4322.983)" fill="#444de7"/>
      <path id="Path_1078" data-name="Path 1078" d="M4772.834,4341.108a2.588,2.588,0,0,1,2.493-2.707,1.792,1.792,0,0,1,1.452.7h.037v-3.356h1.866v8h-1.855v-.637h-.039a1.876,1.876,0,0,1-1.5.747A2.583,2.583,0,0,1,4772.834,4341.108Zm2.953-1.059a1.06,1.06,0,1,0,1.041,1.059A1.052,1.052,0,0,0,4775.787,4340.049Z" transform="translate(-4727.821 -4323.865)" fill="#444de7"/>
      <path id="Path_1079" data-name="Path 1079" d="M4781.211,4339.389a2.741,2.741,0,0,0-.46-.039,1.187,1.187,0,0,0-1.345,1.325v2.158h-1.873v-5.238h1.855v.824h.007a1.609,1.609,0,0,1,1.473-.875,1.518,1.518,0,0,1,.342.039Z" transform="translate(-4725.461 -4322.96)" fill="#444de7"/>
      <path id="Path_1080" data-name="Path 1080" d="M4780.419,4336.76a1.093,1.093,0,0,1,1.091-1.089,1.084,1.084,0,1,1,0,2.167A1.1,1.1,0,0,1,4780.419,4336.76Zm2.031,7.014h-1.882v-5.238h1.882Z" transform="translate(-4724.012 -4323.902)" fill="#444de7"/>
      <path id="Path_1081" data-name="Path 1081" d="M4782.582,4343.737v-8h1.884v8Z" transform="translate(-4722.927 -4323.865)" fill="#444de7"/>
      <path id="Path_1082" data-name="Path 1082" d="M4784.651,4343.737v-8h1.883v8Z" transform="translate(-4721.888 -4323.865)" fill="#444de7"/>
      <path id="Path_1083" data-name="Path 1083" d="M4786.62,4336.76a1.093,1.093,0,0,1,1.091-1.089,1.084,1.084,0,1,1,0,2.167A1.1,1.1,0,0,1,4786.62,4336.76Zm2.033,7.014h-1.883v-5.238h1.883Z" transform="translate(-4720.898 -4323.902)" fill="#444de7"/>
      <path id="Path_1084" data-name="Path 1084" d="M4791.506,4337.5a2.752,2.752,0,0,1,2.865,2.7,2.816,2.816,0,0,1-2.9,2.776,2.764,2.764,0,0,1-2.874-2.739A2.821,2.821,0,0,1,4791.506,4337.5Zm-.02,3.8a1.047,1.047,0,0,0,1.01-1.07,1.016,1.016,0,1,0-2.029,0A1.049,1.049,0,0,0,4791.486,4341.3Z" transform="translate(-4719.907 -4322.983)" fill="#444de7"/>
      <path id="Path_1085" data-name="Path 1085" d="M4796.4,4340.017a.736.736,0,0,0-.716-.8.727.727,0,0,0-.767.8v2.835h-1.862v-5.237h1.853v.657h.02a1.889,1.889,0,0,1,1.5-.766c1.384,0,1.834,1.157,1.834,2.178v3.168H4796.4Z" transform="translate(-4717.666 -4322.98)" fill="#444de7"/>
    </g>
    <circle id="Ellipse_63" data-name="Ellipse 63" cx="9.026" cy="9.026" r="9.026" transform="translate(1471.053 2837.614)" fill="#444de7"/>
    <g id="Group_138" data-name="Group 138" transform="translate(1395.196 2835.641)">
      <path id="Path_1086" data-name="Path 1086" d="M4676.21,4335.8v-7.68h3.148c1.689,0,2.876.8,2.876,2.472a2.176,2.176,0,0,1-1.531,2.215l1.706,2.993h-2.1l-1.54-2.7h-.628v2.7Zm3-4.346c.7,0,1.079-.284,1.079-.793,0-.493-.3-.873-1.09-.873h-1.059v1.666Z" transform="translate(-4675.699 -4327.804)" fill="#894b98"/>
      <path id="Path_1087" data-name="Path 1087" d="M4682.438,4332.873a1.04,1.04,0,0,0,1.07.814,1.363,1.363,0,0,0,1.106-.578l1.248.824a2.425,2.425,0,0,1-2.334,1.208,2.74,2.74,0,1,1-.109-5.475,2.569,2.569,0,0,1,2.68,2.521,5.218,5.218,0,0,1-.03.687Zm.03-1.04h1.814a.846.846,0,0,0-.893-.746A.962.962,0,0,0,4682.468,4331.833Z" transform="translate(-4673.483 -4327.026)" fill="#894b98"/>
      <path id="Path_1088" data-name="Path 1088" d="M4686.013,4331.686l-1.245-.765a2.59,2.59,0,0,1,2.511-1.256c1.433,0,2.405.706,2.405,2.16v3.2h-1.777v-.608l-.019-.01a1.973,1.973,0,0,1-1.589.716,1.548,1.548,0,0,1-1.589-1.539c0-1.275,1.364-1.649,2.481-1.649h.275c.236,0,.373-.128.373-.323,0-.266-.224-.521-.695-.521A1.288,1.288,0,0,0,4686.013,4331.686Zm1.825,1.4v-.156h-.648c-.283,0-.617.117-.617.451a.46.46,0,0,0,.472.441A.721.721,0,0,0,4687.838,4333.089Z" transform="translate(-4671.432 -4327.026)" fill="#894b98"/>
      <path id="Path_1089" data-name="Path 1089" d="M4688.8,4335.9v-7.995h1.884v7.995Z" transform="translate(-4669.379 -4327.908)" fill="#894b98"/>
      <path id="Path_1090" data-name="Path 1090" d="M4694.43,4329.833v1.257h3.139v1.657h-3.139v1.324h3.482v1.726h-5.394v-7.68h5.366v1.716Z" transform="translate(-4667.51 -4327.804)" fill="#894b98"/>
      <path id="Path_1091" data-name="Path 1091" d="M4698.951,4335.14a2.237,2.237,0,0,1-2.314-1.248l1.2-.707a1.08,1.08,0,0,0,1.05.629c.255,0,.479-.128.479-.323s-.157-.324-.637-.422c-1.108-.228-1.933-.716-1.933-1.669a1.95,1.95,0,0,1,2.158-1.735,2.216,2.216,0,0,1,2.089,1.1l-1.187.7a.928.928,0,0,0-.853-.49c-.284,0-.472.117-.472.286,0,.2.216.3.627.383,1.256.234,2,.832,2,1.746S4700.442,4335.14,4698.951,4335.14Z" transform="translate(-4665.44 -4327.026)" fill="#894b98"/>
      <path id="Path_1092" data-name="Path 1092" d="M4703.9,4335.52a2.707,2.707,0,0,1-.792.117,2.031,2.031,0,0,1-2.3-2.176v-1.6h-.9v-1.549h.953v-1.7h1.814v1.7h1.255v1.549h-1.255v1.452a.685.685,0,0,0,.777.756,1.707,1.707,0,0,0,.449-.059Z" transform="translate(-4663.795 -4327.555)" fill="#894b98"/>
      <path id="Path_1093" data-name="Path 1093" d="M4704.385,4331.686l-1.247-.765a2.59,2.59,0,0,1,2.511-1.256c1.434,0,2.406.706,2.406,2.16v3.2h-1.777v-.608l-.02-.01a1.971,1.971,0,0,1-1.589.716,1.548,1.548,0,0,1-1.589-1.539c0-1.275,1.364-1.649,2.481-1.649h.276c.235,0,.372-.128.372-.323,0-.266-.224-.521-.7-.521A1.283,1.283,0,0,0,4704.385,4331.686Zm1.824,1.4v-.156h-.648c-.284,0-.618.117-.618.451a.459.459,0,0,0,.472.441A.721.721,0,0,0,4706.208,4333.089Z" transform="translate(-4662.205 -4327.026)" fill="#894b98"/>
      <path id="Path_1094" data-name="Path 1094" d="M4710.806,4335.52a2.715,2.715,0,0,1-.794.117,2.031,2.031,0,0,1-2.3-2.176v-1.6h-.9v-1.549h.95v-1.7h1.815v1.7h1.256v1.549h-1.256v1.452a.685.685,0,0,0,.777.756,1.706,1.706,0,0,0,.451-.059Z" transform="translate(-4660.33 -4327.555)" fill="#894b98"/>
      <path id="Path_1095" data-name="Path 1095" d="M4711.743,4332.873a1.039,1.039,0,0,0,1.069.814,1.368,1.368,0,0,0,1.107-.578l1.247.824a2.427,2.427,0,0,1-2.336,1.208,2.74,2.74,0,1,1-.107-5.475,2.568,2.568,0,0,1,2.677,2.521,5.481,5.481,0,0,1-.029.687Zm.028-1.04h1.815a.844.844,0,0,0-.891-.746A.966.966,0,0,0,4711.771,4331.833Z" transform="translate(-4658.766 -4327.026)" fill="#894b98"/>
      <path id="Path_1096" data-name="Path 1096" d="M4679.323,4344.027v.96h-.735v-.96a2.9,2.9,0,0,1-2.718-1.755l1.6-.825a1.523,1.523,0,0,0,1.136.9v-1.432c-1.51-.441-2.422-1.11-2.422-2.405a2.5,2.5,0,0,1,2.4-2.373v-.894h.735v.884a2.824,2.824,0,0,1,2.493,1.678l-1.581.861a1.4,1.4,0,0,0-.932-.873v1.442c1.738.53,2.641,1.12,2.641,2.4S4681.049,4343.909,4679.323,4344.027Zm-.717-5.033v-1.187a.629.629,0,0,0-.5.6C4678.106,4338.621,4678.206,4338.808,4678.606,4338.994Zm.7,3.375c.432-.078.687-.3.687-.618,0-.265-.167-.443-.687-.628Z" transform="translate(-4675.87 -4324.224)" fill="#894b98"/>
      <path id="Path_1097" data-name="Path 1097" d="M4683.168,4339.89c.843-.678,1.186-1,1.186-1.482a.837.837,0,0,0-.922-.825,1.246,1.246,0,0,0-1.207.884l-1.687-.716a2.814,2.814,0,0,1,2.884-1.884,2.55,2.55,0,0,1,2.844,2.491c0,.963-.549,1.6-1.735,2.5l-1.55,1.188h3.326v1.628h-5.849v-1.628Z" transform="translate(-4673.566 -4323.912)" fill="#894b98"/>
      <path id="Path_1098" data-name="Path 1098" d="M4684.67,4337.483l2.678-1.531h1.58v7.68H4687v-5.376l-1.453.814Z" transform="translate(-4671.451 -4323.87)" fill="#894b98"/>
      <path id="Path_1099" data-name="Path 1099" d="M4688.214,4335.952h5.838v1.6l-3.276,6.08h-2.13l3.3-6.011h-3.728Z" transform="translate(-4669.671 -4323.87)" fill="#894b98"/>
      <path id="Path_1100" data-name="Path 1100" d="M4693.692,4337.708v-1.756h6.279v1.756H4697.8v5.924h-1.932v-5.924Z" transform="translate(-4666.921 -4323.87)" fill="#894b98"/>
      <path id="Path_1101" data-name="Path 1101" d="M4701.581,4339.389a2.765,2.765,0,0,0-.461-.039,1.187,1.187,0,0,0-1.345,1.325v2.158H4697.9v-5.238h1.856v.824h.008a1.605,1.605,0,0,1,1.471-.875,1.534,1.534,0,0,1,.344.039Z" transform="translate(-4664.805 -4323.069)" fill="#894b98"/>
      <path id="Path_1102" data-name="Path 1102" d="M4700.788,4336.76a1.093,1.093,0,0,1,1.09-1.089,1.084,1.084,0,1,1,0,2.167A1.1,1.1,0,0,1,4700.788,4336.76Zm2.033,7.014h-1.884v-5.238h1.884Z" transform="translate(-4663.356 -4324.011)" fill="#894b98"/>
      <path id="Path_1103" data-name="Path 1103" d="M4702.95,4343.737v-8h1.884v8Z" transform="translate(-4662.271 -4323.974)" fill="#894b98"/>
      <path id="Path_1104" data-name="Path 1104" d="M4705.02,4343.737v-8h1.882v8Z" transform="translate(-4661.231 -4323.974)" fill="#894b98"/>
      <path id="Path_1105" data-name="Path 1105" d="M4706.989,4336.76a1.092,1.092,0,0,1,1.09-1.089,1.084,1.084,0,1,1,0,2.167A1.1,1.1,0,0,1,4706.989,4336.76Zm2.032,7.014h-1.883v-5.238h1.883Z" transform="translate(-4660.242 -4324.011)" fill="#894b98"/>
      <path id="Path_1106" data-name="Path 1106" d="M4711.874,4337.5a2.754,2.754,0,0,1,2.867,2.7,2.817,2.817,0,0,1-2.905,2.776,2.764,2.764,0,0,1-2.874-2.739A2.821,2.821,0,0,1,4711.874,4337.5Zm-.017,3.8a1.048,1.048,0,0,0,1.009-1.07,1.016,1.016,0,1,0-2.031,0A1.049,1.049,0,0,0,4711.856,4341.3Z" transform="translate(-4659.251 -4323.092)" fill="#894b98"/>
      <path id="Path_1107" data-name="Path 1107" d="M4716.77,4340.017a.735.735,0,0,0-.714-.8.726.726,0,0,0-.766.8v2.835h-1.864v-5.237h1.855v.657h.019a1.887,1.887,0,0,1,1.5-.766c1.383,0,1.836,1.157,1.836,2.178v3.168h-1.867Z" transform="translate(-4657.009 -4323.089)" fill="#894b98"/>
    </g>
    <circle id="Ellipse_64" data-name="Ellipse 64" cx="9.026" cy="9.026" r="9.026" transform="translate(1370.405 2837.614)" fill="#894b98"/>
    <g id="Group_139" data-name="Group 139" transform="translate(1298.915 2835.532)">
      <path id="Path_1108" data-name="Path 1108" d="M4614.032,4329.833v1.257h3.138v1.657h-3.138v1.324h3.482v1.726h-5.4v-7.68h5.366v1.716Z" transform="translate(-4611.606 -4327.695)" fill="#fe374b"/>
      <path id="Path_1109" data-name="Path 1109" d="M4616.225,4332.385a2.587,2.587,0,0,1,2.492-2.706,1.821,1.821,0,0,1,1.46.7h.041v-.6h1.854v7.829h-1.863v-3.217h-.032a1.855,1.855,0,0,1-1.5.736A2.582,2.582,0,0,1,4616.225,4332.385Zm2.951-1.059a1.06,1.06,0,1,0,1.042,1.059A1.052,1.052,0,0,0,4619.176,4331.326Z" transform="translate(-4609.545 -4326.912)" fill="#fe374b"/>
      <path id="Path_1110" data-name="Path 1110" d="M4622.756,4332.58a.743.743,0,1,0,1.482,0v-2.836h1.862v5.238h-1.854v-.646h-.02a1.883,1.883,0,0,1-1.5.756c-1.363,0-1.834-1.161-1.834-2.169v-3.179h1.864Z" transform="translate(-4607.201 -4326.879)" fill="#fe374b"/>
      <path id="Path_1111" data-name="Path 1111" d="M4625.068,4328.925a1.094,1.094,0,0,1,1.091-1.088,1.084,1.084,0,1,1,0,2.167A1.1,1.1,0,0,1,4625.068,4328.925Zm2.033,7.014h-1.884V4330.7h1.884Z" transform="translate(-4605.102 -4327.837)" fill="#fe374b"/>
      <path id="Path_1112" data-name="Path 1112" d="M4630.937,4335.52a2.715,2.715,0,0,1-.8.117,2.031,2.031,0,0,1-2.293-2.176v-1.6h-.9v-1.549h.953v-1.7h1.814v1.7h1.255v1.549h-1.255v1.452a.685.685,0,0,0,.776.756,1.7,1.7,0,0,0,.451-.059Z" transform="translate(-4604.163 -4327.446)" fill="#fe374b"/>
      <path id="Path_1113" data-name="Path 1113" d="M4630.188,4328.925a1.093,1.093,0,0,1,1.089-1.088,1.084,1.084,0,1,1,0,2.167A1.1,1.1,0,0,1,4630.188,4328.925Zm2.031,7.014h-1.884V4330.7h1.884Z" transform="translate(-4602.532 -4327.837)" fill="#fe374b"/>
      <path id="Path_1114" data-name="Path 1114" d="M4633.975,4332.873a1.04,1.04,0,0,0,1.069.814,1.374,1.374,0,0,0,1.108-.578l1.246.824a2.426,2.426,0,0,1-2.335,1.208,2.74,2.74,0,1,1-.106-5.475,2.569,2.569,0,0,1,2.677,2.521,5.218,5.218,0,0,1-.03.687Zm.03-1.04h1.815a.847.847,0,0,0-.893-.746A.963.963,0,0,0,4634,4331.833Z" transform="translate(-4601.542 -4326.917)" fill="#fe374b"/>
      <path id="Path_1115" data-name="Path 1115" d="M4638.516,4335.14a2.24,2.24,0,0,1-2.316-1.248l1.2-.707a1.082,1.082,0,0,0,1.05.629c.256,0,.481-.128.481-.323s-.158-.324-.638-.422c-1.108-.228-1.933-.716-1.933-1.669a1.95,1.95,0,0,1,2.159-1.735,2.218,2.218,0,0,1,2.089,1.1l-1.187.7a.929.929,0,0,0-.854-.49c-.284,0-.47.117-.47.286,0,.2.217.3.628.383,1.256.234,2,.832,2,1.746S4640.005,4335.14,4638.516,4335.14Z" transform="translate(-4599.513 -4326.917)" fill="#fe374b"/>
      <path id="Path_1116" data-name="Path 1116" d="M4615.232,4344.027v.96h-.736v-.96a2.893,2.893,0,0,1-2.717-1.755l1.6-.825a1.528,1.528,0,0,0,1.139.9v-1.432c-1.511-.441-2.425-1.11-2.425-2.405a2.5,2.5,0,0,1,2.4-2.373v-.894h.736v.884a2.821,2.821,0,0,1,2.492,1.678l-1.579.861a1.4,1.4,0,0,0-.934-.873v1.442c1.737.53,2.64,1.12,2.64,2.4S4616.959,4343.909,4615.232,4344.027Zm-.715-5.033v-1.187a.628.628,0,0,0-.5.6C4614.017,4338.621,4614.114,4338.808,4614.517,4338.994Zm.7,3.375c.434-.078.687-.3.687-.618,0-.265-.167-.443-.687-.628Z" transform="translate(-4611.778 -4324.115)" fill="#fe374b"/>
      <path id="Path_1117" data-name="Path 1117" d="M4616.264,4335.952h5.836v1.6l-3.275,6.08h-2.131l3.3-6.011h-3.728Z" transform="translate(-4609.526 -4323.761)" fill="#fe374b"/>
      <path id="Path_1118" data-name="Path 1118" d="M4620.486,4342.057l1.591-.8a1.361,1.361,0,0,0,1.3.863c.658,0,1.021-.314,1.021-.736,0-.481-.363-.765-1.021-.765h-.7v-1.63h.648c.579,0,.932-.274.932-.735,0-.394-.324-.714-.932-.714a1.228,1.228,0,0,0-1.138.814l-1.609-.777a2.833,2.833,0,0,1,2.806-1.707c1.481,0,2.757.765,2.757,2.176a1.7,1.7,0,0,1-1.089,1.649,1.778,1.778,0,0,1,1.246,1.768c0,1.442-1.265,2.333-2.9,2.333A2.882,2.882,0,0,1,4620.486,4342.057Z" transform="translate(-4607.405 -4323.803)" fill="#fe374b"/>
      <path id="Path_1119" data-name="Path 1119" d="M4626.087,4337.708v-1.756h6.28v1.756H4630.2v5.924h-1.932v-5.924Z" transform="translate(-4604.592 -4323.761)" fill="#fe374b"/>
      <path id="Path_1120" data-name="Path 1120" d="M4633.977,4339.389a2.755,2.755,0,0,0-.461-.039,1.187,1.187,0,0,0-1.343,1.325v2.158H4630.3v-5.238h1.854v.824h.009a1.607,1.607,0,0,1,1.472-.875,1.516,1.516,0,0,1,.343.039Z" transform="translate(-4602.477 -4322.96)" fill="#fe374b"/>
      <path id="Path_1121" data-name="Path 1121" d="M4633.185,4336.76a1.092,1.092,0,0,1,1.089-1.089,1.084,1.084,0,1,1,0,2.167A1.1,1.1,0,0,1,4633.185,4336.76Zm2.031,7.014h-1.884v-5.238h1.884Z" transform="translate(-4601.028 -4323.902)" fill="#fe374b"/>
      <path id="Path_1122" data-name="Path 1122" d="M4635.346,4343.737v-8h1.883v8Z" transform="translate(-4599.943 -4323.865)" fill="#fe374b"/>
      <path id="Path_1123" data-name="Path 1123" d="M4637.415,4343.737v-8h1.884v8Z" transform="translate(-4598.903 -4323.865)" fill="#fe374b"/>
      <path id="Path_1124" data-name="Path 1124" d="M4639.385,4336.76a1.092,1.092,0,0,1,1.089-1.089,1.084,1.084,0,1,1,0,2.167A1.1,1.1,0,0,1,4639.385,4336.76Zm2.031,7.014h-1.884v-5.238h1.884Z" transform="translate(-4597.913 -4323.902)" fill="#fe374b"/>
      <path id="Path_1125" data-name="Path 1125" d="M4644.271,4337.5a2.753,2.753,0,0,1,2.865,2.7,2.816,2.816,0,0,1-2.9,2.776,2.765,2.765,0,0,1-2.875-2.739A2.821,2.821,0,0,1,4644.271,4337.5Zm-.019,3.8a1.047,1.047,0,0,0,1.009-1.07,1.017,1.017,0,1,0-2.031,0A1.05,1.05,0,0,0,4644.252,4341.3Z" transform="translate(-4596.923 -4322.983)" fill="#fe374b"/>
      <path id="Path_1126" data-name="Path 1126" d="M4649.167,4340.017a.736.736,0,0,0-.716-.8.725.725,0,0,0-.764.8v2.835h-1.865v-5.237h1.855v.657h.018a1.887,1.887,0,0,1,1.5-.766c1.384,0,1.836,1.157,1.836,2.178v3.168h-1.865Z" transform="translate(-4594.682 -4322.98)" fill="#fe374b"/>
    </g>
    <circle id="Ellipse_65" data-name="Ellipse 65" cx="9.026" cy="9.026" r="9.026" transform="translate(1274.124 2837.614)" fill="#fe374b"/>
    <g id="Group_140" data-name="Group 140" transform="translate(1207.279 2835.641)">
      <path id="Path_1127" data-name="Path 1127" d="M4554.854,4334.213a1.633,1.633,0,0,0,1.639-1.021h-2.209v-1.549h4.229v.746a3.487,3.487,0,0,1-3.659,3.571,3.889,3.889,0,0,1-4.022-3.965,4,4,0,0,1,4.014-3.963,3.63,3.63,0,0,1,3.463,2.159l-1.64.8a1.9,1.9,0,0,0-1.833-1.217,2.07,2.07,0,0,0-2.051,2.2A2.1,2.1,0,0,0,4554.854,4334.213Z" transform="translate(-4550.753 -4327.846)" fill="#ff634e"/>
      <path id="Path_1128" data-name="Path 1128" d="M4559.292,4329.665a2.754,2.754,0,0,1,2.867,2.7,2.817,2.817,0,0,1-2.905,2.776,2.765,2.765,0,0,1-2.874-2.74A2.822,2.822,0,0,1,4559.292,4329.665Zm-.019,3.8a1.048,1.048,0,0,0,1.011-1.071,1.016,1.016,0,1,0-2.031,0A1.05,1.05,0,0,0,4559.274,4333.462Z" transform="translate(-4547.965 -4327.026)" fill="#ff634e"/>
      <path id="Path_1129" data-name="Path 1129" d="M4560.846,4335.9v-7.995h1.883v7.995Z" transform="translate(-4545.723 -4327.908)" fill="#ff634e"/>
      <path id="Path_1130" data-name="Path 1130" d="M4562.73,4333.273a2.588,2.588,0,0,1,2.494-2.707,1.789,1.789,0,0,1,1.452.7h.039v-3.355h1.864v7.995h-1.854v-.637h-.041a1.872,1.872,0,0,1-1.5.747A2.584,2.584,0,0,1,4562.73,4333.273Zm2.953-1.059a1.06,1.06,0,1,0,1.042,1.059A1.052,1.052,0,0,0,4565.683,4332.215Z" transform="translate(-4544.775 -4327.908)" fill="#ff634e"/>
      <path id="Path_1131" data-name="Path 1131" d="M4554.232,4344.027v.96h-.736v-.96a2.9,2.9,0,0,1-2.718-1.755l1.6-.825a1.529,1.529,0,0,0,1.14.9v-1.432c-1.512-.441-2.426-1.11-2.426-2.405a2.5,2.5,0,0,1,2.4-2.373v-.894h.736v.884a2.819,2.819,0,0,1,2.491,1.678l-1.578.861a1.4,1.4,0,0,0-.933-.873v1.442c1.737.53,2.639,1.12,2.639,2.4S4555.959,4343.909,4554.232,4344.027Zm-.715-5.033v-1.187a.628.628,0,0,0-.5.6C4553.017,4338.621,4553.114,4338.808,4553.518,4338.994Zm.7,3.375c.432-.078.687-.3.687-.618,0-.265-.167-.443-.687-.628Z" transform="translate(-4550.778 -4324.224)" fill="#ff634e"/>
      <path id="Path_1132" data-name="Path 1132" d="M4555.354,4341.518a1.975,1.975,0,0,1,1.334-1.826v-.01a1.767,1.767,0,0,1-1.146-1.656c0-1.414,1.44-2.159,2.8-2.159,1.393,0,2.785.756,2.785,2.159a1.765,1.765,0,0,1-1.138,1.656v.01a1.954,1.954,0,0,1,1.324,1.826c0,1.373-1.265,2.275-2.971,2.275C4556.679,4343.793,4555.354,4342.93,4555.354,4341.518Zm2.984.647c.628,0,1.069-.363,1.069-.854s-.441-.843-1.069-.843-1.07.353-1.07.843S4557.7,4342.165,4558.338,4342.165Zm0-3.121a.791.791,0,1,0-.894-.786A.847.847,0,0,0,4558.338,4339.044Z" transform="translate(-4548.479 -4323.912)" fill="#ff634e"/>
      <path id="Path_1133" data-name="Path 1133" d="M4561.027,4337.708v-1.756h6.279v1.756h-2.167v5.924h-1.932v-5.924Z" transform="translate(-4545.63 -4323.87)" fill="#ff634e"/>
      <path id="Path_1134" data-name="Path 1134" d="M4568.917,4339.389a2.768,2.768,0,0,0-.461-.039,1.187,1.187,0,0,0-1.345,1.325v2.158h-1.873v-5.238h1.855v.824h.008a1.607,1.607,0,0,1,1.472-.875,1.533,1.533,0,0,1,.344.039Z" transform="translate(-4543.517 -4323.069)" fill="#ff634e"/>
      <path id="Path_1135" data-name="Path 1135" d="M4568.123,4336.76a1.093,1.093,0,0,1,1.091-1.089,1.084,1.084,0,1,1,0,2.167A1.1,1.1,0,0,1,4568.123,4336.76Zm2.033,7.014h-1.884v-5.238h1.884Z" transform="translate(-4542.067 -4324.011)" fill="#ff634e"/>
      <path id="Path_1136" data-name="Path 1136" d="M4570.285,4343.737v-8h1.883v8Z" transform="translate(-4540.981 -4323.974)" fill="#ff634e"/>
      <path id="Path_1137" data-name="Path 1137" d="M4572.354,4343.737v-8h1.882v8Z" transform="translate(-4539.942 -4323.974)" fill="#ff634e"/>
      <path id="Path_1138" data-name="Path 1138" d="M4574.324,4336.76a1.092,1.092,0,0,1,1.09-1.089,1.084,1.084,0,1,1,0,2.167A1.1,1.1,0,0,1,4574.324,4336.76Zm2.032,7.014h-1.883v-5.238h1.883Z" transform="translate(-4538.952 -4324.011)" fill="#ff634e"/>
      <path id="Path_1139" data-name="Path 1139" d="M4579.209,4337.5a2.753,2.753,0,0,1,2.867,2.7,2.817,2.817,0,0,1-2.905,2.776,2.764,2.764,0,0,1-2.874-2.739A2.821,2.821,0,0,1,4579.209,4337.5Zm-.017,3.8a1.048,1.048,0,0,0,1.01-1.07,1.017,1.017,0,1,0-2.031,0A1.049,1.049,0,0,0,4579.192,4341.3Z" transform="translate(-4537.961 -4323.092)" fill="#ff634e"/>
      <path id="Path_1140" data-name="Path 1140" d="M4584.106,4340.017a.736.736,0,0,0-.715-.8.727.727,0,0,0-.766.8v2.835h-1.862v-5.237h1.854v.657h.019a1.886,1.886,0,0,1,1.5-.766c1.384,0,1.835,1.157,1.835,2.178v3.168h-1.865Z" transform="translate(-4535.72 -4323.089)" fill="#ff634e"/>
    </g>
    <circle id="Ellipse_66" data-name="Ellipse 66" cx="9.026" cy="9.026" r="9.026" transform="translate(1182.489 2837.614)" fill="#ff634e"/>
    <g id="Group_141" data-name="Group 141" transform="translate(1102.123 2835.532)">
      <path id="Path_1141" data-name="Path 1141" d="M4484.492,4335.8h-3.374v-7.68h3.326a2.739,2.739,0,0,1,1.942.717,1.894,1.894,0,0,1,.511,1.314,1.778,1.778,0,0,1-1.229,1.647v.03a1.76,1.76,0,0,1,1.561,1.805C4487.23,4335.142,4485.916,4335.8,4484.492,4335.8Zm-.4-6.022h-1.1v1.383h1.117c.561,0,.866-.266.866-.7C4484.974,4329.99,4484.631,4329.776,4484.091,4329.776Zm.324,2.913h-1.424v1.442h1.432c.492,0,.874-.235.874-.726S4484.886,4332.688,4484.416,4332.688Z" transform="translate(-4480.607 -4327.695)" fill="#fe9752"/>
      <path id="Path_1142" data-name="Path 1142" d="M4485.728,4328.925a1.093,1.093,0,0,1,1.089-1.088,1.084,1.084,0,1,1,0,2.167A1.1,1.1,0,0,1,4485.728,4328.925Zm2.031,7.014h-1.883V4330.7h1.883Z" transform="translate(-4478.293 -4327.837)" fill="#fe9752"/>
      <path id="Path_1143" data-name="Path 1143" d="M4491.593,4335.52a2.717,2.717,0,0,1-.794.117,2.031,2.031,0,0,1-2.3-2.176v-1.6h-.9v-1.549h.95v-1.7h1.815v1.7h1.256v1.549h-1.256v1.452a.686.686,0,0,0,.777.756,1.718,1.718,0,0,0,.45-.059Z" transform="translate(-4477.352 -4327.446)" fill="#fe9752"/>
      <path id="Path_1144" data-name="Path 1144" d="M4496.111,4333.531a2.552,2.552,0,0,1-2.523,1.609,2.735,2.735,0,0,1-2.874-2.74,2.811,2.811,0,0,1,2.894-2.735,2.445,2.445,0,0,1,2.473,1.6l-1.609.678a.914.914,0,0,0-.873-.6,1,1,0,0,0-.991,1.042.985.985,0,0,0,1.883.47Z" transform="translate(-4475.788 -4326.917)" fill="#fe9752"/>
      <path id="Path_1145" data-name="Path 1145" d="M4497.6,4329.665a2.754,2.754,0,0,1,2.865,2.7,2.818,2.818,0,0,1-2.9,2.776,2.766,2.766,0,0,1-2.875-2.74A2.823,2.823,0,0,1,4497.6,4329.665Zm-.019,3.8a1.047,1.047,0,0,0,1.009-1.071,1.016,1.016,0,1,0-2.03,0A1.05,1.05,0,0,0,4497.585,4333.462Z" transform="translate(-4473.792 -4326.917)" fill="#fe9752"/>
      <path id="Path_1146" data-name="Path 1146" d="M4499.058,4328.925a1.092,1.092,0,0,1,1.09-1.088,1.084,1.084,0,1,1,0,2.167A1.1,1.1,0,0,1,4499.058,4328.925Zm2.031,7.014H4499.2V4330.7h1.885Z" transform="translate(-4471.598 -4327.837)" fill="#fe9752"/>
      <path id="Path_1147" data-name="Path 1147" d="M4504.563,4332.183a.735.735,0,0,0-.715-.8.727.727,0,0,0-.766.8v2.835h-1.863v-5.238h1.854v.658h.019a1.885,1.885,0,0,1,1.5-.767c1.383,0,1.836,1.157,1.836,2.178v3.168h-1.866Z" transform="translate(-4470.513 -4326.915)" fill="#fe9752"/>
      <path id="Path_1148" data-name="Path 1148" d="M4484.232,4344.027v.96h-.737v-.96a2.9,2.9,0,0,1-2.718-1.755l1.6-.825a1.528,1.528,0,0,0,1.139.9v-1.432c-1.511-.441-2.425-1.11-2.425-2.405a2.5,2.5,0,0,1,2.4-2.373v-.894h.737v.884a2.82,2.82,0,0,1,2.491,1.678l-1.579.861a1.4,1.4,0,0,0-.933-.873v1.442c1.737.53,2.639,1.12,2.639,2.4S4485.959,4343.909,4484.232,4344.027Zm-.716-5.033v-1.187a.628.628,0,0,0-.5.6C4483.017,4338.621,4483.114,4338.808,4483.517,4338.994Zm.7,3.375c.433-.078.687-.3.687-.618,0-.265-.167-.443-.687-.628Z" transform="translate(-4480.778 -4324.115)" fill="#fe9752"/>
      <path id="Path_1149" data-name="Path 1149" d="M4488.494,4343.8a3.051,3.051,0,0,1-2.491-1.108,4.615,4.615,0,0,1-.647-2.747c0-2.247,1.138-4.082,3.6-4.082a3.379,3.379,0,0,1,2.315.845l-.941,1.392a2.207,2.207,0,0,0-1.412-.56,1.67,1.67,0,0,0-1.687,1.846h.009a2.532,2.532,0,0,1,1.9-.794,2.344,2.344,0,0,1,2.362,2.432A2.779,2.779,0,0,1,4488.494,4343.8Zm-.019-1.637a1.017,1.017,0,1,0,0-2.022,1.091,1.091,0,0,0-1.128,1.012A1.058,1.058,0,0,0,4488.475,4342.165Z" transform="translate(-4478.48 -4323.803)" fill="#fe9752"/>
      <path id="Path_1150" data-name="Path 1150" d="M4493.36,4335.866c2.229,0,3.327,1.914,3.327,3.943,0,2.051-1.1,3.983-3.355,3.983s-3.336-1.883-3.336-3.943C4490,4337.828,4491.125,4335.866,4493.36,4335.866Zm-.019,6.141c1.079,0,1.392-1.315,1.392-2.167s-.284-2.187-1.392-2.187-1.384,1.325-1.384,2.188S4492.263,4342.007,4493.342,4342.007Z" transform="translate(-4476.148 -4323.803)" fill="#fe9752"/>
      <path id="Path_1151" data-name="Path 1151" d="M4500.159,4343.632h-3.374v-7.68h3.326a2.742,2.742,0,0,1,1.942.716,1.892,1.892,0,0,1,.511,1.314,1.781,1.781,0,0,1-1.227,1.648v.03a1.759,1.759,0,0,1,1.561,1.8C4502.9,4342.976,4501.583,4343.632,4500.159,4343.632Zm-.4-6.022h-1.1v1.384h1.117c.56,0,.866-.267.866-.7C4500.642,4337.825,4500.3,4337.61,4499.759,4337.61Zm.322,2.913h-1.422v1.442h1.431c.493,0,.874-.234.874-.725S4500.553,4340.522,4500.081,4340.522Z" transform="translate(-4472.739 -4323.761)" fill="#fe9752"/>
      <path id="Path_1152" data-name="Path 1152" d="M4501.395,4336.76a1.093,1.093,0,0,1,1.089-1.089,1.084,1.084,0,1,1,0,2.167A1.1,1.1,0,0,1,4501.395,4336.76Zm2.031,7.014h-1.884v-5.238h1.884Z" transform="translate(-4470.424 -4323.902)" fill="#fe9752"/>
      <path id="Path_1153" data-name="Path 1153" d="M4503.556,4343.737v-8h1.883v8Z" transform="translate(-4469.339 -4323.865)" fill="#fe9752"/>
      <path id="Path_1154" data-name="Path 1154" d="M4505.624,4343.737v-8h1.883v8Z" transform="translate(-4468.3 -4323.865)" fill="#fe9752"/>
      <path id="Path_1155" data-name="Path 1155" d="M4507.6,4336.76a1.092,1.092,0,0,1,1.089-1.089,1.084,1.084,0,1,1,0,2.167A1.1,1.1,0,0,1,4507.6,4336.76Zm2.03,7.014h-1.883v-5.238h1.883Z" transform="translate(-4467.31 -4323.902)" fill="#fe9752"/>
      <path id="Path_1156" data-name="Path 1156" d="M4512.482,4337.5a2.753,2.753,0,0,1,2.865,2.7,2.817,2.817,0,0,1-2.905,2.776,2.765,2.765,0,0,1-2.874-2.739A2.822,2.822,0,0,1,4512.482,4337.5Zm-.021,3.8a1.047,1.047,0,0,0,1.011-1.07,1.017,1.017,0,1,0-2.031,0A1.049,1.049,0,0,0,4512.461,4341.3Z" transform="translate(-4466.32 -4322.983)" fill="#fe9752"/>
      <path id="Path_1157" data-name="Path 1157" d="M4517.377,4340.017a.736.736,0,0,0-.716-.8.727.727,0,0,0-.767.8v2.835h-1.863v-5.237h1.855v.657h.018a1.889,1.889,0,0,1,1.5-.766c1.384,0,1.836,1.157,1.836,2.178v3.168h-1.865Z" transform="translate(-4464.077 -4322.98)" fill="#fe9752"/>
    </g>
    <circle id="Ellipse_67" data-name="Ellipse 67" cx="9.026" cy="9.026" r="9.026" transform="translate(1077.333 2837.614)" fill="#fe9752"/>
    <text id="Source:_Bank_of_International_Settlements._" data-name="Source: Bank of International Settlements.
" transform="translate(1157 2876)" fill="#fff" font-size="12" font-family="Gordita-Regular, Gordita" opacity="0.49"><tspan x="46.332" y="13">Source: Bank of International Settlements.</tspan></text>
  </g>
</svg>
