<svg xmlns="http://www.w3.org/2000/svg" xmlns:xlink="http://www.w3.org/1999/xlink" viewBox="0 0 1093.45 1360.3"><defs><linearGradient id="a" x1="-334.55" y1="618.63" x2="1285.05" y2="1369.75" gradientUnits="userSpaceOnUse"><stop offset="0" stop-color="#feb454"/><stop offset="0.53" stop-color="#ff364a"/><stop offset="1" stop-color="#0065f3"/></linearGradient><linearGradient id="b" x1="-257.13" y1="528.91" x2="1315.29" y2="1258.14" xlink:href="#a"/><linearGradient id="c" x1="-293" y1="608.85" x2="1264.84" y2="1331.32" xlink:href="#a"/><linearGradient id="d" x1="-357.29" y1="704.41" x2="1253.08" y2="1451.25" xlink:href="#a"/><linearGradient id="e" x1="-360.12" y1="747.53" x2="1197.71" y2="1470" xlink:href="#a"/><linearGradient id="f" x1="-331.67" y1="635.33" x2="1278.7" y2="1382.18" xlink:href="#a"/><linearGradient id="g" x1="-172.6" y1="346.66" x2="1446.99" y2="1097.78" xlink:href="#a"/><linearGradient id="h" x1="-78.09" y1="264.86" x2="1494.33" y2="994.1" xlink:href="#a"/><linearGradient id="i" x1="-108.68" y1="347.25" x2="1449.15" y2="1069.73" xlink:href="#a"/><linearGradient id="j" x1="-192" y1="434" x2="1418.37" y2="1180.84" xlink:href="#a"/><linearGradient id="k" x1="-175.8" y1="485.93" x2="1382.03" y2="1208.41" xlink:href="#a"/><linearGradient id="l" x1="-166.38" y1="364.92" x2="1443.99" y2="1111.76" xlink:href="#a"/><linearGradient id="m" x1="-198.66" y1="307.72" x2="1420.94" y2="1058.84" xlink:href="#a"/><linearGradient id="n" x1="-125.2" y1="216.16" x2="1447.22" y2="945.4" xlink:href="#a"/><linearGradient id="o" x1="-274.01" y1="510.11" x2="1298.41" y2="1239.35" xlink:href="#a"/><linearGradient id="p" x1="-224.82" y1="407.29" x2="1394.78" y2="1158.41" xlink:href="#a"/><linearGradient id="q" x1="-162.29" y1="295.53" x2="1395.54" y2="1018.01" xlink:href="#a"/><linearGradient id="r" x1="-222.18" y1="393.15" x2="1388.2" y2="1139.99" xlink:href="#a"/><linearGradient id="s" x1="-229.41" y1="434.22" x2="1328.42" y2="1156.69" xlink:href="#a"/><linearGradient id="t" x1="-196.56" y1="324.07" x2="1413.82" y2="1070.91" xlink:href="#a"/><linearGradient id="u" x1="-117.69" y1="171.73" x2="1501.91" y2="922.86" xlink:href="#a"/><linearGradient id="v" x1="-35.68" y1="84.14" x2="1536.74" y2="813.38" xlink:href="#a"/><linearGradient id="w" x1="-70.14" y1="164.73" x2="1487.7" y2="887.21" xlink:href="#a"/><linearGradient id="x" x1="-139.53" y1="257.94" x2="1470.84" y2="1004.78" xlink:href="#a"/><linearGradient id="y" x1="-137.25" y1="303.42" x2="1420.58" y2="1025.89" xlink:href="#a"/><linearGradient id="z" x1="-113.91" y1="188.86" x2="1496.47" y2="935.7" xlink:href="#a"/><linearGradient id="aa" x1="-36.71" y1="35.75" x2="1582.88" y2="786.87" xlink:href="#a"/><linearGradient id="ab" x1="53.84" y1="-47.88" x2="1626.25" y2="681.36" xlink:href="#a"/><linearGradient id="ac" x1="-94.98" y1="246.07" x2="1477.44" y2="975.3" xlink:href="#a"/><linearGradient id="ad" x1="-62.87" y1="135.33" x2="1556.73" y2="886.45" xlink:href="#a"/><linearGradient id="ae" x1="22.03" y1="33.94" x2="1579.86" y2="756.41" xlink:href="#a"/><linearGradient id="af" x1="-56.88" y1="122.73" x2="1553.48" y2="869.57" xlink:href="#a"/><linearGradient id="ag" x1="-45.1" y1="172.62" x2="1512.74" y2="895.1" xlink:href="#a"/><linearGradient id="ah" x1="-31.26" y1="53.65" x2="1579.11" y2="800.49" xlink:href="#a"/><linearGradient id="ai" x1="-142.07" y1="197.34" x2="1430.35" y2="926.58" xlink:href="#a"/><linearGradient id="aj" x1="-88.92" y1="96.36" x2="1530.68" y2="847.48" xlink:href="#a"/><linearGradient id="ak" x1="-31.58" y1="-17.8" x2="1526.26" y2="704.67" xlink:href="#a"/><linearGradient id="al" x1="-87.05" y1="81.86" x2="1523.32" y2="828.7" xlink:href="#a"/><linearGradient id="am" x1="-98.7" y1="120.88" x2="1459.13" y2="843.36" xlink:href="#a"/><linearGradient id="an" x1="-61.43" y1="12.78" x2="1548.94" y2="759.62" xlink:href="#a"/><linearGradient id="ao" x1="-52.55" y1="65.32" x2="1519.86" y2="794.56" xlink:href="#a"/><linearGradient id="ap" x1="-7.95" y1="-39.62" x2="1611.65" y2="711.5" xlink:href="#a"/><linearGradient id="aq" x1="36.96" y1="-66.7" x2="1609.38" y2="662.54" xlink:href="#a"/><linearGradient id="ar" x1="73.03" y1="-175.6" x2="1692.63" y2="575.52" xlink:href="#a"/><linearGradient id="as" x1="152.74" y1="-279.39" x2="1710.57" y2="443.08" xlink:href="#a"/><linearGradient id="at" x1="78.24" y1="-188.56" x2="1688.61" y2="558.28" xlink:href="#a"/><linearGradient id="au" x1="85.62" y1="-140.71" x2="1643.45" y2="581.76" xlink:href="#a"/><linearGradient id="av" x1="103.86" y1="-257.64" x2="1714.23" y2="489.2" xlink:href="#a"/></defs><title>merj-header-logo</title><polygon points="253.85 1355.39 253.85 1240.76 181.14 1329.57 108.44 1240.76 108.44 1355.39 80.54 1355.39 80.54 1205.95 114.41 1205.95 182.03 1290.47 249.66 1205.95 282.86 1205.95 282.86 1355.39 253.85 1355.39" style="fill:#fff"/><polygon points="388.5 1355.39 388.5 1205.95 540.41 1205.95 540.41 1229.15 417.29 1229.15 417.29 1267.95 520.11 1267.95 520.11 1291.16 417.29 1291.16 417.29 1332.18 542.64 1332.18 542.64 1355.39 388.5 1355.39" style="fill:#fff"/><path d="M804.41,1395.62l-44.83-53.09H698.25v53.09H669.47V1246.17H773.86c30.73,0,63.57,12.66,63.57,48.19,0,23.4-14.53,39.67-40.91,45.81l-5.4,1.26,47,54.19H804.41ZM698,1319.77h73.82c15.41,0,35.91-2.61,35.91-25.2s-20.49-25.2-35.91-25.2H698v50.4Z" transform="translate(-32.33 -40.22)" style="fill:#fff"/><path d="M971,1400.52c-26.59,0-46.33-7.89-60.23-24.1l20.07-16.87c9.83,11.48,22,16.43,40.16,16.43,30,0,45.27-15.76,45.27-46.83v-83h29v85.65C1045.24,1374.84,1017.48,1400.52,971,1400.52Z" transform="translate(-32.33 -40.22)" style="fill:#fff"/><path d="M38.08,752.11H163.39a5.75,5.75,0,0,1,4.06,9.82L42.15,887.23a5.75,5.75,0,0,1-9.82-4.07V757.86A5.75,5.75,0,0,1,38.08,752.11Z" transform="translate(-32.33 -40.22)" style="fill:url(#a)"/><path d="M246.36,752.11h125.3a5.75,5.75,0,0,1,5.75,5.75v125.3a5.75,5.75,0,0,1-9.82,4.07l-125.3-125.3A5.75,5.75,0,0,1,246.36,752.11Z" transform="translate(-32.33 -40.22)" style="fill:url(#b)"/><path d="M219.36,904.41V793.87a5.75,5.75,0,0,1,9.81-4.07L339.72,900.34a5.75,5.75,0,0,1-4.06,9.82H225.11A5.75,5.75,0,0,1,219.36,904.41Z" transform="translate(-32.33 -40.22)" style="fill:url(#c)"/><path d="M225.11,939.14H335.65a5.75,5.75,0,0,1,4.07,9.82L229.18,1059.49a5.75,5.75,0,0,1-9.81-4.07V944.89A5.75,5.75,0,0,1,225.11,939.14Z" transform="translate(-32.33 -40.22)" style="fill:url(#d)"/><path d="M74.09,939.14H184.63a5.75,5.75,0,0,1,5.75,5.75v110.54a5.75,5.75,0,0,1-9.82,4.07L70,949A5.75,5.75,0,0,1,74.09,939.14Z" transform="translate(-32.33 -40.22)" style="fill:url(#e)"/><path d="M70,900.34L180.56,789.8a5.75,5.75,0,0,1,9.82,4.07V904.41a5.75,5.75,0,0,1-5.75,5.75H74.09A5.75,5.75,0,0,1,70,900.34Z" transform="translate(-32.33 -40.22)" style="fill:url(#f)"/><path d="M786.46,752.11h125.3a5.75,5.75,0,0,1,4.06,9.82l-125.3,125.3a5.75,5.75,0,0,1-9.81-4.07V757.86A5.75,5.75,0,0,1,786.46,752.11Z" transform="translate(-32.33 -40.22)" style="fill:url(#g)"/><path d="M994.73,752.11H1120a5.75,5.75,0,0,1,5.75,5.75v125.3a5.75,5.75,0,0,1-9.81,4.07l-125.3-125.3A5.75,5.75,0,0,1,994.73,752.11Z" transform="translate(-32.33 -40.22)" style="fill:url(#h)"/><path d="M967.74,904.41V793.87a5.75,5.75,0,0,1,9.81-4.07l110.54,110.54a5.75,5.75,0,0,1-4.06,9.82H973.49A5.75,5.75,0,0,1,967.74,904.41Z" transform="translate(-32.33 -40.22)" style="fill:url(#i)"/><path d="M973.49,939.14H1084a5.75,5.75,0,0,1,4.06,9.82L977.55,1059.49a5.75,5.75,0,0,1-9.81-4.06V944.89A5.75,5.75,0,0,1,973.49,939.14Z" transform="translate(-32.33 -40.22)" style="fill:url(#j)"/><path d="M822.47,939.14H933a5.75,5.75,0,0,1,5.75,5.75v110.54a5.75,5.75,0,0,1-9.81,4.07L818.4,949A5.75,5.75,0,0,1,822.47,939.14Z" transform="translate(-32.33 -40.22)" style="fill:url(#k)"/><path d="M818.4,900.34L928.94,789.8a5.75,5.75,0,0,1,9.81,4.06V904.41a5.75,5.75,0,0,1-5.75,5.75H822.47A5.75,5.75,0,0,1,818.4,900.34Z" transform="translate(-32.33 -40.22)" style="fill:url(#l)"/><path d="M38.08,378.18H163.39a5.75,5.75,0,0,1,4.06,9.82L42.15,513.3a5.75,5.75,0,0,1-9.82-4.06V383.93A5.75,5.75,0,0,1,38.08,378.18Z" transform="translate(-32.33 -40.22)" style="fill:url(#m)"/><path d="M246.36,378.18h125.3a5.75,5.75,0,0,1,5.75,5.75v125.3a5.75,5.75,0,0,1-9.82,4.07L242.29,388A5.75,5.75,0,0,1,246.36,378.18Z" transform="translate(-32.33 -40.22)" style="fill:url(#n)"/><path d="M32.33,717.51V592.2a5.75,5.75,0,0,1,9.82-4.06l125.3,125.3a5.75,5.75,0,0,1-4.07,9.81H38.08A5.75,5.75,0,0,1,32.33,717.51Z" transform="translate(-32.33 -40.22)" style="fill:url(#o)"/><path d="M242.29,713.44l125.3-125.3a5.75,5.75,0,0,1,9.82,4.07v125.3a5.75,5.75,0,0,1-5.75,5.75H246.35A5.75,5.75,0,0,1,242.29,713.44Z" transform="translate(-32.33 -40.22)" style="fill:url(#p)"/><path d="M219.36,530.48V419.94a5.75,5.75,0,0,1,9.81-4.07L339.72,526.41a5.75,5.75,0,0,1-4.06,9.82H225.11A5.75,5.75,0,0,1,219.36,530.48Z" transform="translate(-32.33 -40.22)" style="fill:url(#q)"/><path d="M225.11,565.21H335.65a5.75,5.75,0,0,1,4.07,9.82L229.18,685.56a5.75,5.75,0,0,1-9.81-4.07V571A5.75,5.75,0,0,1,225.11,565.21Z" transform="translate(-32.33 -40.22)" style="fill:url(#r)"/><path d="M74.09,565.21H184.63a5.75,5.75,0,0,1,5.75,5.75V681.5a5.75,5.75,0,0,1-9.82,4.07L70,575A5.75,5.75,0,0,1,74.09,565.21Z" transform="translate(-32.33 -40.22)" style="fill:url(#s)"/><path d="M70,526.41L180.56,415.87a5.75,5.75,0,0,1,9.82,4.07V530.48a5.75,5.75,0,0,1-5.75,5.75H74.09A5.75,5.75,0,0,1,70,526.41Z" transform="translate(-32.33 -40.22)" style="fill:url(#t)"/><path d="M412.27,378.18h125.3a5.75,5.75,0,0,1,4.07,9.82L416.34,513.3a5.75,5.75,0,0,1-9.82-4.06V383.93A5.75,5.75,0,0,1,412.27,378.18Z" transform="translate(-32.33 -40.22)" style="fill:url(#u)"/><path d="M620.55,378.18h125.3a5.75,5.75,0,0,1,5.75,5.75v125.3a5.75,5.75,0,0,1-9.81,4.07L616.48,388A5.75,5.75,0,0,1,620.55,378.18Z" transform="translate(-32.33 -40.22)" style="fill:url(#v)"/><path d="M593.56,530.48V419.94a5.75,5.75,0,0,1,9.82-4.07L713.91,526.41a5.75,5.75,0,0,1-4.07,9.82H599.31A5.75,5.75,0,0,1,593.56,530.48Z" transform="translate(-32.33 -40.22)" style="fill:url(#w)"/><path d="M599.31,565.21H709.84a5.75,5.75,0,0,1,4.06,9.82L603.37,685.56a5.75,5.75,0,0,1-9.82-4.07V571A5.75,5.75,0,0,1,599.31,565.21Z" transform="translate(-32.33 -40.22)" style="fill:url(#x)"/><path d="M448.28,565.21H558.82a5.75,5.75,0,0,1,5.75,5.75V681.5a5.75,5.75,0,0,1-9.81,4.07L444.22,575A5.75,5.75,0,0,1,448.28,565.21Z" transform="translate(-32.33 -40.22)" style="fill:url(#y)"/><path d="M444.22,526.41L554.76,415.87a5.75,5.75,0,0,1,9.81,4.07V530.48a5.75,5.75,0,0,1-5.75,5.75H448.28A5.75,5.75,0,0,1,444.22,526.41Z" transform="translate(-32.33 -40.22)" style="fill:url(#z)"/><path d="M786.46,378.18h125.3a5.75,5.75,0,0,1,4.06,9.82L790.52,513.3a5.75,5.75,0,0,1-9.81-4.06V383.93A5.75,5.75,0,0,1,786.46,378.18Z" transform="translate(-32.33 -40.22)" style="fill:url(#aa)"/><path d="M994.73,378.18H1120a5.75,5.75,0,0,1,5.75,5.75v125.3a5.75,5.75,0,0,1-9.81,4.07L990.67,388A5.75,5.75,0,0,1,994.73,378.18Z" transform="translate(-32.33 -40.22)" style="fill:url(#ab)"/><path d="M780.71,717.51V592.2a5.75,5.75,0,0,1,9.81-4.06l125.3,125.3a5.75,5.75,0,0,1-4.07,9.81H786.46A5.75,5.75,0,0,1,780.71,717.51Z" transform="translate(-32.33 -40.22)" style="fill:url(#ac)"/><path d="M990.67,713.44L1116,588.14a5.75,5.75,0,0,1,9.81,4.07v125.3a5.75,5.75,0,0,1-5.75,5.75H994.73A5.75,5.75,0,0,1,990.67,713.44Z" transform="translate(-32.33 -40.22)" style="fill:url(#ad)"/><path d="M967.74,530.48V419.94a5.75,5.75,0,0,1,9.81-4.07l110.54,110.54a5.75,5.75,0,0,1-4.06,9.82H973.49A5.75,5.75,0,0,1,967.74,530.48Z" transform="translate(-32.33 -40.22)" style="fill:url(#ae)"/><path d="M973.49,565.21H1084a5.75,5.75,0,0,1,4.06,9.82L977.55,685.56a5.75,5.75,0,0,1-9.81-4.07V571A5.75,5.75,0,0,1,973.49,565.21Z" transform="translate(-32.33 -40.22)" style="fill:url(#af)"/><path d="M822.47,565.21H933a5.75,5.75,0,0,1,5.75,5.75V681.5a5.75,5.75,0,0,1-9.81,4.07L818.4,575A5.75,5.75,0,0,1,822.47,565.21Z" transform="translate(-32.33 -40.22)" style="fill:url(#ag)"/><path d="M818.4,526.41L928.94,415.87a5.75,5.75,0,0,1,9.81,4.06V530.48a5.75,5.75,0,0,1-5.75,5.75H822.47A5.75,5.75,0,0,1,818.4,526.41Z" transform="translate(-32.33 -40.22)" style="fill:url(#ah)"/><path d="M32.33,343.55V218.25a5.75,5.75,0,0,1,9.82-4.06l125.3,125.3a5.75,5.75,0,0,1-4.07,9.82H38.08A5.75,5.75,0,0,1,32.33,343.55Z" transform="translate(-32.33 -40.22)" style="fill:url(#ai)"/><path d="M242.29,339.49l125.3-125.3a5.75,5.75,0,0,1,9.82,4.06v125.3a5.75,5.75,0,0,1-5.75,5.75H246.35A5.75,5.75,0,0,1,242.29,339.49Z" transform="translate(-32.33 -40.22)" style="fill:url(#aj)"/><path d="M219.36,156.52V46a5.75,5.75,0,0,1,9.81-4.07L339.72,152.46a5.75,5.75,0,0,1-4.06,9.82H225.11A5.75,5.75,0,0,1,219.36,156.52Z" transform="translate(-32.33 -40.22)" style="fill:url(#ak)"/><path d="M225.11,191.25H335.65a5.75,5.75,0,0,1,4.07,9.82L229.18,311.61a5.75,5.75,0,0,1-9.81-4.07V197A5.75,5.75,0,0,1,225.11,191.25Z" transform="translate(-32.33 -40.22)" style="fill:url(#al)"/><path d="M74.09,191.25H184.63a5.75,5.75,0,0,1,5.75,5.75V307.54a5.75,5.75,0,0,1-9.82,4.06L70,201.07A5.75,5.75,0,0,1,74.09,191.25Z" transform="translate(-32.33 -40.22)" style="fill:url(#am)"/><path d="M70,152.46L180.56,41.92A5.75,5.75,0,0,1,190.38,46V156.52a5.75,5.75,0,0,1-5.75,5.75H74.09A5.75,5.75,0,0,1,70,152.46Z" transform="translate(-32.33 -40.22)" style="fill:url(#an)"/><path d="M406.52,343.55V218.25a5.75,5.75,0,0,1,9.82-4.07l125.3,125.3a5.75,5.75,0,0,1-4.06,9.82H412.27A5.75,5.75,0,0,1,406.52,343.55Z" transform="translate(-32.33 -40.22)" style="fill:url(#ao)"/><path d="M616.48,339.49l125.31-125.3a5.75,5.75,0,0,1,9.81,4.06v125.3a5.75,5.75,0,0,1-5.75,5.75H620.55A5.75,5.75,0,0,1,616.48,339.49Z" transform="translate(-32.33 -40.22)" style="fill:url(#ap)"/><path d="M780.71,343.55V218.25a5.75,5.75,0,0,1,9.81-4.07l125.3,125.3a5.75,5.75,0,0,1-4.07,9.82H786.46A5.75,5.75,0,0,1,780.71,343.55Z" transform="translate(-32.33 -40.22)" style="fill:url(#aq)"/><path d="M990.67,339.49L1116,214.18a5.75,5.75,0,0,1,9.81,4.06v125.3a5.75,5.75,0,0,1-5.75,5.75H994.73A5.75,5.75,0,0,1,990.67,339.49Z" transform="translate(-32.33 -40.22)" style="fill:url(#ar)"/><path d="M967.74,156.52V46a5.75,5.75,0,0,1,9.81-4.07l110.54,110.54a5.75,5.75,0,0,1-4.06,9.82H973.49A5.75,5.75,0,0,1,967.74,156.52Z" transform="translate(-32.33 -40.22)" style="fill:url(#as)"/><path d="M973.49,191.25H1084a5.75,5.75,0,0,1,4.06,9.82L977.55,311.61a5.75,5.75,0,0,1-9.81-4.07V197A5.75,5.75,0,0,1,973.49,191.25Z" transform="translate(-32.33 -40.22)" style="fill:url(#at)"/><path d="M822.47,191.25H933a5.75,5.75,0,0,1,5.75,5.75V307.54a5.75,5.75,0,0,1-9.81,4.07L818.4,201.07A5.75,5.75,0,0,1,822.47,191.25Z" transform="translate(-32.33 -40.22)" style="fill:url(#au)"/><path d="M818.4,152.46L928.94,41.92A5.75,5.75,0,0,1,938.76,46V156.52a5.75,5.75,0,0,1-5.75,5.75H822.47A5.75,5.75,0,0,1,818.4,152.46Z" transform="translate(-32.33 -40.22)" style="fill:url(#av)"/></svg>