<?xml version="1.0" encoding="UTF-8"?>
<svg width="346px" height="205px" viewBox="0 0 346 205" version="1.1" xmlns="http://www.w3.org/2000/svg" xmlns:xlink="http://www.w3.org/1999/xlink">
    <!-- Generator: Sketch 51.3 (57544) - http://www.bohemiancoding.com/sketch -->
    <title>Artboard</title>
    <desc>Created with Sketch.</desc>
    <defs>
        <linearGradient x1="-268.771073%" y1="-97.8690545%" x2="917.785676%" y2="452.388137%" id="linearGradient-1">
            <stop stop-color="#FEB454" offset="0%"></stop>
            <stop stop-color="#FF364A" offset="53%"></stop>
            <stop stop-color="#0065F3" offset="100%"></stop>
        </linearGradient>
        <linearGradient x1="-364.510944%" y1="-163.8053%" x2="787.451451%" y2="370.485266%" id="linearGradient-2">
            <stop stop-color="#FEB454" offset="0%"></stop>
            <stop stop-color="#FF364A" offset="53%"></stop>
            <stop stop-color="#0065F3" offset="100%"></stop>
        </linearGradient>
        <linearGradient x1="-420.243369%" y1="-146.8524%" x2="857.033252%" y2="445.459816%" id="linearGradient-3">
            <stop stop-color="#FEB454" offset="0%"></stop>
            <stop stop-color="#FF364A" offset="53%"></stop>
            <stop stop-color="#0065F3" offset="100%"></stop>
        </linearGradient>
        <linearGradient x1="-472.194776%" y1="-192.445992%" x2="848.098933%" y2="419.762881%" id="linearGradient-4">
            <stop stop-color="#FEB454" offset="0%"></stop>
            <stop stop-color="#FF364A" offset="53%"></stop>
            <stop stop-color="#0065F3" offset="100%"></stop>
        </linearGradient>
        <linearGradient x1="-351.349019%" y1="-157.177329%" x2="925.927602%" y2="435.134886%" id="linearGradient-5">
            <stop stop-color="#FEB454" offset="0%"></stop>
            <stop stop-color="#FF364A" offset="53%"></stop>
            <stop stop-color="#0065F3" offset="100%"></stop>
        </linearGradient>
        <linearGradient x1="-328.185972%" y1="-125.343855%" x2="992.107737%" y2="487.153301%" id="linearGradient-6">
            <stop stop-color="#FEB454" offset="0%"></stop>
            <stop stop-color="#FF364A" offset="53%"></stop>
            <stop stop-color="#0065F3" offset="100%"></stop>
        </linearGradient>
        <linearGradient x1="-698.687224%" y1="-297.156183%" x2="487.869525%" y2="253.101008%" id="linearGradient-7">
            <stop stop-color="#FEB454" offset="0%"></stop>
            <stop stop-color="#FF364A" offset="53%"></stop>
            <stop stop-color="#0065F3" offset="100%"></stop>
        </linearGradient>
        <linearGradient x1="-781.712931%" y1="-357.178865%" x2="370.249464%" y2="177.111702%" id="linearGradient-8">
            <stop stop-color="#FEB454" offset="0%"></stop>
            <stop stop-color="#FF364A" offset="53%"></stop>
            <stop stop-color="#0065F3" offset="100%"></stop>
        </linearGradient>
        <linearGradient x1="-882.511618%" y1="-361.60694%" x2="394.765003%" y2="231.036176%" id="linearGradient-9">
            <stop stop-color="#FEB454" offset="0%"></stop>
            <stop stop-color="#FF364A" offset="53%"></stop>
            <stop stop-color="#0065F3" offset="100%"></stop>
        </linearGradient>
        <linearGradient x1="-951.008058%" y1="-414.287157%" x2="369.285651%" y2="198.21%" id="linearGradient-10">
            <stop stop-color="#FEB454" offset="0%"></stop>
            <stop stop-color="#FF364A" offset="53%"></stop>
            <stop stop-color="#0065F3" offset="100%"></stop>
        </linearGradient>
        <linearGradient x1="-819.717318%" y1="-371.603295%" x2="465.621904%" y2="220.711841%" id="linearGradient-11">
            <stop stop-color="#FEB454" offset="0%"></stop>
            <stop stop-color="#FF364A" offset="53%"></stop>
            <stop stop-color="#0065F3" offset="100%"></stop>
        </linearGradient>
        <linearGradient x1="-806.668354%" y1="-347.04731%" x2="513.625356%" y2="265.449846%" id="linearGradient-12">
            <stop stop-color="#FEB454" offset="0%"></stop>
            <stop stop-color="#FF364A" offset="53%"></stop>
            <stop stop-color="#0065F3" offset="100%"></stop>
        </linearGradient>
        <linearGradient x1="-169.127509%" y1="-51.7432502%" x2="1017.42924%" y2="498.809619%" id="linearGradient-13">
            <stop stop-color="#FEB454" offset="0%"></stop>
            <stop stop-color="#FF364A" offset="53%"></stop>
            <stop stop-color="#0065F3" offset="100%"></stop>
        </linearGradient>
        <linearGradient x1="-267.824162%" y1="-118.566531%" x2="884.138233%" y2="415.428358%" id="linearGradient-14">
            <stop stop-color="#FEB454" offset="0%"></stop>
            <stop stop-color="#FF364A" offset="53%"></stop>
            <stop stop-color="#0065F3" offset="100%"></stop>
        </linearGradient>
        <linearGradient x1="-224.419338%" y1="-56.1185476%" x2="927.543057%" y2="478.172019%" id="linearGradient-15">
            <stop stop-color="#FEB454" offset="0%"></stop>
            <stop stop-color="#FF364A" offset="53%"></stop>
            <stop stop-color="#0065F3" offset="100%"></stop>
        </linearGradient>
        <linearGradient x1="-340.856686%" y1="-131.516497%" x2="845.700063%" y2="418.740694%" id="linearGradient-16">
            <stop stop-color="#FEB454" offset="0%"></stop>
            <stop stop-color="#FF364A" offset="53%"></stop>
            <stop stop-color="#0065F3" offset="100%"></stop>
        </linearGradient>
        <linearGradient x1="-313.031549%" y1="-97.2172978%" x2="964.245072%" y2="495.094918%" id="linearGradient-17">
            <stop stop-color="#FEB454" offset="0%"></stop>
            <stop stop-color="#FF364A" offset="53%"></stop>
            <stop stop-color="#0065F3" offset="100%"></stop>
        </linearGradient>
        <linearGradient x1="-364.529469%" y1="-139.707708%" x2="964.263394%" y2="468.762584%" id="linearGradient-18">
            <stop stop-color="#FEB454" offset="0%"></stop>
            <stop stop-color="#FF364A" offset="53%"></stop>
            <stop stop-color="#0065F3" offset="100%"></stop>
        </linearGradient>
        <linearGradient x1="-244.137199%" y1="-106.880426%" x2="1033.13942%" y2="485.431789%" id="linearGradient-19">
            <stop stop-color="#FEB454" offset="0%"></stop>
            <stop stop-color="#FF364A" offset="53%"></stop>
            <stop stop-color="#0065F3" offset="100%"></stop>
        </linearGradient>
        <linearGradient x1="-217.334244%" y1="-73.7233495%" x2="1102.95946%" y2="538.442907%" id="linearGradient-20">
            <stop stop-color="#FEB454" offset="0%"></stop>
            <stop stop-color="#FF364A" offset="53%"></stop>
            <stop stop-color="#0065F3" offset="100%"></stop>
        </linearGradient>
        <linearGradient x1="-383.789906%" y1="-151.281084%" x2="802.766843%" y2="399.040229%" id="linearGradient-21">
            <stop stop-color="#FEB454" offset="0%"></stop>
            <stop stop-color="#FF364A" offset="53%"></stop>
            <stop stop-color="#0065F3" offset="100%"></stop>
        </linearGradient>
        <linearGradient x1="-476.572995%" y1="-215.548991%" x2="675.389401%" y2="318.741576%" id="linearGradient-22">
            <stop stop-color="#FEB454" offset="0%"></stop>
            <stop stop-color="#FF364A" offset="53%"></stop>
            <stop stop-color="#0065F3" offset="100%"></stop>
        </linearGradient>
        <linearGradient x1="-544.331124%" y1="-204.429118%" x2="732.945497%" y2="387.883098%" id="linearGradient-23">
            <stop stop-color="#FEB454" offset="0%"></stop>
            <stop stop-color="#FF364A" offset="53%"></stop>
            <stop stop-color="#0065F3" offset="100%"></stop>
        </linearGradient>
        <linearGradient x1="-600.915986%" y1="-249.83064%" x2="719.087047%" y2="358.639652%" id="linearGradient-24">
            <stop stop-color="#FEB454" offset="0%"></stop>
            <stop stop-color="#FF364A" offset="53%"></stop>
            <stop stop-color="#0065F3" offset="100%"></stop>
        </linearGradient>
        <linearGradient x1="-475.436774%" y1="-214.092246%" x2="801.839847%" y2="378.219969%" id="linearGradient-25">
            <stop stop-color="#FEB454" offset="0%"></stop>
            <stop stop-color="#FF364A" offset="53%"></stop>
            <stop stop-color="#0065F3" offset="100%"></stop>
        </linearGradient>
        <linearGradient x1="-456.244534%" y1="-184.575077%" x2="864.049175%" y2="427.591179%" id="linearGradient-26">
            <stop stop-color="#FEB454" offset="0%"></stop>
            <stop stop-color="#FF364A" offset="53%"></stop>
            <stop stop-color="#0065F3" offset="100%"></stop>
        </linearGradient>
        <linearGradient x1="-599.043659%" y1="-250.734701%" x2="587.513089%" y2="299.522491%" id="linearGradient-27">
            <stop stop-color="#FEB454" offset="0%"></stop>
            <stop stop-color="#FF364A" offset="53%"></stop>
            <stop stop-color="#0065F3" offset="100%"></stop>
        </linearGradient>
        <linearGradient x1="-685.321827%" y1="-312.235773%" x2="466.936246%" y2="222.054794%" id="linearGradient-28">
            <stop stop-color="#FEB454" offset="0%"></stop>
            <stop stop-color="#FF364A" offset="53%"></stop>
            <stop stop-color="#0065F3" offset="100%"></stop>
        </linearGradient>
        <linearGradient x1="-640.142934%" y1="-249.492112%" x2="511.819462%" y2="284.798455%" id="linearGradient-29">
            <stop stop-color="#FEB454" offset="0%"></stop>
            <stop stop-color="#FF364A" offset="53%"></stop>
            <stop stop-color="#0065F3" offset="100%"></stop>
        </linearGradient>
        <linearGradient x1="-770.772836%" y1="-330.803626%" x2="415.783912%" y2="219.453565%" id="linearGradient-30">
            <stop stop-color="#FEB454" offset="0%"></stop>
            <stop stop-color="#FF364A" offset="53%"></stop>
            <stop stop-color="#0065F3" offset="100%"></stop>
        </linearGradient>
        <linearGradient x1="-775.299798%" y1="-311.640938%" x2="501.976823%" y2="280.671278%" id="linearGradient-31">
            <stop stop-color="#FEB454" offset="0%"></stop>
            <stop stop-color="#FF364A" offset="53%"></stop>
            <stop stop-color="#0065F3" offset="100%"></stop>
        </linearGradient>
        <linearGradient x1="-839.713829%" y1="-359.953573%" x2="479.95846%" y2="248.516719%" id="linearGradient-32">
            <stop stop-color="#FEB454" offset="0%"></stop>
            <stop stop-color="#FF364A" offset="53%"></stop>
            <stop stop-color="#0065F3" offset="100%"></stop>
        </linearGradient>
        <linearGradient x1="-705.064831%" y1="-321.271508%" x2="569.565336%" y2="270.994934%" id="linearGradient-33">
            <stop stop-color="#FEB454" offset="0%"></stop>
            <stop stop-color="#FF364A" offset="53%"></stop>
            <stop stop-color="#0065F3" offset="100%"></stop>
        </linearGradient>
        <linearGradient x1="-695.816626%" y1="-295.426804%" x2="624.477083%" y2="316.739452%" id="linearGradient-34">
            <stop stop-color="#FEB454" offset="0%"></stop>
            <stop stop-color="#FF364A" offset="53%"></stop>
            <stop stop-color="#0065F3" offset="100%"></stop>
        </linearGradient>
        <linearGradient x1="-127.732556%" y1="-11.1754562%" x2="1024.22984%" y2="523.115111%" id="linearGradient-35">
            <stop stop-color="#FEB454" offset="0%"></stop>
            <stop stop-color="#FF364A" offset="53%"></stop>
            <stop stop-color="#0065F3" offset="100%"></stop>
        </linearGradient>
        <linearGradient x1="-241.213121%" y1="-85.0950144%" x2="945.343627%" y2="465.162177%" id="linearGradient-36">
            <stop stop-color="#FEB454" offset="0%"></stop>
            <stop stop-color="#FF364A" offset="53%"></stop>
            <stop stop-color="#0065F3" offset="100%"></stop>
        </linearGradient>
        <linearGradient x1="-205.819729%" y1="-47.5821959%" x2="1071.45689%" y2="544.730019%" id="linearGradient-37">
            <stop stop-color="#FEB454" offset="0%"></stop>
            <stop stop-color="#FF364A" offset="53%"></stop>
            <stop stop-color="#0065F3" offset="100%"></stop>
        </linearGradient>
        <linearGradient x1="-250.822222%" y1="-89.5843175%" x2="1069.80239%" y2="522.293811%" id="linearGradient-38">
            <stop stop-color="#FEB454" offset="0%"></stop>
            <stop stop-color="#FF364A" offset="53%"></stop>
            <stop stop-color="#0065F3" offset="100%"></stop>
        </linearGradient>
        <linearGradient x1="-136.293707%" y1="-57.8691881%" x2="1135.80087%" y2="534.631544%" id="linearGradient-39">
            <stop stop-color="#FEB454" offset="0%"></stop>
            <stop stop-color="#FF364A" offset="53%"></stop>
            <stop stop-color="#0065F3" offset="100%"></stop>
        </linearGradient>
        <linearGradient x1="-108.959249%" y1="-20.7793434%" x2="1229.31589%" y2="591.389931%" id="linearGradient-40">
            <stop stop-color="#FEB454" offset="0%"></stop>
            <stop stop-color="#FF364A" offset="53%"></stop>
            <stop stop-color="#0065F3" offset="100%"></stop>
        </linearGradient>
        <linearGradient x1="-336.18571%" y1="-107.862238%" x2="815.776685%" y2="426.428329%" id="linearGradient-41">
            <stop stop-color="#FEB454" offset="0%"></stop>
            <stop stop-color="#FF364A" offset="53%"></stop>
            <stop stop-color="#0065F3" offset="100%"></stop>
        </linearGradient>
        <linearGradient x1="-457.058231%" y1="-184.738579%" x2="729.498517%" y2="365.518613%" id="linearGradient-42">
            <stop stop-color="#FEB454" offset="0%"></stop>
            <stop stop-color="#FF364A" offset="53%"></stop>
            <stop stop-color="#0065F3" offset="100%"></stop>
        </linearGradient>
        <linearGradient x1="-543.456151%" y1="-204.54902%" x2="608.506244%" y2="329.741546%" id="linearGradient-43">
            <stop stop-color="#FEB454" offset="0%"></stop>
            <stop stop-color="#FF364A" offset="53%"></stop>
            <stop stop-color="#0065F3" offset="100%"></stop>
        </linearGradient>
        <linearGradient x1="-671.129272%" y1="-284.382143%" x2="515.427477%" y2="265.875048%" id="linearGradient-44">
            <stop stop-color="#FEB454" offset="0%"></stop>
            <stop stop-color="#FF364A" offset="53%"></stop>
            <stop stop-color="#0065F3" offset="100%"></stop>
        </linearGradient>
        <linearGradient x1="-668.418878%" y1="-262.005836%" x2="609.188643%" y2="330.306379%" id="linearGradient-45">
            <stop stop-color="#FEB454" offset="0%"></stop>
            <stop stop-color="#FF364A" offset="53%"></stop>
            <stop stop-color="#0065F3" offset="100%"></stop>
        </linearGradient>
        <linearGradient x1="-729.304603%" y1="-311.377046%" x2="590.989106%" y2="300.78921%" id="linearGradient-46">
            <stop stop-color="#FEB454" offset="0%"></stop>
            <stop stop-color="#FF364A" offset="53%"></stop>
            <stop stop-color="#0065F3" offset="100%"></stop>
        </linearGradient>
        <linearGradient x1="-601.485413%" y1="-272.332602%" x2="679.371629%" y2="319.982534%" id="linearGradient-47">
            <stop stop-color="#FEB454" offset="0%"></stop>
            <stop stop-color="#FF364A" offset="53%"></stop>
            <stop stop-color="#0065F3" offset="100%"></stop>
        </linearGradient>
        <linearGradient x1="-596.000204%" y1="-242.483891%" x2="746.549246%" y2="369.685383%" id="linearGradient-48">
            <stop stop-color="#FEB454" offset="0%"></stop>
            <stop stop-color="#FF364A" offset="53%"></stop>
            <stop stop-color="#0065F3" offset="100%"></stop>
        </linearGradient>
    </defs>
    <g id="Artboard" stroke="none" stroke-width="1" fill="none" fill-rule="evenodd">
        <g id="logomark" transform="translate(1.000000, 4.000000)" fill-rule="nonzero">
            <path d="M102.994162,135.346492 L118.968784,135.346492 C119.263818,135.342202 119.531727,135.518008 119.645213,135.790375 C119.7587,136.062743 119.694887,136.376766 119.484095,136.583237 L103.509472,152.557859 C103.303002,152.768651 102.988978,152.832464 102.716611,152.718978 C102.444243,152.605491 102.268437,152.337583 102.272727,152.042549 L102.272727,136.067926 C102.272727,135.669489 102.595725,135.346492 102.994162,135.346492 Z" id="Shape" fill="url(#linearGradient-1)"></path>
            <path d="M129.584179,135.346492 L145.558801,135.346492 C145.957238,135.346492 146.280236,135.669489 146.280236,136.067926 L146.280236,152.042549 C146.284526,152.337583 146.10872,152.605491 145.836352,152.718978 C145.563984,152.832464 145.249961,152.768651 145.043491,152.557859 L129.068868,136.583237 C128.858076,136.376766 128.794263,136.062743 128.90775,135.790375 C129.021236,135.518008 129.289145,135.342202 129.584179,135.346492 Z" id="Shape" fill="url(#linearGradient-2)"></path>
            <path d="M126.18313,154.773694 L126.18313,140.654189 C126.17884,140.359155 126.354646,140.091247 126.627013,139.97776 C126.899381,139.864274 127.213404,139.928087 127.419875,140.138879 L141.53938,154.258384 C141.750172,154.464854 141.813985,154.778877 141.700498,155.051245 C141.587012,155.323613 141.319103,155.499419 141.02407,155.495129 L126.904565,155.495129 C126.713228,155.495129 126.529728,155.41912 126.394433,155.283825 C126.259138,155.14853 126.18313,154.96503 126.18313,154.773694 Z" id="Shape" fill="url(#linearGradient-3)"></path>
            <path d="M138.892755,177.961955 L152.909198,177.961955 C153.204232,177.957665 153.47214,178.133471 153.585627,178.405839 C153.699114,178.678207 153.635301,178.99223 153.424509,179.1987 L139.305004,193.318205 C139.098533,193.528997 138.78451,193.59281 138.512142,193.479324 C138.239774,193.365837 138.063969,193.097929 138.068259,192.802895 L138.068259,178.68339 C138.066097,178.472781 138.156079,178.271744 138.314587,178.13305 C138.473095,177.994356 138.684297,177.931856 138.892755,177.961955 Z" id="Shape" fill="url(#linearGradient-4)"></path>
            <path d="M107.631955,159.205363 L121.75146,159.205363 C122.149898,159.205363 122.472895,159.528361 122.472895,159.926798 L122.472895,174.046303 C122.477185,174.341337 122.301379,174.609245 122.029012,174.722732 C121.756644,174.836218 121.442621,174.772405 121.23615,174.561613 L107.116645,160.442108 C106.905853,160.235638 106.84204,159.921615 106.955527,159.649247 C107.069013,159.376879 107.336922,159.201073 107.631955,159.205363 Z" id="Shape" fill="url(#linearGradient-5)"></path>
            <path d="M107.116645,154.258384 L121.23615,140.138879 C121.442621,139.928087 121.756644,139.864274 122.029012,139.97776 C122.301379,140.091247 122.477185,140.359155 122.472895,140.654189 L122.472895,154.773694 C122.472895,155.172131 122.149898,155.495129 121.75146,155.495129 L107.631955,155.495129 C107.336922,155.499419 107.069013,155.323613 106.955527,155.051245 C106.84204,154.778877 106.905853,154.464854 107.116645,154.258384 Z" id="Shape" fill="url(#linearGradient-6)"></path>
            <path d="M198.584242,135.346492 L214.558864,135.346492 C214.853898,135.342202 215.121806,135.518008 215.235293,135.790375 C215.348779,136.062743 215.284966,136.376766 215.074174,136.583237 L199.099552,152.557859 C198.893081,152.768651 198.579058,152.832464 198.30669,152.718978 C198.034323,152.605491 197.858517,152.337583 197.862807,152.042549 L197.862807,136.067926 C197.862807,135.87659 197.938815,135.69309 198.07411,135.557795 C198.209405,135.4225 198.392905,135.346492 198.584242,135.346492 Z" id="Shape" fill="url(#linearGradient-7)"></path>
            <path d="M269.233451,150.340986 L285.208074,150.340986 C285.606511,150.340986 285.929508,150.663983 285.929508,151.06242 L285.929508,167.037043 C285.933798,167.332077 285.757993,167.599985 285.485625,167.713472 C285.213257,167.826958 284.899234,167.763145 284.692763,167.552353 L268.718141,151.577731 C268.507349,151.37126 268.443536,151.057237 268.557022,150.784869 C268.670509,150.512502 268.938417,150.336696 269.233451,150.340986 Z" id="Shape" fill="url(#linearGradient-8)"></path>
            <path d="M221.931895,154.965088 L221.931895,140.845583 C221.927605,140.550549 222.103411,140.282641 222.375778,140.169154 C222.648146,140.055668 222.962169,140.119481 223.16864,140.330273 L237.288145,154.449778 C237.498937,154.656248 237.56275,154.970271 237.449263,155.242639 C237.335777,155.515007 237.067868,155.690813 236.772835,155.686523 L222.65333,155.686523 C222.461993,155.686523 222.278493,155.610514 222.143198,155.475219 C222.007903,155.339924 221.931895,155.156424 221.931895,154.965088 Z" id="Shape" fill="url(#linearGradient-9)"></path>
            <path d="M62.3864404,189.737815 L62.3864404,175.61831 C62.3821504,175.323276 62.5579562,175.055368 62.8303239,174.941881 C63.1026916,174.828395 63.4167147,174.892208 63.6231854,175.103 L77.7426904,189.222505 C77.9534824,189.428976 78.0172954,189.742999 77.9038088,190.015366 C77.7903223,190.287734 77.5224139,190.46354 77.22738,190.45925 L63.107875,190.45925 C62.9165386,190.45925 62.7330389,190.383242 62.5977437,190.247947 C62.4624485,190.112651 62.3864404,189.929152 62.3864404,189.737815 Z" id="Shape-Copy-3" fill="url(#linearGradient-9)"></path>
            <path d="M222.443113,159.205363 L236.562618,159.205363 C236.857652,159.201073 237.12556,159.376879 237.239047,159.649247 C237.352534,159.921615 237.288721,160.235638 237.077929,160.442108 L222.958424,174.561613 C222.751953,174.772405 222.43793,174.836218 222.165562,174.722732 C221.893194,174.609245 221.717389,174.341337 221.721679,174.046303 L221.721679,159.926798 C221.721679,159.528361 222.044676,159.205363 222.443113,159.205363 Z" id="Shape" fill="url(#linearGradient-10)"></path>
            <path d="M203.134261,166.704545 L217.253766,166.704545 C217.652204,166.704545 217.975201,167.027543 217.975201,167.42598 L217.975201,181.545485 C217.979491,181.840519 217.803685,182.108427 217.531318,182.221914 C217.25895,182.3354 216.944927,182.271587 216.738456,182.060795 L202.722013,167.94129 C202.52093,167.748379 202.448925,167.45691 202.537044,167.192554 C202.625163,166.928197 202.857648,166.738225 203.134261,166.704545 Z" id="Shape" fill="url(#linearGradient-11)"></path>
            <path d="M202.758256,154.258384 L216.877761,140.138879 C217.084232,139.928087 217.398255,139.864274 217.670622,139.97776 C217.94299,140.091247 218.118796,140.359155 218.114506,140.654189 L218.114506,154.773694 C218.114506,155.172131 217.791509,155.495129 217.393071,155.495129 L203.273566,155.495129 C202.978532,155.499419 202.710624,155.323613 202.597137,155.051245 C202.483651,154.778877 202.547464,154.464854 202.758256,154.258384 Z" id="Shape" fill="url(#linearGradient-12)"></path>
            <path d="M102.994162,87.5772174 L118.968784,87.5772174 C119.263818,87.5729274 119.531727,87.7487332 119.645213,88.0211009 C119.7587,88.2934686 119.694887,88.6074917 119.484095,88.8139624 L103.509472,104.788585 C103.303002,104.999377 102.988978,105.06319 102.716611,104.949703 C102.444243,104.836217 102.268437,104.568308 102.272727,104.273274 L102.272727,88.298652 C102.272727,87.9002147 102.595725,87.5772174 102.994162,87.5772174 Z" id="Shape" fill="url(#linearGradient-13)"></path>
            <path d="M129.584179,87.5772174 L145.558801,87.5772174 C145.957238,87.5772174 146.280236,87.9002147 146.280236,88.298652 L146.280236,104.273274 C146.284526,104.568308 146.10872,104.836217 145.836352,104.949703 C145.563984,105.06319 145.249961,104.999377 145.043491,104.788585 L129.068868,88.8139624 C128.858076,88.6074917 128.794263,88.2934686 128.90775,88.0211009 C129.021236,87.7487332 129.289145,87.5729274 129.584179,87.5772174 Z" id="Shape" fill="url(#linearGradient-14)"></path>
            <path d="M48.0682586,139.433842 L48.0682586,123.459219 C48.0639685,123.164185 48.2397744,122.896277 48.5121421,122.782791 C48.7845098,122.669304 49.0985329,122.733117 49.3050036,122.943909 L65.2796261,138.918531 C65.490418,139.125002 65.554231,139.439025 65.4407445,139.711393 C65.3272579,139.983761 65.0593495,140.159566 64.7643157,140.155276 L48.7896932,140.155276 C48.5983568,140.155276 48.4148571,140.079268 48.2795619,139.943973 C48.1442667,139.808678 48.0682586,139.625178 48.0682586,139.433842 Z" id="Shape" fill="url(#linearGradient-15)"></path>
            <path d="M161.807545,16.1912587 L177.782168,0.216636202 C177.988638,0.00584427015 178.302662,-0.0579687728 178.575029,0.0555177807 C178.847397,0.169004334 179.023203,0.436912754 179.018913,0.731946604 L179.018913,16.7065691 C179.018913,17.1050064 178.695915,17.4280037 178.297478,17.4280037 L162.322856,17.4280037 C162.027822,17.4322937 161.759913,17.2564879 161.646427,16.9841202 C161.53294,16.7117524 161.596753,16.3977294 161.807545,16.1912587 Z" id="Shape" fill="url(#linearGradient-16)"></path>
            <path d="M126.18313,107.00442 L126.18313,92.8849146 C126.17884,92.5898807 126.354646,92.3219723 126.627013,92.2084858 C126.899381,92.0949992 127.213404,92.1588122 127.419875,92.3696042 L141.53938,106.489109 C141.750172,106.69558 141.813985,107.009603 141.700498,107.281971 C141.587012,107.554338 141.319103,107.730144 141.02407,107.725854 L126.904565,107.725854 C126.713228,107.725854 126.529728,107.649846 126.394433,107.514551 C126.259138,107.379256 126.18313,107.195756 126.18313,107.00442 Z" id="Shape" fill="url(#linearGradient-17)"></path>
            <path d="M126.904565,111.384558 L140.921007,111.384558 C141.216041,111.380268 141.48395,111.556074 141.597436,111.828442 C141.710923,112.100809 141.64711,112.414832 141.436318,112.621303 L127.419875,126.84387 C127.213404,127.054662 126.899381,127.118475 126.627013,127.004989 C126.354646,126.891502 126.17884,126.623594 126.18313,126.32856 L126.18313,112.209055 C126.15303,112.000597 126.21553,111.789394 126.354225,111.630887 C126.492919,111.472379 126.693956,111.382396 126.904565,111.384558 Z" id="Shape" fill="url(#linearGradient-18)"></path>
            <path d="M107.631955,111.384558 L121.75146,111.384558 C122.149898,111.384558 122.472895,111.707555 122.472895,112.105993 L122.472895,126.225498 C122.477185,126.520531 122.301379,126.78844 122.029012,126.901926 C121.756644,127.015413 121.442621,126.9516 121.23615,126.740808 L107.116645,112.621303 C106.905853,112.414832 106.84204,112.100809 106.955527,111.828442 C107.069013,111.556074 107.336922,111.380268 107.631955,111.384558 Z" id="Shape" fill="url(#linearGradient-19)"></path>
            <path d="M107.116645,106.489109 L121.23615,92.3696042 C121.442621,92.1588122 121.756644,92.0949992 122.029012,92.2084858 C122.301379,92.3219723 122.477185,92.5898807 122.472895,92.8849146 L122.472895,107.00442 C122.472895,107.402857 122.149898,107.725854 121.75146,107.725854 L107.631955,107.725854 C107.336922,107.730144 107.069013,107.554338 106.955527,107.281971 C106.84204,107.009603 106.905853,106.69558 107.116645,106.489109 Z" id="Shape" fill="url(#linearGradient-20)"></path>
            <path d="M150.814967,87.5772174 L166.686528,87.5772174 C166.981561,87.5729274 167.24947,87.7487332 167.362956,88.0211009 C167.476443,88.2934686 167.41263,88.6074917 167.201838,88.8139624 L151.227216,104.788585 C151.020745,104.999377 150.706722,105.06319 150.434354,104.949703 C150.161986,104.836217 149.98618,104.568308 149.990471,104.273274 L149.990471,88.298652 C149.988309,88.0880431 150.078291,87.8870064 150.236799,87.7483121 C150.395307,87.6096179 150.606509,87.5471178 150.814967,87.5772174 Z" id="Shape" fill="url(#linearGradient-21)"></path>
            <path d="M177.404984,87.5772174 L193.379606,87.5772174 C193.778044,87.5772174 194.101041,87.9002147 194.101041,88.298652 L194.101041,104.273274 C194.105331,104.568308 193.929525,104.836217 193.657158,104.949703 C193.38479,105.06319 193.070767,104.999377 192.864296,104.788585 L176.889674,88.8139624 C176.678882,88.6074917 176.615069,88.2934686 176.728555,88.0211009 C176.842042,87.7487332 177.10995,87.5729274 177.404984,87.5772174 Z" id="Shape" fill="url(#linearGradient-22)"></path>
            <path d="M173.952404,107.00442 L173.952404,92.8849146 C173.948114,92.5898807 174.12392,92.3219723 174.396288,92.2084858 C174.668655,92.0949992 174.982679,92.1588122 175.189149,92.3696042 L189.308654,106.489109 C189.519446,106.69558 189.583259,107.009603 189.469773,107.281971 C189.356286,107.554338 189.088378,107.730144 188.793344,107.725854 L174.673839,107.725854 C174.482503,107.725854 174.299003,107.649846 174.163708,107.514551 C174.028412,107.379256 173.952404,107.195756 173.952404,107.00442 Z" id="Shape" fill="url(#linearGradient-23)"></path>
            <path d="M174.592481,111.47735 L188.711986,111.47735 C189.00702,111.473059 189.274928,111.648865 189.388415,111.921233 C189.501901,112.193601 189.438088,112.507624 189.227296,112.714094 L175.107791,126.936662 C174.901321,127.147454 174.587298,127.211267 174.31493,127.09778 C174.042562,126.984293 173.866756,126.716385 173.871046,126.421351 L173.871046,112.301846 C173.840947,112.093388 173.903447,111.882186 174.042141,111.723678 C174.180835,111.56517 174.381872,111.475188 174.592481,111.47735 Z" id="Shape" fill="url(#linearGradient-24)"></path>
            <path d="M0.728844508,35.7955313 L14.8483495,35.7955313 C15.1433834,35.7912413 15.4112918,35.9670471 15.5247784,36.2394148 C15.6382649,36.5117825 15.5744519,36.8258056 15.3636599,37.0322763 L1.24415491,51.2548434 C1.03768424,51.4656353 0.723661147,51.5294484 0.451293418,51.4159618 C0.17892569,51.3024753 0.00311987559,51.0345669 0.00740994443,50.739533 L0.00740994443,36.620028 C-0.0226897238,36.4115698 0.0398104104,36.2003676 0.178504658,36.0418599 C0.317198905,35.8833522 0.518235593,35.7933695 0.728844508,35.7955313 Z" id="Shape-Copy-2" fill="url(#linearGradient-24)"></path>
            <path d="M155.40123,111.384558 L169.520735,111.384558 C169.919172,111.384558 170.242169,111.707555 170.242169,112.105993 L170.242169,126.225498 C170.246459,126.520531 170.070654,126.78844 169.798286,126.901926 C169.525918,127.015413 169.211895,126.9516 169.005424,126.740808 L154.885919,112.621303 C154.675127,112.414832 154.611314,112.100809 154.724801,111.828442 C154.838288,111.556074 155.106196,111.380268 155.40123,111.384558 Z" id="Shape" fill="url(#linearGradient-25)"></path>
            <path d="M154.885919,106.489109 L169.005424,92.3696042 C169.211895,92.1588122 169.525918,92.0949992 169.798286,92.2084858 C170.070654,92.3219723 170.246459,92.5898807 170.242169,92.8849146 L170.242169,107.00442 C170.242169,107.402857 169.919172,107.725854 169.520735,107.725854 L155.40123,107.725854 C155.106196,107.730144 154.838288,107.554338 154.724801,107.281971 C154.611314,107.009603 154.675127,106.69558 154.885919,106.489109 Z" id="Shape" fill="url(#linearGradient-26)"></path>
            <path d="M198.584242,87.5772174 L214.558864,87.5772174 C214.853898,87.5729274 215.121806,87.7487332 215.235293,88.0211009 C215.348779,88.2934686 215.284966,88.6074917 215.074174,88.8139624 L199.099552,104.788585 C198.893081,104.999377 198.579058,105.06319 198.30669,104.949703 C198.034323,104.836217 197.858517,104.568308 197.862807,104.273274 L197.862807,88.298652 C197.862807,88.1073157 197.938815,87.923816 198.07411,87.7885207 C198.209405,87.6532255 198.392905,87.5772174 198.584242,87.5772174 Z" id="Shape" fill="url(#linearGradient-27)"></path>
            <path d="M225.174258,87.5772174 L241.148881,87.5772174 C241.547318,87.5772174 241.870315,87.9002147 241.870315,88.298652 L241.870315,104.273274 C241.874605,104.568308 241.6988,104.836217 241.426432,104.949703 C241.154064,105.06319 240.840041,104.999377 240.63357,104.788585 L224.658948,88.8139624 C224.448156,88.6074917 224.384343,88.2934686 224.497829,88.0211009 C224.611316,87.7487332 224.879224,87.5729274 225.174258,87.5772174 Z" id="Shape" fill="url(#linearGradient-28)"></path>
            <path d="M197.605152,130.914822 L197.605152,114.9402 C197.600862,114.645166 197.776668,114.377258 198.049035,114.263771 C198.321403,114.150284 198.635426,114.214097 198.841897,114.424889 L214.816519,130.399512 C215.027311,130.605983 215.091124,130.920006 214.977638,131.192373 C214.864151,131.464741 214.596243,131.640547 214.301209,131.636257 L198.326586,131.636257 C197.928149,131.636257 197.605152,131.31326 197.605152,130.914822 Z" id="Shape" fill="url(#linearGradient-29)"></path>
            <path d="M229.307545,135.36162 L245.282168,119.386997 C245.488638,119.176205 245.802662,119.112392 246.075029,119.225879 C246.347397,119.339365 246.523203,119.607274 246.518913,119.902308 L246.518913,135.87693 C246.518913,136.275367 246.195915,136.598365 245.797478,136.598365 L229.822856,136.598365 C229.527822,136.602655 229.259913,136.426849 229.146427,136.154481 C229.03294,135.882113 229.096753,135.56809 229.307545,135.36162 Z" id="Shape" fill="url(#linearGradient-30)"></path>
            <path d="M221.931895,106.896906 L221.931895,92.7774011 C221.927605,92.4823673 222.103411,92.2144589 222.375778,92.1009723 C222.648146,91.9874858 222.962169,92.0512988 223.16864,92.2620907 L237.288145,106.381596 C237.498937,106.588066 237.56275,106.90209 237.449263,107.174457 C237.335777,107.446825 237.067868,107.622631 236.772835,107.618341 L222.65333,107.618341 C222.461993,107.618341 222.278493,107.542333 222.143198,107.407037 C222.007903,107.271742 221.931895,107.088243 221.931895,106.896906 Z" id="Shape" fill="url(#linearGradient-31)"></path>
            <path d="M298.63644,36.3287244 L298.63644,22.2092193 C298.63215,21.9141855 298.807956,21.6462771 299.080324,21.5327905 C299.352692,21.419304 299.666715,21.483117 299.873185,21.6939089 L313.99269,35.813414 C314.203482,36.0198846 314.267295,36.3339077 314.153809,36.6062755 C314.040322,36.8786432 313.772414,37.054449 313.47738,37.0501589 L299.357875,37.0501589 C299.166539,37.0501589 298.983039,36.9741509 298.847744,36.8388556 C298.712448,36.7035604 298.63644,36.5200607 298.63644,36.3287244 Z" id="Shape-Copy" fill="url(#linearGradient-31)"></path>
            <path d="M222.443113,111.384558 L236.562618,111.384558 C236.857652,111.380268 237.12556,111.556074 237.239047,111.828442 C237.352534,112.100809 237.288721,112.414832 237.077929,112.621303 L222.958424,126.84387 C222.751953,127.054662 222.43793,127.118475 222.165562,127.004989 C221.893194,126.891502 221.717389,126.623594 221.721679,126.32856 L221.721679,112.209055 C221.691579,112.000597 221.754079,111.789394 221.892773,111.630887 C222.031468,111.472379 222.232504,111.382396 222.443113,111.384558 Z" id="Shape" fill="url(#linearGradient-32)"></path>
            <path d="M203.170504,111.384558 L217.290009,111.384558 C217.688446,111.384558 218.011444,111.707555 218.011444,112.105993 L218.011444,126.225498 C218.015734,126.520531 217.839928,126.78844 217.56756,126.901926 C217.295193,127.015413 216.981169,126.9516 216.774699,126.740808 L202.758256,112.724365 C202.472581,112.554025 202.340385,112.210456 202.438199,111.89256 C202.536014,111.574663 202.838485,111.364838 203.170504,111.384558 Z" id="Shape" fill="url(#linearGradient-33)"></path>
            <path d="M202.758256,106.489109 L216.877761,92.3696042 C217.084232,92.1588122 217.398255,92.0949992 217.670622,92.2084858 C217.94299,92.3219723 218.118796,92.5898807 218.114506,92.8849146 L218.114506,107.00442 C218.114506,107.402857 217.791509,107.725854 217.393071,107.725854 L203.273566,107.725854 C202.978532,107.730144 202.710624,107.554338 202.597137,107.281971 C202.483651,107.009603 202.547464,106.69558 202.758256,106.489109 Z" id="Shape" fill="url(#linearGradient-34)"></path>
            <path d="M62.3864404,73.9792964 L62.3864404,58.0046739 C62.3821504,57.70964 62.5579562,57.4417316 62.8303239,57.3282451 C63.1026916,57.2147585 63.4167147,57.2785715 63.6231854,57.4893635 L79.5978079,73.463986 C79.8085998,73.6704566 79.8724128,73.9844797 79.7589263,74.2568474 C79.6454397,74.5292152 79.3775313,74.705021 79.0824975,74.7007309 L63.107875,74.7007309 C62.9165386,74.7007309 62.7330389,74.6247229 62.5977437,74.4894276 C62.4624485,74.3541324 62.3864404,74.1706327 62.3864404,73.9792964 Z" id="Shape" fill="url(#linearGradient-35)"></path>
            <path d="M129.068868,82.6302376 L145.043491,66.6556151 C145.249961,66.4448232 145.563984,66.3810101 145.836352,66.4944967 C146.10872,66.6079832 146.284526,66.8758916 146.280236,67.1709255 L146.280236,83.145548 C146.280236,83.5439853 145.957238,83.8669825 145.558801,83.8669825 L129.584179,83.8669825 C129.289145,83.8712726 129.021236,83.6954668 128.90775,83.4230991 C128.794263,83.1507313 128.858076,82.8367082 129.068868,82.6302376 Z" id="Shape" fill="url(#linearGradient-36)"></path>
            <path d="M126.18313,59.2866763 L126.18313,45.1671713 C126.17884,44.8721374 126.354646,44.604229 126.627013,44.4907425 C126.899381,44.3772559 127.213404,44.441069 127.419875,44.6518609 L141.53938,58.7713659 C141.750172,58.9778366 141.813985,59.2918597 141.700498,59.5642274 C141.587012,59.8365951 141.319103,60.012401 141.02407,60.0081109 L126.904565,60.0081109 C126.713228,60.0081109 126.529728,59.9321028 126.394433,59.7968076 C126.259138,59.6615124 126.18313,59.4780127 126.18313,59.2866763 Z" id="Shape" fill="url(#linearGradient-37)"></path>
            <path d="M126.904565,63.7183458 L140.921007,63.7183458 C141.216041,63.7140557 141.48395,63.8898615 141.597436,64.1622293 C141.710923,64.434597 141.64711,64.7486201 141.436318,64.9550908 L127.316813,79.0745958 C127.110342,79.2853877 126.796319,79.3492008 126.523951,79.2357142 C126.251584,79.1222277 126.075778,78.8543192 126.080068,78.5592854 L126.080068,64.4397804 C126.077906,64.2291714 126.167889,64.0281348 126.326396,63.8894405 C126.484904,63.7507463 126.696106,63.6882461 126.904565,63.7183458 Z" id="Shape" fill="url(#linearGradient-38)"></path>
            <path d="M107.631955,63.7183458 L121.75146,63.7183458 C122.149898,63.7183458 122.472895,64.041343 122.472895,64.4397804 L122.472895,78.5592854 C122.477185,78.8543192 122.301379,79.1222277 122.029012,79.2357142 C121.756644,79.3492008 121.442621,79.2853877 121.23615,79.0745958 L107.116645,65.0066218 C106.86178,64.8094743 106.768551,64.4672213 106.888219,64.1680512 C107.007887,63.868881 107.311434,63.6853389 107.631955,63.7183458 Z" id="Shape" fill="url(#linearGradient-39)"></path>
            <path d="M86.9907429,36.0710692 L101.058717,21.6939089 C101.265188,21.483117 101.579211,21.419304 101.851578,21.5327905 C102.123946,21.6462771 102.299752,21.9141855 102.295462,22.2092193 L102.295462,36.3287244 C102.295462,36.7271617 101.972465,37.0501589 101.574027,37.0501589 L87.4545223,37.0501589 C87.2551697,36.993034 87.0900398,36.8528856 87.0012651,36.6654723 C86.9124904,36.4780591 86.908657,36.261507 86.9907429,36.0710692 Z" id="Shape" fill="url(#linearGradient-40)"></path>
            <path d="M156.516991,73.9792964 L156.516991,58.0046739 C156.512701,57.70964 156.688506,57.4417316 156.960874,57.3282451 C157.233242,57.2147585 157.547265,57.2785715 157.753736,57.4893635 L173.728358,73.463986 C173.93915,73.6704566 174.002963,73.9844797 173.889477,74.2568474 C173.77599,74.5292152 173.508082,74.705021 173.213048,74.7007309 L157.238425,74.7007309 C157.047089,74.7007309 156.863589,74.6247229 156.728294,74.4894276 C156.592999,74.3541324 156.516991,74.1706327 156.516991,73.9792964 Z" id="Shape" fill="url(#linearGradient-41)"></path>
            <path d="M173.241405,67.3276223 L189.216027,51.3529998 C189.422498,51.1422079 189.736521,51.0783949 190.008889,51.1918814 C190.281257,51.305368 190.457062,51.5732764 190.452772,51.8683102 L190.452772,67.8429327 C190.452772,68.24137 190.129775,68.5643673 189.731338,68.5643673 L173.756715,68.5643673 C173.461682,68.5686574 173.193773,68.3928515 173.080287,68.1204838 C172.9668,67.8481161 173.030613,67.534093 173.241405,67.3276223 Z" id="Shape" fill="url(#linearGradient-42)"></path>
            <path d="M197.605152,83.145548 L197.605152,67.1709255 C197.600862,66.8758916 197.776668,66.6079832 198.049035,66.4944967 C198.321403,66.3810101 198.635426,66.4448232 198.841897,66.6556151 L214.816519,82.6302376 C215.027311,82.8367082 215.091124,83.1507313 214.977638,83.4230991 C214.864151,83.6954668 214.596243,83.8712726 214.301209,83.8669825 L198.326586,83.8669825 C197.928149,83.8669825 197.605152,83.5439853 197.605152,83.145548 Z" id="Shape" fill="url(#linearGradient-43)"></path>
            <path d="M251.29006,87.7821678 L267.264683,71.8075453 C267.471154,71.5967534 267.785177,71.5329403 268.057544,71.6464269 C268.329912,71.7599134 268.505718,72.0278218 268.501428,72.3228557 L268.501428,88.2974782 C268.501428,88.6959155 268.178431,89.0189127 267.779993,89.0189127 L251.805371,89.0189127 C251.510337,89.0232028 251.242429,88.847397 251.128942,88.5750293 C251.015456,88.3026615 251.079269,87.9886384 251.29006,87.7821678 Z" id="Shape" fill="url(#linearGradient-44)"></path>
            <path d="M229.090986,51.6696335 L229.090986,37.5501284 C229.086696,37.2550946 229.262502,36.9871862 229.534869,36.8736996 C229.807237,36.760213 230.12126,36.8240261 230.327731,37.034818 L244.447236,51.1543231 C244.658028,51.3607937 244.721841,51.6748168 244.608354,51.9471845 C244.494868,52.2195523 244.226959,52.3953581 243.931925,52.391068 L229.81242,52.391068 C229.621084,52.391068 229.437584,52.31506 229.302289,52.1797647 C229.166994,52.0444695 229.090986,51.8609698 229.090986,51.6696335 Z" id="Shape" fill="url(#linearGradient-45)"></path>
            <path d="M222.443113,63.7183458 L236.562618,63.7183458 C236.857652,63.7140557 237.12556,63.8898615 237.239047,64.1622293 C237.352534,64.434597 237.288721,64.7486201 237.077929,64.9550908 L222.958424,79.0745958 C222.751953,79.2853877 222.43793,79.3492008 222.165562,79.2357142 C221.893194,79.1222277 221.717389,78.8543192 221.721679,78.5592854 L221.721679,64.4397804 C221.721679,64.248444 221.797687,64.0649443 221.932982,63.9296491 C222.068277,63.7943539 222.251777,63.7183458 222.443113,63.7183458 Z" id="Shape" fill="url(#linearGradient-46)"></path>
            <path d="M203.170504,63.7183458 L217.290009,63.7183458 C217.688446,63.7183458 218.011444,64.041343 218.011444,64.4397804 L218.011444,78.5592854 C218.015734,78.8543192 217.839928,79.1222277 217.56756,79.2357142 C217.295193,79.3492008 216.981169,79.2853877 216.774699,79.0745958 L202.758256,65.0066218 C202.520985,64.8204717 202.424538,64.5063772 202.516452,64.2191468 C202.608365,63.9319164 202.869243,63.7321654 203.170504,63.7183458 Z" id="Shape" fill="url(#linearGradient-47)"></path>
            <path d="M202.758256,58.7713659 L216.774699,44.3942057 C216.981169,44.1834138 217.295193,44.1196007 217.56756,44.2330873 C217.839928,44.3465738 218.015734,44.6144822 218.011444,44.9095161 L218.011444,59.0290211 C218.011444,59.4274584 217.688446,59.7504557 217.290009,59.7504557 L203.170504,59.7504557 C202.980488,59.6822264 202.827757,59.5374968 202.749411,59.3514242 C202.671064,59.1653515 202.674272,58.9549633 202.758256,58.7713659 Z" id="Shape" fill="url(#linearGradient-48)"></path>
        </g>
    </g>
</svg>