<?xml version="1.0" encoding="UTF-8"?>
<svg width="17px" height="17px" viewBox="0 0 17 17" version="1.1" xmlns="http://www.w3.org/2000/svg" xmlns:xlink="http://www.w3.org/1999/xlink">
    <!-- Generator: Sketch 53.1 (72631) - https://sketchapp.com -->
    <title>token-5</title>
    <desc>Created with Sketch.</desc>
    <defs>
        <linearGradient x1="12.0182887%" y1="9.69954278%" x2="105.48661%" y2="108.883083%" id="linearGradient-1">
            <stop stop-color="#FC9358" offset="0%"></stop>
            <stop stop-color="#FC3A4F" offset="50%"></stop>
            <stop stop-color="#83509A" offset="100%"></stop>
        </linearGradient>
    </defs>
    <g id="EXCHANGE" stroke="none" stroke-width="1" fill="none" fill-rule="evenodd">
        <g id="OPTION-2-Copy-2" transform="translate(-102.000000, -307.000000)" fill="url(#linearGradient-1)" fill-rule="nonzero">
            <g id="token-5" transform="translate(102.000000, 307.000000)">
                <path d="M8.39580645,0 C3.75893059,1.2468879e-13 1.42108547e-14,3.75893059 1.42108547e-14,8.39580645 C1.42108547e-14,13.0326823 3.75893059,16.7916129 8.39580645,16.7916129 C13.0326823,16.7916129 16.7916129,13.0326823 16.7916129,8.39580645 C16.7916129,6.16910014 15.9070573,4.03359391 14.3325381,2.45907478 C12.758019,0.88455564 10.6225128,2.4937758e-13 8.39580645,2.4937758e-13 L8.39580645,0 Z M13.3312903,11.6148387 C13.3322337,11.6515556 13.3184048,11.6871156 13.2929032,11.7135484 L11.8616129,13.1448387 C11.8357725,13.1716482 11.8001387,13.1867939 11.7629032,13.1867939 C11.7256678,13.1867939 11.690034,13.1716482 11.6641935,13.1448387 C11.3570968,12.8377419 10.4083871,11.8890323 10.1945161,11.6916129 C10.1664417,11.6665031 10.1504706,11.6305682 10.1506452,11.5929032 L10.1506452,8.54935484 C10.1521382,8.49279188 10.1187286,8.44112225 10.0665344,8.41927353 C10.0143402,8.39742481 9.95408516,8.40988594 9.91483871,8.45064516 L8.47258065,9.90387097 C8.41927145,9.95612443 8.33395435,9.95612443 8.28064516,9.90387097 L6.82741935,8.52741935 C6.7881729,8.48666013 6.72791782,8.474199 6.67572365,8.49604772 C6.62352948,8.51789645 6.59011983,8.56956607 6.5916129,8.62612903 L6.5916129,11.6093548 C6.59255625,11.6460717 6.57872736,11.6816317 6.55322581,11.7080645 L5.12193548,13.1393548 C5.09609504,13.1661644 5.06046127,13.18131 5.02322581,13.18131 C4.98599035,13.18131 4.95035657,13.1661644 4.92451613,13.1393548 C4.61741935,12.8322581 3.66870968,11.8835484 3.45483871,11.686129 C3.42676424,11.6610192 3.41079319,11.6250843 3.41096774,11.5874194 L3.41096774,5.19322581 C3.4100244,5.15650891 3.42385329,5.1209489 3.44935484,5.09451613 L4.8916129,3.65225806 C4.91745335,3.62544853 4.95308712,3.6103029 4.99032258,3.6103029 C5.02755804,3.6103029 5.06319181,3.62544853 5.08903226,3.65225806 L5.63741935,4.20064516 L8.27516129,6.7616129 C8.32847048,6.81386636 8.41378758,6.81386636 8.46709677,6.7616129 L11.6312903,3.65225806 C11.6571308,3.62544853 11.6927645,3.6103029 11.73,3.6103029 C11.7672355,3.6103029 11.8028692,3.62544853 11.8287097,3.65225806 L13.2819355,5.10548387 C13.307437,5.13191665 13.3212659,5.16747665 13.3203226,5.20419355 L13.3203226,11.6148387 L13.3312903,11.6148387 Z" id="Shape"></path>
            </g>
        </g>
    </g>
</svg>