<?xml version="1.0" encoding="UTF-8"?>
<svg width="36px" height="36px" viewBox="0 0 36 36" version="1.1" xmlns="http://www.w3.org/2000/svg" xmlns:xlink="http://www.w3.org/1999/xlink">
    <!-- Generator: Sketch 51.3 (57544) - http://www.bohemiancoding.com/sketch -->
    <title>BITCOIN TALK</title>
    <desc>Created with Sketch.</desc>
    <defs>
        <linearGradient x1="0%" y1="0%" x2="0%" y2="100%" id="linearGradient-1">
            <stop stop-color="#FFB800" offset="0%"></stop>
            <stop stop-color="#F7931A" offset="100%"></stop>
        </linearGradient>
    </defs>
    <g id="_BRAND-ASSETS" stroke="none" stroke-width="1" fill="none" fill-rule="evenodd">
        <g id="SOCIAL-MEDIA-ICONS" transform="translate(-23.000000, -69.000000)" fill-rule="nonzero">
            <g id="BITCOIN-TALK" transform="translate(23.000000, 69.000000)">
                <path d="M34.6549118,21.8486782 C32.3052011,31.2733599 22.7595703,37.0090948 13.3337891,34.6588344 C3.91185621,32.3091238 -1.82387874,22.7629432 0.526931443,13.3388113 C2.87554255,3.91303003 12.4211733,-1.82325469 21.8442057,0.526455955 C31.2694372,2.8761666 37.0046224,12.4234467 34.6549118,21.8486782 Z" id="coin" fill="url(#linearGradient-1)"></path>
                <path d="M24.6175163,15.0865254 C24.9525508,12.745611 23.2473987,11.4871909 20.915832,10.6476944 L21.672158,7.47662957 L19.8255235,6.99558211 L19.0891839,10.0830821 C18.6037257,9.95663535 18.1051186,9.83733558 17.6096673,9.71913535 L18.3512664,6.61129392 L16.5056839,6.13024646 L15.748832,9.30021174 C15.3470009,9.20455202 14.9525333,9.10999183 14.5696367,9.01048373 L14.5717405,9.0005879 L12.0250575,8.33591776 L11.5338138,10.3975497 C11.5338138,10.3975497 12.9039314,10.7257615 12.8750038,10.7461029 C13.6229144,10.9412708 13.7580853,11.4586029 13.7354692,11.8687303 C11.6631992,20.5556226 13.7354692,11.8687303 11.6631992,20.5556226 C11.5716827,20.7931226 11.3397357,21.1493726 10.8169346,21.0141296 C10.8353431,21.0421678 9.47469275,20.663927 9.47469275,20.663927 L8.55794996,22.8734467 L10.9610468,23.499633 C11.4081101,23.6167337 11.8462322,23.7393321 12.2775168,23.8547835 L11.5133015,27.062133 L13.3578321,27.5431805 L14.114684,24.3699166 C14.6185507,24.5128564 15.1076906,24.6448009 15.5863113,24.7690485 L14.8320892,27.9274687 L16.6787237,28.4085161 L17.442939,25.2072141 C20.5918426,25.8301018 22.9597003,25.5788576 23.9563886,22.601861 C24.7595247,20.2048703 23.9164158,18.8222025 22.2596518,17.9205821 C23.4661968,17.6297546 24.3750502,16.8001539 24.6175163,15.0865254 Z M20.3982905,21.2708715 C19.8276273,23.6678622 15.9665781,22.3720578 14.7148008,22.0471446 L15.7288456,17.7979837 C16.9806229,18.1245462 20.9947256,18.771074 20.3982905,21.2708715 Z M20.9694796,15.05189 C20.4487823,17.2322719 17.235186,16.1244884 16.1927395,15.8529027 L17.1121121,11.9990254 C18.1545586,12.270611 21.5117411,12.7774976 20.9694796,15.05189 Z" id="symbol" fill="#FFFFFF" transform="translate(16.973260, 17.269381) rotate(-14.000000) translate(-16.973260, -17.269381) "></path>
            </g>
        </g>
    </g>
</svg>