<?xml version="1.0" encoding="UTF-8"?>
<svg width="36px" height="36px" viewBox="0 0 36 36" version="1.1" xmlns="http://www.w3.org/2000/svg" xmlns:xlink="http://www.w3.org/1999/xlink">
    <!-- Generator: Sketch 51.3 (57544) - http://www.bohemiancoding.com/sketch -->
    <title>LINKEDIN</title>
    <desc>Created with Sketch.</desc>
    <defs></defs>
    <g id="_BRAND-ASSETS" stroke="none" stroke-width="1" fill="none" fill-rule="evenodd">
        <g id="SOCIAL-MEDIA-ICONS" transform="translate(-67.000000, -27.000000)" fill-rule="nonzero">
            <g id="LINKEDIN" transform="translate(67.000000, 27.000000)">
                <circle id="Oval" fill="#0077B7" cx="17.5925926" cy="17.5925926" r="17.5925926"></circle>
                <path d="M13.0288726,24.9286994 C13.0288726,25.2543076 12.7649388,25.5182414 12.4393306,25.5182414 L9.92979027,25.5182414 C9.60418201,25.5182414 9.34024821,25.2543076 9.34024821,24.9286994 L9.34024821,14.4088091 C9.34024821,14.0832008 9.60418201,13.819267 9.92979027,13.819267 L12.4393306,13.819267 C12.7649388,13.819267 13.0288726,14.0832008 13.0288726,14.4088091 L13.0288726,24.9286994 Z M11.7243291,11.8051988 C10.40765,11.8051988 9.34024821,10.737797 9.34024821,9.42111792 C9.34024821,8.10443881 10.40765,7.03703704 11.7243291,7.03703704 C13.0410082,7.03703704 14.10841,8.10443881 14.10841,9.42111792 C14.10841,10.737797 13.0410668,11.8051988 11.7243291,11.8051988 Z M26.1682854,25.1527089 C26.1682854,25.4520528 25.9255742,25.694764 25.6262303,25.694764 L22.9333082,25.694764 C22.6339643,25.694764 22.3912531,25.4520528 22.3912531,25.1527089 L22.3912531,20.2182841 C22.3912531,19.4821773 22.6071723,16.9926284 20.4675614,16.9926284 C18.8079208,16.9926284 18.4712909,18.6966488 18.4036952,19.4613651 L18.4036952,25.1527089 C18.4036952,25.4520528 18.1610426,25.694764 17.8616401,25.694764 L15.2571259,25.694764 C14.957782,25.694764 14.7150708,25.4520528 14.7150708,25.1527089 L14.7150708,14.5378447 C14.7150708,14.2385008 14.957782,13.9957896 15.2571259,13.9957896 L17.8616401,13.9957896 C18.160984,13.9957896 18.4036952,14.2385008 18.4036952,14.5378447 L18.4036952,15.4556332 C19.0190913,14.5320994 19.9336554,13.819267 21.8809146,13.819267 C26.1929669,13.819267 26.1682854,17.8478044 26.1682854,20.0612839 L26.1682854,25.1527089 Z" id="Combined-Shape" fill="#FFFFFF"></path>
            </g>
        </g>
    </g>
</svg>