<?xml version="1.0" encoding="UTF-8"?>
<svg width="36px" height="36px" viewBox="0 0 36 36" version="1.1" xmlns="http://www.w3.org/2000/svg" xmlns:xlink="http://www.w3.org/1999/xlink">
    <!-- Generator: Sketch 51.3 (57544) - http://www.bohemiancoding.com/sketch -->
    <title>MEDIUM</title>
    <desc>Created with Sketch.</desc>
    <defs></defs>
    <g id="_BRAND-ASSETS" stroke="none" stroke-width="1" fill="none" fill-rule="evenodd">
        <g id="SOCIAL-MEDIA-ICONS" transform="translate(-158.000000, -69.000000)">
            <g id="MEDIUM" transform="translate(158.000000, 69.000000)">
                <path d="M17.5847517,0 C7.87298169,0 0,7.85820007 0,17.551883 C0,27.2455659 7.87298169,35.1038318 17.5847517,35.1038318 C27.2965876,35.1038318 35.1695693,27.2455659 35.1695693,17.551883 C35.1695693,7.85820007 27.2965876,0 17.5847517,0 Z" id="Fill-1" fill="#000000"></path>
                <path d="M10.2875361,13.1242149 C10.3115036,12.8874077 10.2211987,12.6533501 10.0443728,12.4939698 L8.24316328,10.324126 L8.24316328,10 L13.8359188,10 L18.1588216,19.4806868 L21.9593737,10 L27.2909537,10 L27.2909537,10.324126 L25.7509196,11.8007002 C25.6181518,11.9019036 25.5522922,12.0682385 25.5798048,12.2328683 L25.5798048,23.0820874 C25.5522922,23.2467171 25.6181518,23.413052 25.7509196,23.5142554 L27.2549296,24.9908296 L27.2549296,25.3149556 L19.6898497,25.3149556 L19.6898497,24.9908296 L21.2478959,23.4782414 C21.4009986,23.3251818 21.4009986,23.2801644 21.4009986,23.0460734 L21.4009986,14.2766631 L17.0690898,25.2789416 L16.4836967,25.2789416 L11.4403101,14.2766631 L11.4403101,21.6505306 C11.3982602,21.9605487 11.5012227,22.2726691 11.7194976,22.4968598 L13.7458583,24.9548156 L13.7458583,25.2789416 L8,25.2789416 L8,24.9548156 L10.0263607,22.4968598 C10.2430464,22.2722975 10.340005,21.9581066 10.2875361,21.6505306 L10.2875361,13.1242149 Z" id="Shape" fill="#FFFFFF" fill-rule="nonzero"></path>
            </g>
        </g>
    </g>
</svg>