<?xml version="1.0" encoding="UTF-8"?>
<svg width="36px" height="36px" viewBox="0 0 36 36" version="1.1" xmlns="http://www.w3.org/2000/svg" xmlns:xlink="http://www.w3.org/1999/xlink">
    <!-- Generator: Sketch 51.3 (57544) - http://www.bohemiancoding.com/sketch -->
    <title>REDDIT</title>
    <desc>Created with Sketch.</desc>
    <defs></defs>
    <g id="_BRAND-ASSETS" stroke="none" stroke-width="1" fill="none" fill-rule="evenodd">
        <g id="SOCIAL-MEDIA-ICONS" transform="translate(-114.000000, -69.000000)" fill-rule="nonzero">
            <g id="REDDIT" transform="translate(114.000000, 69.000000)">
                <circle id="Oval" fill="#FF4500" cx="17.5925926" cy="17.5925926" r="17.5925926"></circle>
                <path d="M29.3349399,18.0043341 C29.3515939,16.5766371 28.2097889,15.4046965 26.7821424,15.3841608 C26.1137956,15.3887142 25.4744812,15.6578992 25.0041677,16.1327817 C22.9943243,14.7266318 20.6139783,13.9453366 18.1617721,13.8869188 L19.3333639,8.23483058 L23.1401015,9.07328605 C23.2151748,10.0585032 24.0615031,10.8045461 25.0483545,10.7554212 C26.0352058,10.7062964 26.8032586,9.8798905 26.7801162,8.8920883 C26.7569738,7.90428609 25.9510626,7.11475528 24.9629935,7.11189913 C24.2605964,7.11839045 23.6249754,7.5295031 23.3309998,8.16745469 L19.0825758,7.21296296 C18.9669885,7.18922114 18.8467165,7.21354582 18.7494395,7.28033885 C18.6448528,7.34658959 18.5760054,7.45674545 18.5622843,7.57978723 L17.2634269,13.8869188 C14.775017,13.9228042 12.3547394,14.7052215 10.3162244,16.1327817 C9.84637966,15.6572061 9.20676459,15.3878945 8.53824961,15.3841608 C7.111191,15.404692 5.97045875,16.5772508 5.98919523,18.0043341 C5.97820514,19.0265713 6.56275638,19.9618533 7.48643716,20.3999212 C7.44390962,20.6635488 7.42263025,20.9301668 7.42280437,21.1972025 C7.42280437,25.2547281 12.0043647,28.5561466 17.6527098,28.5561466 C23.301055,28.5561466 27.8826152,25.2771868 27.8826152,21.1972025 C27.881893,20.930203 27.8606192,20.6636552 27.8189825,20.3999212 C28.7417056,19.9579739 29.3305682,19.0274257 29.3349399,18.0043341 Z M11.802237,19.8758865 C11.8289402,18.8759012 12.65652,18.0842553 13.6567054,18.1019398 C14.6568909,18.1196244 15.4559675,18.9400316 15.4473031,19.9403358 C15.4386387,20.9406401 14.6254708,21.7470825 13.625129,21.7474389 C12.6062191,21.7310229 11.7918114,20.8948754 11.802237,19.8758865 Z M21.9909683,24.8654452 C20.7370282,26.1605595 18.3526704,26.2391647 17.660196,26.2391647 C16.9677216,26.2391647 14.5646483,26.1306147 13.3294238,24.857959 C13.1430535,24.6662057 13.1430535,24.3609811 13.3294238,24.1692277 C13.4158469,24.0759332 13.5372591,24.0229026 13.6644316,24.0229026 C13.7916041,24.0229026 13.9130163,24.0759332 13.9994395,24.1692277 C14.7929777,24.9889677 16.4698887,25.2697006 17.660196,25.2697006 C18.8505034,25.2697006 20.5461298,24.9889677 21.3209525,24.1692277 C21.4073757,24.0759332 21.5287879,24.0229026 21.6559604,24.0229026 C21.7831329,24.0229026 21.9045451,24.0759332 21.9909683,24.1692277 C22.1641095,24.3690066 22.1641095,24.6656664 21.9909683,24.8654452 Z M21.657832,21.7811269 C20.8964532,21.8024538 20.1980999,21.3602347 19.891836,20.6628432 C19.5855722,19.9654517 19.7324996,19.1520223 20.263386,18.6058428 C20.7942725,18.0596634 21.6032024,17.8897005 22.3090082,18.1760406 C23.0148139,18.4623808 23.4766823,19.1478971 23.4769809,19.9095745 C23.487427,20.9271284 22.6752723,21.7626785 21.657832,21.7811269 Z" id="Shape" fill="#FFFFFF"></path>
            </g>
        </g>
    </g>
</svg>