<?xml version="1.0" encoding="UTF-8"?>
<svg width="36px" height="36px" viewBox="0 0 36 36" version="1.1" xmlns="http://www.w3.org/2000/svg" xmlns:xlink="http://www.w3.org/1999/xlink">
    <!-- Generator: Sketch 51.3 (57544) - http://www.bohemiancoding.com/sketch -->
    <title>TELEGRAM</title>
    <desc>Created with Sketch.</desc>
    <defs></defs>
    <g id="_BRAND-ASSETS" stroke="none" stroke-width="1" fill="none" fill-rule="evenodd">
        <g id="SOCIAL-MEDIA-ICONS" transform="translate(-68.000000, -68.000000)">
            <g id="TELEGRAM" transform="translate(67.000000, 67.000000)">
                <g id="Group-10" transform="translate(0.629907, 1.076141)">
                    <path d="M18.362252,0.346853583 C8.65048204,0.346853583 0.777500347,8.20505365 0.777500347,17.8987366 C0.777500347,27.5924195 8.65048204,35.4506854 18.362252,35.4506854 C28.0740879,35.4506854 35.9470696,27.5924195 35.9470696,17.8987366 C35.9470696,8.20505365 28.0740879,0.346853583 18.362252,0.346853583 Z" id="Fill-1" fill="#42BDE9"></path>
                    <path d="M26.9187224,10.4936231 L23.7779505,26.2995317 C23.7779505,26.2995317 23.3386628,27.3956653 22.130704,26.8694659 L14.8828194,21.3230969 L12.247225,20.0516951 L7.81066306,18.5608955 C7.81066306,18.5608955 7.12982314,18.3198605 7.06393328,17.7937269 C6.99804342,17.2675933 7.83260438,16.9825604 7.83260438,16.9825604 L25.4691455,10.0770568 C25.4691455,10.0770568 26.9187224,9.44135583 26.9187224,10.4936231" id="Fill-4" fill="#FEFEFE"></path>
                    <path d="M14.325714,26.1220471 C14.325714,26.1220471 14.1141417,26.1022513 13.8505823,25.2691187 C13.5870228,24.4361177 12.2472184,20.0517148 12.2472184,20.0517148 L22.8994344,13.2996449 C22.8994344,13.2996449 23.5143844,12.9270107 23.4924431,13.2996449 C23.4924431,13.2996449 23.6022815,13.3654116 23.2728322,13.6723448 C22.9433829,13.979278 14.90482,21.1915832 14.90482,21.1915832" id="Fill-6" fill="#D2E5F1"></path>
                    <path d="M17.6618428,23.4497553 L14.794975,26.0587203 C14.794975,26.0587203 14.5708836,26.2283984 14.3257074,26.1220537 L14.8746359,21.2759685" id="Fill-8" fill="#B5D0E4"></path>
                </g>
            </g>
        </g>
    </g>
</svg>