<?xml version="1.0" encoding="UTF-8"?>
<svg width="36px" height="36px" viewBox="0 0 36 36" version="1.1" xmlns="http://www.w3.org/2000/svg" xmlns:xlink="http://www.w3.org/1999/xlink">
    <!-- Generator: Sketch 51.3 (57544) - http://www.bohemiancoding.com/sketch -->
    <title>TWITTER</title>
    <desc>Created with Sketch.</desc>
    <defs></defs>
    <g id="_BRAND-ASSETS" stroke="none" stroke-width="1" fill="none" fill-rule="evenodd">
        <g id="SOCIAL-MEDIA-ICONS" transform="translate(-111.000000, -27.000000)" fill-rule="nonzero">
            <g id="TWITTER" transform="translate(111.000000, 27.000000)">
                <circle id="Oval-3" fill="#76A9EA" cx="17.5925926" cy="17.5925926" r="17.5925926"></circle>
                <path d="M27.5926566,11.7346908 C27.1603376,11.9263951 26.7115569,12.0776333 26.2510586,12.1871244 C26.7584749,11.704946 27.1399859,11.1018436 27.3552204,10.4286726 C27.4166549,10.2364939 27.2079197,10.0703122 27.0343849,10.1732092 C26.3937576,10.5532021 25.703698,10.838268 24.9833243,11.0205792 C24.9415298,11.0311583 24.898407,11.036519 24.8551419,11.036519 C24.7239234,11.036519 24.5963577,10.9877983 24.4960225,10.8993705 C23.7295848,10.2238749 22.7438328,9.85185185 21.7204136,9.85185185 C21.2775629,9.85185185 20.8304426,9.92087679 20.3914345,10.0570291 C19.03124,10.4789114 17.9817289,11.6009105 17.6524492,12.9852044 C17.5289159,13.5044332 17.4954708,14.0241364 17.5529679,14.5298449 C17.559562,14.5879587 17.5320943,14.6285197 17.5151583,14.6475431 C17.4854136,14.6808933 17.4432396,14.7000115 17.3994526,14.7000115 C17.3945663,14.7000115 17.3895377,14.6997743 17.3845565,14.6992999 C14.4071386,14.4226784 11.7222347,12.9882406 9.82440472,10.6602738 C9.72762749,10.5415319 9.54204292,10.556096 9.46490577,10.6884056 C9.09326224,11.3259968 8.89686139,12.0552417 8.89686139,12.7972953 C8.89686139,13.9345226 9.35375428,15.0062356 10.147375,15.7875219 C9.81363588,15.7083923 9.49061815,15.5837679 9.1905613,15.4171118 C9.04539546,15.3364641 8.86678454,15.4401201 8.86474463,15.6061595 C8.84396599,17.2955863 9.8330862,18.7988593 11.3148215,19.4757781 C11.2849818,19.4764897 11.2551422,19.4768217 11.2252551,19.4768217 C10.9903806,19.4768217 10.7525648,19.4541455 10.5184967,19.4094098 C10.3550191,19.3781944 10.2176808,19.5332751 10.2684414,19.6917716 C10.7493863,21.1932893 12.0422162,22.3000602 13.5893236,22.5513489 C12.3053175,23.413283 10.8100618,23.8679462 9.25379858,23.8679462 L8.76863156,23.8676616 C8.61914869,23.8676616 8.49272157,23.965103 8.4546274,24.1098893 C8.4171025,24.2524934 8.48622232,24.4029251 8.61369311,24.4770735 C10.3673534,25.4976463 12.3676534,26.037037 14.3992162,26.037037 C16.1774978,26.037037 17.8409276,25.6841322 19.3433466,24.9881901 C20.7206669,24.350172 21.9377828,23.4381415 22.96087,22.2774314 C23.9139359,21.1961831 24.6592155,19.947994 25.17593,18.5675902 C25.6684976,17.2517519 25.9288473,15.8477231 25.9288473,14.5072636 L25.9288473,14.4434096 C25.9287999,14.2281751 26.0261464,14.0256545 26.1959809,13.8877944 C26.8404509,13.3645332 27.4016639,12.7485746 27.863965,12.0570444 C27.9860276,11.8744485 27.7935168,11.6455988 27.5926566,11.7346908 Z" id="Shape" fill="#FFFFFF"></path>
            </g>
        </g>
    </g>
</svg>