<?xml version="1.0" encoding="UTF-8"?>
<svg width="36px" height="36px" viewBox="0 0 36 36" version="1.1" xmlns="http://www.w3.org/2000/svg" xmlns:xlink="http://www.w3.org/1999/xlink">
    <!-- Generator: Sketch 51.3 (57544) - http://www.bohemiancoding.com/sketch -->
    <title>WECHAT</title>
    <desc>Created with Sketch.</desc>
    <defs></defs>
    <g id="_BRAND-ASSETS" stroke="none" stroke-width="1" fill="none" fill-rule="evenodd">
        <g id="SOCIAL-MEDIA-ICONS" transform="translate(-155.000000, -27.000000)" fill-rule="nonzero">
            <g id="WECHAT" transform="translate(155.000000, 27.000000)">
                <circle id="Oval-3" fill="#2DC100" cx="17.5925926" cy="17.5925926" r="17.5925926"></circle>
                <path d="M22.32136,14.7396657 C20.2857539,14.8460152 18.5156432,15.4630949 17.078537,16.8572409 C15.6265503,18.265763 14.9637362,19.9917365 15.1449087,22.1313382 C14.3492627,22.0328073 13.6245724,21.9243559 12.8957627,21.8629843 C12.6440547,21.8417984 12.3453512,21.8718958 12.1321477,21.9922011 C11.4244397,22.3915374 10.7459884,22.842409 9.9418512,23.3450683 C10.0893954,22.6777144 10.1848999,22.0933382 10.3539662,21.5312409 C10.4783069,21.118117 10.4207185,20.8881834 10.04013,20.6191568 C7.59652819,18.89394 6.56649279,16.3120418 7.33733792,13.6538913 C8.05051049,11.1948206 9.80187332,9.70348869 12.1815813,8.92608604 C15.4296565,7.86511259 19.0799264,8.94735595 21.0550016,11.5261436 C21.7683423,12.457648 22.2057627,13.5031524 22.32136,14.7396657 Z M14.1468559,14.5047897 C14.1776915,13.7114498 13.4847895,12.9967169 12.6617696,12.9728467 C11.8191145,12.9482906 11.1260743,13.5871604 11.1014611,14.4109552 C11.0765714,15.2458621 11.720247,15.9149125 12.5689863,15.9363133 C13.4103969,15.9574398 14.1157437,15.3177469 14.1468559,14.5047897 Z M18.4365046,12.9723458 C17.6082611,12.9874027 16.9083996,13.6838501 16.9230955,14.4785776 C16.9382074,15.3023237 17.6247595,15.9467566 18.4764333,15.9366274 C19.3303255,15.9264983 19.9779193,15.2752214 19.9698781,14.4340915 C19.9628074,13.608429 19.2793055,12.9571521 18.4365046,12.9723458 Z" id="Shape" fill="#FFFFFF"></path>
                <path d="M26.8946432,27.4301524 C26.2500724,27.1431347 25.6588025,26.7125241 25.0292804,26.6467807 C24.4021963,26.5812896 23.7429972,26.9430462 23.0869087,27.0101347 C21.0884618,27.2145949 19.2980901,26.6576259 17.8218069,25.2924002 C15.0140946,22.6954533 15.4152804,18.7135241 18.6636919,16.5853559 C21.5507671,14.6939312 25.7848246,15.3244621 27.8203468,17.9489002 C29.5966786,20.2389887 29.3879308,23.2789887 27.2194087,25.2028648 C26.5919043,25.7596657 26.3660901,26.2178515 26.7687052,26.9518736 C26.8430238,27.0873958 26.8515149,27.2589843 26.8946432,27.4301524 Z M20.1001302,21.1971056 C20.8027066,21.1977673 21.3812057,20.692234 21.4078348,20.0542298 C21.4359034,19.3787738 20.8450252,18.8122324 20.1093424,18.8094533 C19.3810006,18.8064095 18.7708343,19.3808912 18.796168,20.0462895 C18.8200622,20.6820439 19.4025917,21.1963116 20.1001302,21.1971056 Z M24.8499086,18.8111405 C24.1544192,18.8067537 23.5634882,19.3221394 23.5351458,19.9582293 C23.5050413,20.6384534 24.0890703,21.1970427 24.832727,21.1987709 C25.5520063,21.2008978 26.1203222,20.7085097 26.1464618,20.0605886 C26.1743636,19.3787694 25.5900409,18.8157932 24.8499086,18.8111405 Z" id="Shape" fill="#FFFFFF"></path>
            </g>
        </g>
    </g>
</svg>