<?xml version="1.0" encoding="UTF-8"?>
<svg width="36px" height="36px" viewBox="0 0 36 36" version="1.1" xmlns="http://www.w3.org/2000/svg" xmlns:xlink="http://www.w3.org/1999/xlink">
    <!-- Generator: Sketch 51.3 (57544) - http://www.bohemiancoding.com/sketch -->
    <title>YOUTUBE</title>
    <desc>Created with Sketch.</desc>
    <defs></defs>
    <g id="_BRAND-ASSETS" stroke="none" stroke-width="1" fill="none" fill-rule="evenodd">
        <g id="SOCIAL-MEDIA-ICONS" transform="translate(-23.000000, -27.000000)" fill-rule="nonzero">
            <g id="YOUTUBE" transform="translate(23.000000, 27.000000)">
                <circle id="Oval-2" fill="#F61C0D" cx="17.5925926" cy="17.5925926" r="17.5925926"></circle>
                <path d="M23.7636409,9.85185185 L11.4215443,9.85185185 C9.00004555,9.85185185 7.03703704,11.8148604 7.03703704,14.2363591 L7.03703704,20.4061023 C7.03703704,22.827601 9.00004555,24.7906095 11.4215443,24.7906095 L23.7636409,24.7906095 C26.1851396,24.7906095 28.1481481,22.827601 28.1481481,20.4061023 L28.1481481,14.2363591 C28.1481481,11.8148604 26.1851396,9.85185185 23.7636409,9.85185185 Z M20.7984292,17.6214108 L15.025629,20.3746875 C14.8718067,20.4480496 14.6941258,20.3359 14.6941258,20.1655002 L14.6941258,14.4868526 C14.6941258,14.3140258 14.8764777,14.2020135 15.0306206,14.2801382 L20.8034208,17.2055091 C20.9750569,17.292472 20.9720803,17.5386151 20.7984292,17.6214108 Z" id="Icon" fill="#FFFFFF"></path>
            </g>
        </g>
    </g>
</svg>