<?xml version="1.0" encoding="UTF-8"?>
<svg width="84px" height="24px" viewBox="0 0 84 24" version="1.1" xmlns="http://www.w3.org/2000/svg" xmlns:xlink="http://www.w3.org/1999/xlink">
    <!-- Generator: Sketch 51.3 (57544) - http://www.bohemiancoding.com/sketch -->
    <title>logo-horizontal-light-v2</title>
    <desc>Created with Sketch.</desc>
    <defs>
        <linearGradient x1="-268.964683%" y1="-97.7690612%" x2="918.630118%" y2="452.930141%" id="linearGradient-1">
            <stop stop-color="#FEB454" offset="0%"></stop>
            <stop stop-color="#FF364A" offset="53%"></stop>
            <stop stop-color="#0065F3" offset="100%"></stop>
        </linearGradient>
        <linearGradient x1="-365.30092%" y1="-163.613531%" x2="787.974945%" y2="371.123375%" id="linearGradient-2">
            <stop stop-color="#FEB454" offset="0%"></stop>
            <stop stop-color="#FF364A" offset="53%"></stop>
            <stop stop-color="#0065F3" offset="100%"></stop>
        </linearGradient>
        <linearGradient x1="-427.942232%" y1="-151.144064%" x2="869.937652%" y2="450.876364%" id="linearGradient-3">
            <stop stop-color="#FEB454" offset="0%"></stop>
            <stop stop-color="#FF364A" offset="53%"></stop>
            <stop stop-color="#0065F3" offset="100%"></stop>
        </linearGradient>
        <linearGradient x1="-480.075025%" y1="-195.837971%" x2="861.324408%" y2="426.582246%" id="linearGradient-4">
            <stop stop-color="#FEB454" offset="0%"></stop>
            <stop stop-color="#FF364A" offset="53%"></stop>
            <stop stop-color="#0065F3" offset="100%"></stop>
        </linearGradient>
        <linearGradient x1="-357.408593%" y1="-159.57168%" x2="940.471291%" y2="441.99542%" id="linearGradient-5">
            <stop stop-color="#FEB454" offset="0%"></stop>
            <stop stop-color="#FF364A" offset="53%"></stop>
            <stop stop-color="#0065F3" offset="100%"></stop>
        </linearGradient>
        <linearGradient x1="-333.382176%" y1="-128.930961%" x2="1008.01726%" y2="493.035927%" id="linearGradient-6">
            <stop stop-color="#FEB454" offset="0%"></stop>
            <stop stop-color="#FF364A" offset="53%"></stop>
            <stop stop-color="#0065F3" offset="100%"></stop>
        </linearGradient>
        <linearGradient x1="-699.148552%" y1="-297.297758%" x2="488.845306%" y2="253.401444%" id="linearGradient-7">
            <stop stop-color="#FEB454" offset="0%"></stop>
            <stop stop-color="#FF364A" offset="53%"></stop>
            <stop stop-color="#0065F3" offset="100%"></stop>
        </linearGradient>
        <linearGradient x1="-783.11401%" y1="-357.156366%" x2="370.161855%" y2="177.58054%" id="linearGradient-8">
            <stop stop-color="#FEB454" offset="0%"></stop>
            <stop stop-color="#FF364A" offset="53%"></stop>
            <stop stop-color="#0065F3" offset="100%"></stop>
        </linearGradient>
        <linearGradient x1="-896.684042%" y1="-369.195138%" x2="401.195843%" y2="232.82529%" id="linearGradient-9">
            <stop stop-color="#FEB454" offset="0%"></stop>
            <stop stop-color="#FF364A" offset="53%"></stop>
            <stop stop-color="#0065F3" offset="100%"></stop>
        </linearGradient>
        <linearGradient x1="-966.043323%" y1="-420.688974%" x2="375.35611%" y2="201.277914%" id="linearGradient-10">
            <stop stop-color="#FEB454" offset="0%"></stop>
            <stop stop-color="#FF364A" offset="53%"></stop>
            <stop stop-color="#0065F3" offset="100%"></stop>
        </linearGradient>
        <linearGradient x1="-827.05706%" y1="-377.622754%" x2="470.369495%" y2="224.397675%" id="linearGradient-11">
            <stop stop-color="#FEB454" offset="0%"></stop>
            <stop stop-color="#FF364A" offset="53%"></stop>
            <stop stop-color="#0065F3" offset="100%"></stop>
        </linearGradient>
        <linearGradient x1="-819.803802%" y1="-354.235293%" x2="521.595631%" y2="267.731595%" id="linearGradient-12">
            <stop stop-color="#FEB454" offset="0%"></stop>
            <stop stop-color="#FF364A" offset="53%"></stop>
            <stop stop-color="#0065F3" offset="100%"></stop>
        </linearGradient>
        <linearGradient x1="-168.634198%" y1="-51.5698828%" x2="1020.59654%" y2="500.917373%" id="linearGradient-13">
            <stop stop-color="#FEB454" offset="0%"></stop>
            <stop stop-color="#FF364A" offset="53%"></stop>
            <stop stop-color="#0065F3" offset="100%"></stop>
        </linearGradient>
        <linearGradient x1="-269.327658%" y1="-118.919103%" x2="886.671912%" y2="415.817803%" id="linearGradient-14">
            <stop stop-color="#FEB454" offset="0%"></stop>
            <stop stop-color="#FF364A" offset="53%"></stop>
            <stop stop-color="#0065F3" offset="100%"></stop>
        </linearGradient>
        <linearGradient x1="-226.47483%" y1="-56.8295553%" x2="936.072334%" y2="478.306408%" id="linearGradient-15">
            <stop stop-color="#FEB454" offset="0%"></stop>
            <stop stop-color="#FF364A" offset="53%"></stop>
            <stop stop-color="#0065F3" offset="100%"></stop>
        </linearGradient>
        <linearGradient x1="-341.756534%" y1="-132.251403%" x2="846.237324%" y2="418.846857%" id="linearGradient-16">
            <stop stop-color="#FEB454" offset="0%"></stop>
            <stop stop-color="#FF364A" offset="53%"></stop>
            <stop stop-color="#0065F3" offset="100%"></stop>
        </linearGradient>
        <linearGradient x1="-319.14336%" y1="-100.824586%" x2="978.736525%" y2="501.195843%" id="linearGradient-17">
            <stop stop-color="#FEB454" offset="0%"></stop>
            <stop stop-color="#FF364A" offset="53%"></stop>
            <stop stop-color="#0065F3" offset="100%"></stop>
        </linearGradient>
        <linearGradient x1="-373.540798%" y1="-144.587778%" x2="985.216126%" y2="481.655184%" id="linearGradient-18">
            <stop stop-color="#FEB454" offset="0%"></stop>
            <stop stop-color="#FF364A" offset="53%"></stop>
            <stop stop-color="#0065F3" offset="100%"></stop>
        </linearGradient>
        <linearGradient x1="-248.609721%" y1="-109.252201%" x2="1049.27016%" y2="492.768227%" id="linearGradient-19">
            <stop stop-color="#FEB454" offset="0%"></stop>
            <stop stop-color="#FF364A" offset="53%"></stop>
            <stop stop-color="#0065F3" offset="100%"></stop>
        </linearGradient>
        <linearGradient x1="-220.956674%" y1="-76.3448393%" x2="1120.89609%" y2="545.622049%" id="linearGradient-20">
            <stop stop-color="#FEB454" offset="0%"></stop>
            <stop stop-color="#FF364A" offset="53%"></stop>
            <stop stop-color="#0065F3" offset="100%"></stop>
        </linearGradient>
        <linearGradient x1="-384.292269%" y1="-151.242752%" x2="803.701589%" y2="399.45645%" id="linearGradient-21">
            <stop stop-color="#FEB454" offset="0%"></stop>
            <stop stop-color="#FF364A" offset="53%"></stop>
            <stop stop-color="#0065F3" offset="100%"></stop>
        </linearGradient>
        <linearGradient x1="-477.436047%" y1="-215.490992%" x2="675.839818%" y2="319.245914%" id="linearGradient-22">
            <stop stop-color="#FEB454" offset="0%"></stop>
            <stop stop-color="#FF364A" offset="53%"></stop>
            <stop stop-color="#0065F3" offset="100%"></stop>
        </linearGradient>
        <linearGradient x1="-552.607607%" y1="-209.623458%" x2="745.272277%" y2="391.943641%" id="linearGradient-23">
            <stop stop-color="#FEB454" offset="0%"></stop>
            <stop stop-color="#FF364A" offset="53%"></stop>
            <stop stop-color="#0065F3" offset="100%"></stop>
        </linearGradient>
        <linearGradient x1="-612.446987%" y1="-256.130679%" x2="729.405775%" y2="365.836209%" id="linearGradient-24">
            <stop stop-color="#FEB454" offset="0%"></stop>
            <stop stop-color="#FF364A" offset="53%"></stop>
            <stop stop-color="#0065F3" offset="100%"></stop>
        </linearGradient>
        <linearGradient x1="-483.433954%" y1="-218.051074%" x2="814.44593%" y2="383.516026%" id="linearGradient-25">
            <stop stop-color="#FEB454" offset="0%"></stop>
            <stop stop-color="#FF364A" offset="53%"></stop>
            <stop stop-color="#0065F3" offset="100%"></stop>
        </linearGradient>
        <linearGradient x1="-463.940823%" y1="-189.22367%" x2="877.911939%" y2="433.196547%" id="linearGradient-26">
            <stop stop-color="#FEB454" offset="0%"></stop>
            <stop stop-color="#FF364A" offset="53%"></stop>
            <stop stop-color="#0065F3" offset="100%"></stop>
        </linearGradient>
        <linearGradient x1="-599.384204%" y1="-251.0071%" x2="588.210597%" y2="299.692102%" id="linearGradient-27">
            <stop stop-color="#FEB454" offset="0%"></stop>
            <stop stop-color="#FF364A" offset="53%"></stop>
            <stop stop-color="#0065F3" offset="100%"></stop>
        </linearGradient>
        <linearGradient x1="-686.143064%" y1="-312.461939%" x2="466.733744%" y2="222.274968%" id="linearGradient-28">
            <stop stop-color="#FEB454" offset="0%"></stop>
            <stop stop-color="#FF364A" offset="53%"></stop>
            <stop stop-color="#0065F3" offset="100%"></stop>
        </linearGradient>
        <linearGradient x1="-642.083345%" y1="-250.372391%" x2="511.19252%" y2="284.364515%" id="linearGradient-29">
            <stop stop-color="#FEB454" offset="0%"></stop>
            <stop stop-color="#FF364A" offset="53%"></stop>
            <stop stop-color="#0065F3" offset="100%"></stop>
        </linearGradient>
        <linearGradient x1="-771.541346%" y1="-331.381042%" x2="416.053455%" y2="219.31816%" id="linearGradient-30">
            <stop stop-color="#FEB454" offset="0%"></stop>
            <stop stop-color="#FF364A" offset="53%"></stop>
            <stop stop-color="#0065F3" offset="100%"></stop>
        </linearGradient>
        <linearGradient x1="-787.885169%" y1="-318.875659%" x2="509.994715%" y2="283.144769%" id="linearGradient-31">
            <stop stop-color="#FEB454" offset="0%"></stop>
            <stop stop-color="#FF364A" offset="53%"></stop>
            <stop stop-color="#0065F3" offset="100%"></stop>
        </linearGradient>
        <linearGradient x1="-853.617821%" y1="-368.556181%" x2="487.781612%" y2="253.410707%" id="linearGradient-32">
            <stop stop-color="#FEB454" offset="0%"></stop>
            <stop stop-color="#FF364A" offset="53%"></stop>
            <stop stop-color="#0065F3" offset="100%"></stop>
        </linearGradient>
        <linearGradient x1="-718.258188%" y1="-327.303275%" x2="579.621697%" y2="274.717153%" id="linearGradient-33">
            <stop stop-color="#FEB454" offset="0%"></stop>
            <stop stop-color="#FF364A" offset="53%"></stop>
            <stop stop-color="#0065F3" offset="100%"></stop>
        </linearGradient>
        <linearGradient x1="-707.3783%" y1="-301.649171%" x2="634.021133%" y2="320.317717%" id="linearGradient-34">
            <stop stop-color="#FEB454" offset="0%"></stop>
            <stop stop-color="#FF364A" offset="53%"></stop>
            <stop stop-color="#0065F3" offset="100%"></stop>
        </linearGradient>
        <linearGradient x1="-127.698366%" y1="-11.3370126%" x2="1025.17844%" y2="523.399894%" id="linearGradient-35">
            <stop stop-color="#FEB454" offset="0%"></stop>
            <stop stop-color="#FF364A" offset="53%"></stop>
            <stop stop-color="#0065F3" offset="100%"></stop>
        </linearGradient>
        <linearGradient x1="-241.992186%" y1="-85.5616876%" x2="945.602615%" y2="465.137514%" id="linearGradient-36">
            <stop stop-color="#FEB454" offset="0%"></stop>
            <stop stop-color="#FF364A" offset="53%"></stop>
            <stop stop-color="#0065F3" offset="100%"></stop>
        </linearGradient>
        <linearGradient x1="-209.891158%" y1="-50.5051071%" x2="1087.5354%" y2="551.515321%" id="linearGradient-37">
            <stop stop-color="#FEB454" offset="0%"></stop>
            <stop stop-color="#FF364A" offset="53%"></stop>
            <stop stop-color="#0065F3" offset="100%"></stop>
        </linearGradient>
        <linearGradient x1="-254.770693%" y1="-91.1190558%" x2="1086.62874%" y2="531.301161%" id="linearGradient-38">
            <stop stop-color="#FEB454" offset="0%"></stop>
            <stop stop-color="#FF364A" offset="53%"></stop>
            <stop stop-color="#0065F3" offset="100%"></stop>
        </linearGradient>
        <linearGradient x1="-139.810848%" y1="-58.479394%" x2="1158.06904%" y2="543.541034%" id="linearGradient-39">
            <stop stop-color="#FEB454" offset="0%"></stop>
            <stop stop-color="#FF364A" offset="53%"></stop>
            <stop stop-color="#0065F3" offset="100%"></stop>
        </linearGradient>
        <linearGradient x1="-108.077844%" y1="-24.2120462%" x2="1233.32159%" y2="597.754842%" id="linearGradient-40">
            <stop stop-color="#FEB454" offset="0%"></stop>
            <stop stop-color="#FF364A" offset="53%"></stop>
            <stop stop-color="#0065F3" offset="100%"></stop>
        </linearGradient>
        <linearGradient x1="-336.804439%" y1="-108.307959%" x2="816.471426%" y2="426.428947%" id="linearGradient-41">
            <stop stop-color="#FEB454" offset="0%"></stop>
            <stop stop-color="#FF364A" offset="53%"></stop>
            <stop stop-color="#0065F3" offset="100%"></stop>
        </linearGradient>
        <linearGradient x1="-457.08412%" y1="-185.326036%" x2="730.510681%" y2="365.772224%" id="linearGradient-42">
            <stop stop-color="#FEB454" offset="0%"></stop>
            <stop stop-color="#FF364A" offset="53%"></stop>
            <stop stop-color="#0065F3" offset="100%"></stop>
        </linearGradient>
        <linearGradient x1="-545.112398%" y1="-205.278905%" x2="607.764409%" y2="329.857058%" id="linearGradient-43">
            <stop stop-color="#FEB454" offset="0%"></stop>
            <stop stop-color="#FF364A" offset="53%"></stop>
            <stop stop-color="#0065F3" offset="100%"></stop>
        </linearGradient>
        <linearGradient x1="-671.776998%" y1="-285.090384%" x2="515.817803%" y2="266.007875%" id="linearGradient-44">
            <stop stop-color="#FEB454" offset="0%"></stop>
            <stop stop-color="#FF364A" offset="53%"></stop>
            <stop stop-color="#0065F3" offset="100%"></stop>
        </linearGradient>
        <linearGradient x1="-679.086296%" y1="-268.102852%" x2="618.793588%" y2="333.464247%" id="linearGradient-45">
            <stop stop-color="#FEB454" offset="0%"></stop>
            <stop stop-color="#FF364A" offset="53%"></stop>
            <stop stop-color="#0065F3" offset="100%"></stop>
        </linearGradient>
        <linearGradient x1="-741.192319%" y1="-315.970059%" x2="600.660442%" y2="305.996829%" id="linearGradient-46">
            <stop stop-color="#FEB454" offset="0%"></stop>
            <stop stop-color="#FF364A" offset="53%"></stop>
            <stop stop-color="#0065F3" offset="100%"></stop>
        </linearGradient>
        <linearGradient x1="-609.459315%" y1="-276.530468%" x2="688.420569%" y2="325.48996%" id="linearGradient-47">
            <stop stop-color="#FEB454" offset="0%"></stop>
            <stop stop-color="#FF364A" offset="53%"></stop>
            <stop stop-color="#0065F3" offset="100%"></stop>
        </linearGradient>
        <linearGradient x1="-594.952799%" y1="-249.516378%" x2="746.899963%" y2="372.45051%" id="linearGradient-48">
            <stop stop-color="#FEB454" offset="0%"></stop>
            <stop stop-color="#FF364A" offset="53%"></stop>
            <stop stop-color="#0065F3" offset="100%"></stop>
        </linearGradient>
    </defs>
    <g id="---Header-Nav" stroke="none" stroke-width="1" fill="none" fill-rule="evenodd">
        <g id="Mobile" transform="translate(-19.000000, -13.000000)" fill-rule="nonzero">
            <g id="logo-horizontal-light-v2" transform="translate(18.000000, 13.000000)">
                <path d="M1.40210526,16.5221053 L4.30736842,16.5221053 C4.35779385,16.528621 4.4006336,16.5621586 4.41906205,16.609546 C4.4374905,16.6569335 4.42856438,16.7106023 4.39578947,16.7494737 L1.49052632,19.6547368 C1.45165494,19.6875117 1.39798613,19.6964379 1.35059868,19.6780094 C1.30321123,19.659581 1.26967359,19.6167412 1.26315789,19.5663158 L1.26315789,16.6610526 C1.26315789,16.5843141 1.32536675,16.5221053 1.40210526,16.5221053 Z" id="Shape" fill="url(#linearGradient-1)"></path>
                <path d="M6.22736842,16.5221053 L9.13263158,16.5221053 C9.20937009,16.5221053 9.27157895,16.5843141 9.27157895,16.6610526 L9.27157895,19.5663158 C9.26506326,19.6167412 9.23152561,19.659581 9.18413816,19.6780094 C9.13675072,19.6964379 9.0830819,19.6875117 9.04421053,19.6547368 L6.13894737,16.7494737 C6.10617247,16.7106023 6.09724634,16.6569335 6.11567479,16.609546 C6.13410325,16.5621586 6.17694299,16.528621 6.22736842,16.5221053 Z" id="Shape" fill="url(#linearGradient-2)"></path>
                <path d="M5.63368421,20.0589474 L5.63368421,17.5326316 C5.6401999,17.4822061 5.67373754,17.4393664 5.72112499,17.420938 C5.76851244,17.4025095 5.82218125,17.4114356 5.86105263,17.4442105 L8.38736842,19.9705263 C8.42014332,20.0093977 8.42906945,20.0630665 8.410641,20.110454 C8.39221254,20.1578414 8.3493728,20.191379 8.29894737,20.1978947 L5.77263158,20.1978947 C5.69589307,20.1978947 5.63368421,20.1356859 5.63368421,20.0589474 Z" id="Shape" fill="url(#linearGradient-3)"></path>
                <path d="M5.73473684,20.8673684 L8.26105263,20.8673684 C8.31147806,20.8738841 8.35431781,20.9074218 8.37274626,20.9548092 C8.39117471,21.0021967 8.38224859,21.0558655 8.34947368,21.0947368 L5.82315789,23.6210526 C5.78428652,23.6538275 5.73061771,23.6627537 5.68323026,23.6443252 C5.63584281,23.6258968 5.60230517,23.583057 5.59578947,23.5326316 L5.59578947,21.0063158 C5.59578947,20.9295773 5.65799833,20.8673684 5.73473684,20.8673684 Z" id="Shape" fill="url(#linearGradient-4)"></path>
                <path d="M2.23578947,20.8673684 L4.76210526,20.8673684 C4.83884378,20.8673684 4.90105263,20.9295773 4.90105263,21.0063158 L4.90105263,23.5326316 C4.89453694,23.583057 4.8609993,23.6258968 4.81361185,23.6443252 C4.7662244,23.6627537 4.71255559,23.6538275 4.67368421,23.6210526 L2.14736842,21.0947368 C2.11459352,21.0558655 2.10566739,21.0021967 2.12409585,20.9548092 C2.1425243,20.9074218 2.18536404,20.8738841 2.23578947,20.8673684 Z" id="Shape" fill="url(#linearGradient-5)"></path>
                <path d="M2.13473684,19.9705263 L4.66105263,17.4442105 C4.69992401,17.4114356 4.75359282,17.4025095 4.80098027,17.420938 C4.84836772,17.4393664 4.88190536,17.4822061 4.88842105,17.5326316 L4.88842105,20.0589474 C4.88842105,20.1356859 4.8262122,20.1978947 4.74947368,20.1978947 L2.22315789,20.1978947 C2.17273247,20.191379 2.12989272,20.1578414 2.11146427,20.110454 C2.09303582,20.0630665 2.10196194,20.0093977 2.13473684,19.9705263 Z" id="Shape" fill="url(#linearGradient-6)"></path>
                <path d="M18.7705263,16.5221053 L21.6757895,16.5221053 C21.7262149,16.528621 21.7690546,16.5621586 21.7874831,16.609546 C21.8059116,16.6569335 21.7969854,16.7106023 21.7642105,16.7494737 L18.8589474,19.6547368 C18.820076,19.6875117 18.7664072,19.6964379 18.7190197,19.6780094 C18.6716323,19.659581 18.6380946,19.6167412 18.6315789,19.5663158 L18.6315789,16.6610526 C18.6315789,16.5843141 18.6937878,16.5221053 18.7705263,16.5221053 Z" id="Shape" fill="url(#linearGradient-7)"></path>
                <path d="M23.6084211,16.5221053 L26.5136842,16.5221053 C26.5904227,16.5221053 26.6526316,16.5843141 26.6526316,16.6610526 L26.6526316,19.5663158 C26.6461159,19.6167412 26.6125782,19.659581 26.5651908,19.6780094 C26.5178033,19.6964379 26.4641345,19.6875117 26.4252632,19.6547368 L23.52,16.7494737 C23.4872251,16.7106023 23.478299,16.6569335 23.4967274,16.609546 C23.5151559,16.5621586 23.5579956,16.528621 23.6084211,16.5221053 Z" id="Shape" fill="url(#linearGradient-8)"></path>
                <path d="M22.9768421,20.0589474 L22.9768421,17.5326316 C22.9833578,17.4822061 23.0168954,17.4393664 23.0642829,17.420938 C23.1116703,17.4025095 23.1653391,17.4114356 23.2042105,17.4442105 L25.7305263,19.9705263 C25.7633012,20.0093977 25.7722273,20.0630665 25.7537989,20.110454 C25.7353704,20.1578414 25.6925307,20.191379 25.6421053,20.1978947 L23.1157895,20.1978947 C23.039051,20.1978947 22.9768421,20.1356859 22.9768421,20.0589474 Z" id="Shape" fill="url(#linearGradient-9)"></path>
                <path d="M23.1157895,20.8673684 L25.6421053,20.8673684 C25.6925307,20.8738841 25.7353704,20.9074218 25.7537989,20.9548092 C25.7722273,21.0021967 25.7633012,21.0558655 25.7305263,21.0947368 L23.2042105,23.6210526 C23.1653391,23.6538275 23.1116703,23.6627537 23.0642829,23.6443252 C23.0168954,23.6258968 22.9833578,23.583057 22.9768421,23.5326316 L22.9768421,21.0063158 C22.9768421,20.9295773 23.039051,20.8673684 23.1157895,20.8673684 Z" id="Shape" fill="url(#linearGradient-10)"></path>
                <path d="M19.6042105,20.8673684 L22.1305263,20.8673684 C22.2072648,20.8673684 22.2694737,20.9295773 22.2694737,21.0063158 L22.2694737,23.5326316 C22.262958,23.583057 22.2294204,23.6258968 22.1820329,23.6443252 C22.1346455,23.6627537 22.0809766,23.6538275 22.0421053,23.6210526 L19.5157895,21.0947368 C19.4830146,21.0558655 19.4740884,21.0021967 19.4925169,20.9548092 C19.5109454,20.9074218 19.5537851,20.8738841 19.6042105,20.8673684 Z" id="Shape" fill="url(#linearGradient-11)"></path>
                <path d="M19.5284211,19.9705263 L22.0547368,17.4442105 C22.0936082,17.4114356 22.147277,17.4025095 22.1946645,17.420938 C22.2420519,17.4393664 22.2755896,17.4822061 22.2821053,17.5326316 L22.2821053,20.0589474 C22.2821053,20.1356859 22.2198964,20.1978947 22.1431579,20.1978947 L19.6168421,20.1978947 C19.5664167,20.191379 19.5235769,20.1578414 19.5051485,20.110454 C19.48672,20.0630665 19.4956461,20.0093977 19.5284211,19.9705263 Z" id="Shape" fill="url(#linearGradient-12)"></path>
                <path d="M1.40210526,7.84421053 L4.30736842,7.84421053 C4.34889783,7.85928996 4.38078025,7.89322143 4.39324702,7.93560846 C4.4057138,7.97799549 4.39727874,8.02378505 4.37052632,8.05894737 L1.46526316,10.9642105 C1.42639178,10.9969854 1.37272297,11.0059116 1.32533552,10.9874831 C1.27794807,10.9690546 1.24441043,10.9262149 1.23789474,10.8757895 L1.23789474,7.97052632 C1.24081095,7.9310836 1.2603976,7.89475274 1.29174618,7.87063845 C1.32309475,7.84652416 1.36323417,7.83691189 1.40210526,7.84421053 Z" id="Shape" fill="url(#linearGradient-13)"></path>
                <path d="M6.22736842,7.84421053 L9.13263158,7.84421053 C9.20937009,7.84421053 9.27157895,7.90641938 9.27157895,7.98315789 L9.27157895,10.8884211 C9.26506326,10.9388465 9.23152561,10.9816862 9.18413816,11.0001147 C9.13675072,11.0185431 9.0830819,11.009617 9.04421053,10.9768421 L6.13894737,8.05894737 C6.11258143,8.02030461 6.10743046,7.9709883 6.12524217,7.92773129 C6.14305387,7.88447429 6.18143706,7.8530838 6.22736842,7.84421053 Z" id="Shape" fill="url(#linearGradient-14)"></path>
                <path d="M1.26315789,15.7263158 L1.26315789,12.8210526 C1.26967359,12.7706272 1.30321123,12.7277875 1.35059868,12.709359 C1.39798613,12.6909306 1.45165494,12.6998567 1.49052632,12.7326316 L4.37052632,15.6378947 C4.40330122,15.6767661 4.41222734,15.7304349 4.39379889,15.7778224 C4.37537044,15.8252098 4.33253069,15.8587475 4.28210526,15.8652632 L1.37684211,15.8652632 C1.31009621,15.8529316 1.26202829,15.7941819 1.26315789,15.7263158 Z" id="Shape" fill="url(#linearGradient-15)"></path>
                <path d="M6.13894737,15.6378947 L9.04421053,12.7326316 C9.0830819,12.6998567 9.13675072,12.6909306 9.18413816,12.709359 C9.23152561,12.7277875 9.26506326,12.7706272 9.27157895,12.8210526 L9.27157895,15.7263158 C9.27157895,15.8030543 9.20937009,15.8652632 9.13263158,15.8652632 L6.22736842,15.8652632 C6.17694299,15.8587475 6.13410325,15.8252098 6.11567479,15.7778224 C6.09724634,15.7304349 6.10617247,15.6767661 6.13894737,15.6378947 Z" id="Shape" fill="url(#linearGradient-16)"></path>
                <path d="M5.63368421,11.3810526 L5.63368421,8.85473684 C5.6401999,8.80431141 5.67373754,8.76147167 5.72112499,8.74304322 C5.76851244,8.72461476 5.82218125,8.73354089 5.86105263,8.76631579 L8.38736842,11.2926316 C8.42014332,11.331503 8.42906945,11.3851718 8.410641,11.4325592 C8.39221254,11.4799467 8.3493728,11.5134843 8.29894737,11.52 L5.77263158,11.52 C5.69589307,11.52 5.63368421,11.4577911 5.63368421,11.3810526 Z" id="Shape" fill="url(#linearGradient-17)"></path>
                <path d="M5.73473684,12.1894737 L8.26105263,12.1894737 C8.31147806,12.1959894 8.35431781,12.229527 8.37274626,12.2769145 C8.39117471,12.3243019 8.38224859,12.3779707 8.34947368,12.4168421 L5.82315789,14.9431579 C5.78976763,14.9605488 5.75074957,14.9636461 5.71503375,14.9517409 C5.67931793,14.9398356 5.64996185,14.9139469 5.63368421,14.88 L5.63368421,12.3536842 C5.61773074,12.2806793 5.66237574,12.2081312 5.73473684,12.1894737 Z" id="Shape" fill="url(#linearGradient-18)"></path>
                <path d="M2.23578947,12.1894737 L4.76210526,12.1894737 C4.83884378,12.1894737 4.90105263,12.2516825 4.90105263,12.3284211 L4.90105263,14.8547368 C4.89453694,14.9051623 4.8609993,14.948002 4.81361185,14.9664305 C4.7662244,14.9848589 4.71255559,14.9759328 4.67368421,14.9431579 L2.14736842,12.4168421 C2.11459352,12.3779707 2.10566739,12.3243019 2.12409585,12.2769145 C2.1425243,12.229527 2.18536404,12.1959894 2.23578947,12.1894737 Z" id="Shape" fill="url(#linearGradient-19)"></path>
                <path d="M2.13473684,11.28 L4.66105263,8.75368421 C4.69992401,8.72090931 4.75359282,8.71198318 4.80098027,8.73041164 C4.84836772,8.74884009 4.88190536,8.79167983 4.88842105,8.84210526 L4.88842105,11.3684211 C4.88842105,11.4451596 4.8262122,11.5073684 4.74947368,11.5073684 L2.22315789,11.5073684 C2.17273247,11.5008527 2.12989272,11.4673151 2.11146427,11.4199276 C2.09303582,11.3725402 2.10196194,11.3188714 2.13473684,11.28 Z" id="Shape" fill="url(#linearGradient-20)"></path>
                <path d="M10.08,7.84421053 L12.9852632,7.84421053 C13.0356886,7.85072622 13.0785283,7.88426386 13.0969568,7.93165131 C13.1153852,7.97903876 13.1064591,8.03270757 13.0736842,8.07157895 L10.1684211,10.9768421 C10.1295497,11.009617 10.0758809,11.0185431 10.0284934,11.0001147 C9.98110596,10.9816862 9.94756832,10.9388465 9.94105263,10.8884211 L9.94105263,7.98315789 C9.94105263,7.94630676 9.95569169,7.91096495 9.98174937,7.88490727 C10.0078071,7.85884958 10.0431489,7.84421053 10.08,7.84421053 Z" id="Shape" fill="url(#linearGradient-21)"></path>
                <path d="M14.9178947,7.84421053 L17.8231579,7.84421053 C17.8998964,7.84421053 17.9621053,7.90641938 17.9621053,7.98315789 L17.9621053,10.8884211 C17.9555896,10.9388465 17.9220519,10.9816862 17.8746645,11.0001147 C17.827277,11.0185431 17.7736082,11.009617 17.7347368,10.9768421 L14.8294737,8.07157895 C14.7966988,8.03270757 14.7877727,7.97903876 14.8062011,7.93165131 C14.8246296,7.88426386 14.8674693,7.85072622 14.9178947,7.84421053 Z" id="Shape" fill="url(#linearGradient-22)"></path>
                <path d="M14.2863158,11.3810526 L14.2863158,8.85473684 C14.2928315,8.80431141 14.3263691,8.76147167 14.3737566,8.74304322 C14.421144,8.72461476 14.4748128,8.73354089 14.5136842,8.76631579 L17.04,11.2926316 C17.0727749,11.331503 17.081701,11.3851718 17.0632726,11.4325592 C17.0448441,11.4799467 17.0020044,11.5134843 16.9515789,11.52 L14.4252632,11.52 C14.388412,11.52 14.3530702,11.5053609 14.3270125,11.4793033 C14.3009548,11.4532456 14.2863158,11.4179038 14.2863158,11.3810526 Z" id="Shape" fill="url(#linearGradient-23)"></path>
                <path d="M14.4757895,12.1894737 L17.0021053,12.1894737 C17.0525307,12.1959894 17.0953704,12.229527 17.1137989,12.2769145 C17.1322273,12.3243019 17.1233012,12.3779707 17.0905263,12.4168421 L14.5642105,14.9431579 C14.5253391,14.9759328 14.4716703,14.9848589 14.4242829,14.9664305 C14.3768954,14.948002 14.3433578,14.9051623 14.3368421,14.8547368 L14.3368421,12.3284211 C14.3368421,12.2516825 14.399051,12.1894737 14.4757895,12.1894737 Z" id="Shape" fill="url(#linearGradient-24)"></path>
                <path d="M10.9136842,12.1894737 L13.44,12.1894737 C13.5167385,12.1894737 13.5789474,12.2516825 13.5789474,12.3284211 L13.5789474,14.8547368 C13.5724317,14.9051623 13.538894,14.948002 13.4915066,14.9664305 C13.4441191,14.9848589 13.3904503,14.9759328 13.3515789,14.9431579 L10.8252632,12.4168421 C10.7924883,12.3779707 10.7835621,12.3243019 10.8019906,12.2769145 C10.820419,12.229527 10.8632588,12.1959894 10.9136842,12.1894737 Z" id="Shape" fill="url(#linearGradient-25)"></path>
                <path d="M10.8252632,11.28 L13.3515789,8.75368421 C13.3904503,8.72090931 13.4441191,8.71198318 13.4915066,8.73041164 C13.538894,8.74884009 13.5724317,8.79167983 13.5789474,8.84210526 L13.5789474,11.3684211 C13.5789474,11.4451596 13.5167385,11.5073684 13.44,11.5073684 L10.9136842,11.5073684 C10.8632588,11.5008527 10.820419,11.4673151 10.8019906,11.4199276 C10.7835621,11.3725402 10.7924883,11.3188714 10.8252632,11.28 Z" id="Shape" fill="url(#linearGradient-26)"></path>
                <path d="M18.7705263,7.84421053 L21.6757895,7.84421053 C21.7262149,7.85072622 21.7690546,7.88426386 21.7874831,7.93165131 C21.8059116,7.97903876 21.7969854,8.03270757 21.7642105,8.07157895 L18.8589474,10.9768421 C18.820076,11.009617 18.7664072,11.0185431 18.7190197,11.0001147 C18.6716323,10.9816862 18.6380946,10.9388465 18.6315789,10.8884211 L18.6315789,7.98315789 C18.6315789,7.90641938 18.6937878,7.84421053 18.7705263,7.84421053 Z" id="Shape" fill="url(#linearGradient-27)"></path>
                <path d="M23.6084211,7.84421053 L26.5136842,7.84421053 C26.5904227,7.84421053 26.6526316,7.90641938 26.6526316,7.98315789 L26.6526316,10.8884211 C26.6461159,10.9388465 26.6125782,10.9816862 26.5651908,11.0001147 C26.5178033,11.0185431 26.4641345,11.009617 26.4252632,10.9768421 L23.52,8.07157895 C23.4872251,8.03270757 23.478299,7.97903876 23.4967274,7.93165131 C23.5151559,7.88426386 23.5579956,7.85072622 23.6084211,7.84421053 Z" id="Shape" fill="url(#linearGradient-28)"></path>
                <path d="M18.6315789,15.7263158 L18.6315789,12.8210526 C18.6380946,12.7706272 18.6716323,12.7277875 18.7190197,12.709359 C18.7664072,12.6909306 18.820076,12.6998567 18.8589474,12.7326316 L21.7642105,15.6378947 C21.7969854,15.6767661 21.8059116,15.7304349 21.7874831,15.7778224 C21.7690546,15.8252098 21.7262149,15.8587475 21.6757895,15.8652632 L18.7705263,15.8652632 C18.6937878,15.8652632 18.6315789,15.8030543 18.6315789,15.7263158 Z" id="Shape" fill="url(#linearGradient-29)"></path>
                <path d="M23.5073684,15.6378947 L26.4126316,12.7326316 C26.451503,12.6998567 26.5051718,12.6909306 26.5525592,12.709359 C26.5999467,12.7277875 26.6334843,12.7706272 26.64,12.8210526 L26.64,15.7263158 C26.64,15.8030543 26.5777911,15.8652632 26.5010526,15.8652632 L23.5957895,15.8652632 C23.545364,15.8587475 23.5025243,15.8252098 23.4840958,15.7778224 C23.4656674,15.7304349 23.4745935,15.6767661 23.5073684,15.6378947 Z" id="Shape" fill="url(#linearGradient-30)"></path>
                <path d="M22.9768421,11.3810526 L22.9768421,8.85473684 C22.9833578,8.80431141 23.0168954,8.76147167 23.0642829,8.74304322 C23.1116703,8.72461476 23.1653391,8.73354089 23.2042105,8.76631579 L25.7305263,11.2926316 C25.7633012,11.331503 25.7722273,11.3851718 25.7537989,11.4325592 C25.7353704,11.4799467 25.6925307,11.5134843 25.6421053,11.52 L23.1157895,11.52 C23.039051,11.52 22.9768421,11.4577911 22.9768421,11.3810526 Z" id="Shape" fill="url(#linearGradient-31)"></path>
                <path d="M23.1157895,12.1894737 L25.6421053,12.1894737 C25.6925307,12.1959894 25.7353704,12.229527 25.7537989,12.2769145 C25.7722273,12.3243019 25.7633012,12.3779707 25.7305263,12.4168421 L23.2042105,14.9431579 C23.1653391,14.9759328 23.1116703,14.9848589 23.0642829,14.9664305 C23.0168954,14.948002 22.9833578,14.9051623 22.9768421,14.8547368 L22.9768421,12.3284211 C22.9768421,12.2516825 23.039051,12.1894737 23.1157895,12.1894737 Z" id="Shape" fill="url(#linearGradient-32)"></path>
                <path d="M19.6042105,12.1894737 L22.1305263,12.1894737 C22.2072648,12.1894737 22.2694737,12.2516825 22.2694737,12.3284211 L22.2694737,14.8547368 C22.262958,14.9051623 22.2294204,14.948002 22.1820329,14.9664305 C22.1346455,14.9848589 22.0809766,14.9759328 22.0421053,14.9431579 L19.5157895,12.4168421 C19.4830146,12.3779707 19.4740884,12.3243019 19.4925169,12.2769145 C19.5109454,12.229527 19.5537851,12.1959894 19.6042105,12.1894737 Z" id="Shape" fill="url(#linearGradient-33)"></path>
                <path d="M19.5284211,11.28 L22.0547368,8.75368421 C22.0936082,8.72090931 22.147277,8.71198318 22.1946645,8.73041164 C22.2420519,8.74884009 22.2755896,8.79167983 22.2821053,8.84210526 L22.2821053,11.3684211 C22.2821053,11.4451596 22.2198964,11.5073684 22.1431579,11.5073684 L19.6168421,11.5073684 C19.5664167,11.5008527 19.5235769,11.4673151 19.5051485,11.4199276 C19.48672,11.3725402 19.4956461,11.3188714 19.5284211,11.28 Z" id="Shape" fill="url(#linearGradient-34)"></path>
                <path d="M1.26315789,7.03578947 L1.26315789,4.13052632 C1.26967359,4.08010089 1.30321123,4.03726114 1.35059868,4.01883269 C1.39798613,4.00040424 1.45165494,4.00933036 1.49052632,4.04210526 L4.39578947,6.94736842 C4.42856438,6.9862398 4.4374905,7.03990861 4.41906205,7.08729606 C4.4006336,7.13468351 4.35779385,7.16822115 4.30736842,7.17473684 L1.40210526,7.17473684 C1.32536675,7.17473684 1.26315789,7.11252799 1.26315789,7.03578947 Z" id="Shape" fill="url(#linearGradient-35)"></path>
                <path d="M6.13894737,6.94736842 L9.04421053,4.04210526 C9.0830819,4.00933036 9.13675072,4.00040424 9.18413816,4.01883269 C9.23152561,4.03726114 9.26506326,4.08010089 9.27157895,4.13052632 L9.27157895,7.03578947 C9.27157895,7.11252799 9.20937009,7.17473684 9.13263158,7.17473684 L6.22736842,7.17473684 C6.17694299,7.16822115 6.13410325,7.13468351 6.11567479,7.08729606 C6.09724634,7.03990861 6.10617247,6.9862398 6.13894737,6.94736842 Z" id="Shape" fill="url(#linearGradient-36)"></path>
                <path d="M5.63368421,2.70315789 L5.63368421,0.176842105 C5.6401999,0.126416676 5.67373754,0.0835769308 5.72112499,0.0651484784 C5.76851244,0.0467200259 5.82218125,0.0556461497 5.86105263,0.0884210526 L8.38736842,2.61473684 C8.42014332,2.65360822 8.42906945,2.70727703 8.410641,2.75466448 C8.39221254,2.80205193 8.3493728,2.83558957 8.29894737,2.84210526 L5.77263158,2.84210526 C5.73578045,2.84210526 5.70043864,2.82746621 5.67438095,2.80140852 C5.64832327,2.77535083 5.63368421,2.74000903 5.63368421,2.70315789 Z" id="Shape" fill="url(#linearGradient-37)"></path>
                <path d="M5.73473684,3.49894737 L8.26105263,3.49894737 C8.31147806,3.50546306 8.35431781,3.5390007 8.37274626,3.58638815 C8.39117471,3.6337756 8.38224859,3.68744441 8.34947368,3.72631579 L5.82315789,6.25263158 C5.78428652,6.28540648 5.73061771,6.29433261 5.68323026,6.27590415 C5.63584281,6.2574757 5.60230517,6.21463596 5.59578947,6.16421053 L5.59578947,3.63789474 C5.59578947,3.6010436 5.61042853,3.5657018 5.63648622,3.53964411 C5.6625439,3.51358642 5.69788571,3.49894737 5.73473684,3.49894737 Z" id="Shape" fill="url(#linearGradient-38)"></path>
                <path d="M2.23578947,3.49894737 L4.76210526,3.49894737 C4.83884378,3.49894737 4.90105263,3.56115622 4.90105263,3.63789474 L4.90105263,6.16421053 C4.89453694,6.21463596 4.8609993,6.2574757 4.81361185,6.27590415 C4.7662244,6.29433261 4.71255559,6.28540648 4.67368421,6.25263158 L2.14736842,3.72631579 C2.11459352,3.68744441 2.10566739,3.6337756 2.12409585,3.58638815 C2.1425243,3.5390007 2.18536404,3.50546306 2.23578947,3.49894737 Z" id="Shape" fill="url(#linearGradient-39)"></path>
                <path d="M2.13473684,2.60210526 L4.66105263,0.0757894737 C4.69992401,0.0430145708 4.75359282,0.034088447 4.80098027,0.0525168994 C4.84836772,0.0709453519 4.88190536,0.113785097 4.88842105,0.164210526 L4.88842105,2.69052632 C4.88842105,2.76726483 4.8262122,2.82947368 4.74947368,2.82947368 L2.22315789,2.82947368 C2.17273247,2.82295799 2.12989272,2.78942035 2.11146427,2.7420329 C2.09303582,2.69464545 2.10196194,2.64097664 2.13473684,2.60210526 Z" id="Shape" fill="url(#linearGradient-40)"></path>
                <path d="M9.95368421,7.03578947 L9.95368421,4.13052632 C9.9601999,4.08010089 9.99373754,4.03726114 10.041125,4.01883269 C10.0885124,4.00040424 10.1421813,4.00933036 10.1810526,4.04210526 L13.0863158,6.94736842 C13.1190907,6.9862398 13.1280168,7.03990861 13.1095884,7.08729606 C13.0911599,7.13468351 13.0483202,7.16822115 12.9978947,7.17473684 L10.0926316,7.17473684 C10.0557804,7.17473684 10.0204386,7.16009779 9.99438095,7.1340401 C9.96832327,7.10798241 9.95368421,7.07264061 9.95368421,7.03578947 Z" id="Shape" fill="url(#linearGradient-41)"></path>
                <path d="M14.8294737,6.94736842 L17.7347368,4.04210526 C17.7736082,4.00933036 17.827277,4.00040424 17.8746645,4.01883269 C17.9220519,4.03726114 17.9555896,4.08010089 17.9621053,4.13052632 L17.9621053,7.03578947 C17.9621053,7.11252799 17.8998964,7.17473684 17.8231579,7.17473684 L14.9178947,7.17473684 C14.8674693,7.16822115 14.8246296,7.13468351 14.8062011,7.08729606 C14.7877727,7.03990861 14.7966988,6.9862398 14.8294737,6.94736842 Z" id="Shape" fill="url(#linearGradient-42)"></path>
                <path d="M18.6315789,7.03578947 L18.6315789,4.13052632 C18.6380946,4.08010089 18.6716323,4.03726114 18.7190197,4.01883269 C18.7664072,4.00040424 18.820076,4.00933036 18.8589474,4.04210526 L21.7642105,6.94736842 C21.7969854,6.9862398 21.8059116,7.03990861 21.7874831,7.08729606 C21.7690546,7.13468351 21.7262149,7.16822115 21.6757895,7.17473684 L18.7705263,7.17473684 C18.6937878,7.17473684 18.6315789,7.11252799 18.6315789,7.03578947 Z" id="Shape" fill="url(#linearGradient-43)"></path>
                <path d="M23.5073684,6.94736842 L26.4126316,4.04210526 C26.451503,4.00933036 26.5051718,4.00040424 26.5525592,4.01883269 C26.5999467,4.03726114 26.6334843,4.08010089 26.64,4.13052632 L26.64,7.03578947 C26.64,7.11252799 26.5777911,7.17473684 26.5010526,7.17473684 L23.5957895,7.17473684 C23.545364,7.16822115 23.5025243,7.13468351 23.4840958,7.08729606 C23.4656674,7.03990861 23.4745935,6.9862398 23.5073684,6.94736842 Z" id="Shape" fill="url(#linearGradient-44)"></path>
                <path d="M22.9768421,2.70315789 L22.9768421,0.176842105 C22.9833578,0.126416676 23.0168954,0.0835769308 23.0642829,0.0651484784 C23.1116703,0.0467200259 23.1653391,0.0556461497 23.2042105,0.0884210526 L25.7305263,2.61473684 C25.7633012,2.65360822 25.7722273,2.70727703 25.7537989,2.75466448 C25.7353704,2.80205193 25.6925307,2.83558957 25.6421053,2.84210526 L23.1157895,2.84210526 C23.0789383,2.84210526 23.0435965,2.82746621 23.0175388,2.80140852 C22.9914812,2.77535083 22.9768421,2.74000903 22.9768421,2.70315789 Z" id="Shape" fill="url(#linearGradient-45)"></path>
                <path d="M23.1157895,3.49894737 L25.6421053,3.49894737 C25.6925307,3.50546306 25.7353704,3.5390007 25.7537989,3.58638815 C25.7722273,3.6337756 25.7633012,3.68744441 25.7305263,3.72631579 L23.2042105,6.25263158 C23.1653391,6.28540648 23.1116703,6.29433261 23.0642829,6.27590415 C23.0168954,6.2574757 22.9833578,6.21463596 22.9768421,6.16421053 L22.9768421,3.63789474 C22.9768421,3.6010436 22.9914812,3.5657018 23.0175388,3.53964411 C23.0435965,3.51358642 23.0789383,3.49894737 23.1157895,3.49894737 Z" id="Shape" fill="url(#linearGradient-46)"></path>
                <path d="M19.6042105,3.49894737 L22.1305263,3.49894737 C22.2072648,3.49894737 22.2694737,3.56115622 22.2694737,3.63789474 L22.2694737,6.16421053 C22.262958,6.21463596 22.2294204,6.2574757 22.1820329,6.27590415 C22.1346455,6.29433261 22.0809766,6.28540648 22.0421053,6.25263158 L19.5157895,3.72631579 C19.4830146,3.68744441 19.4740884,3.6337756 19.4925169,3.58638815 C19.5109454,3.5390007 19.5537851,3.50546306 19.6042105,3.49894737 Z" id="Shape" fill="url(#linearGradient-47)"></path>
                <path d="M19.5284211,2.60210526 L22.0547368,0.0757894737 C22.0936082,0.0430145708 22.147277,0.034088447 22.1946645,0.0525168994 C22.2420519,0.0709453519 22.2755896,0.113785097 22.2821053,0.164210526 L22.2821053,2.69052632 C22.2821053,2.76726483 22.2198964,2.82947368 22.1431579,2.82947368 L19.6168421,2.82947368 C19.5664167,2.82295799 19.5235769,2.78942035 19.5051485,2.7420329 C19.48672,2.69464545 19.4956461,2.64097664 19.5284211,2.60210526 Z" id="Shape" fill="url(#linearGradient-48)"></path>
                <path d="M45.0442105,16.2063158 L45.0442105,10.2315789 L41.2547368,14.8547368 L37.4652632,10.2315789 L37.4652632,16.2063158 L36.0126316,16.2063158 L36.0126316,8.41263158 L37.7810526,8.41263158 L41.3052632,12.8210526 L44.7915789,8.41263158 L46.5221053,8.41263158 L46.5221053,16.1936842 L45.0063158,16.1936842 L45.0442105,16.2063158 Z M60.0884211,16.2063158 L60.0884211,14.9431579 L53.5578947,14.9431579 L53.5578947,12.8589474 L58.9136842,12.8589474 L58.9136842,11.5957895 L53.5578947,11.5957895 L53.5578947,9.57473684 L59.9494737,9.57473684 L59.9494737,8.31157895 L52.0421053,8.31157895 L52.0421053,16.0926316 L60.0757895,16.0926316 L60.0884211,16.2063158 Z M73.7936842,16.2063158 L71.3178947,13.3768421 L71.5957895,13.3136842 C72.8119155,13.1784421 73.731583,12.1499382 73.7305263,10.9263158 C73.7305263,9.06947368 72.0252632,8.4 70.4210526,8.4 L65.0021053,8.4 L65.0021053,16.1810526 L66.5052632,16.1810526 L66.5052632,13.44 L69.7010526,13.44 L72.0378947,16.2063158 L73.8442105,16.2063158 L73.7936842,16.2063158 Z M66.4926316,9.62526316 L70.2821053,9.62526316 C71.0905263,9.62526316 72.1515789,9.76421053 72.1515789,10.8884211 C72.1515789,12.0126316 71.0778947,12.1515789 70.2821053,12.1515789 L66.4926316,12.1515789 L66.4926316,9.62526316 Z M84.5810526,12.8842105 L84.5810526,8.41263158 L83.0652632,8.41263158 L83.0652632,12.7326316 C83.1698988,13.3920859 82.9580604,14.0623309 82.4934351,14.5418639 C82.0288099,15.021397 81.3655869,15.2542901 80.7031579,15.1705263 C79.907802,15.2313017 79.1304624,14.9128734 78.6063158,14.3115789 L77.5578947,15.1957895 C78.3542491,16.0733756 79.508163,16.5386635 80.6905263,16.4589474 C83.1410526,16.4589474 84.5810526,15.12 84.5810526,12.8842105 Z" id="Shape" fill="#FFFFFF"></path>
            </g>
        </g>
    </g>
</svg>