<?xml version="1.0" encoding="UTF-8"?>
<svg width="32px" height="30px" viewBox="0 0 32 30" version="1.1" xmlns="http://www.w3.org/2000/svg" xmlns:xlink="http://www.w3.org/1999/xlink">
    <!-- Generator: Sketch 51.3 (57544) - http://www.bohemiancoding.com/sketch -->
    <title>logomark copy</title>
    <desc>Created with Sketch.</desc>
    <defs>
        <linearGradient x1="-268.771073%" y1="-97.8690545%" x2="917.785676%" y2="452.388137%" id="linearGradient-1">
            <stop stop-color="#FEB454" offset="0%"></stop>
            <stop stop-color="#FF364A" offset="53%"></stop>
            <stop stop-color="#0065F3" offset="100%"></stop>
        </linearGradient>
        <linearGradient x1="-364.510944%" y1="-163.8053%" x2="787.451451%" y2="370.485266%" id="linearGradient-2">
            <stop stop-color="#FEB454" offset="0%"></stop>
            <stop stop-color="#FF364A" offset="53%"></stop>
            <stop stop-color="#0065F3" offset="100%"></stop>
        </linearGradient>
        <linearGradient x1="-420.243369%" y1="-146.8524%" x2="857.033252%" y2="445.459816%" id="linearGradient-3">
            <stop stop-color="#FEB454" offset="0%"></stop>
            <stop stop-color="#FF364A" offset="53%"></stop>
            <stop stop-color="#0065F3" offset="100%"></stop>
        </linearGradient>
        <linearGradient x1="-472.194776%" y1="-192.445992%" x2="848.098933%" y2="419.762881%" id="linearGradient-4">
            <stop stop-color="#FEB454" offset="0%"></stop>
            <stop stop-color="#FF364A" offset="53%"></stop>
            <stop stop-color="#0065F3" offset="100%"></stop>
        </linearGradient>
        <linearGradient x1="-351.349019%" y1="-157.177329%" x2="925.927602%" y2="435.134886%" id="linearGradient-5">
            <stop stop-color="#FEB454" offset="0%"></stop>
            <stop stop-color="#FF364A" offset="53%"></stop>
            <stop stop-color="#0065F3" offset="100%"></stop>
        </linearGradient>
        <linearGradient x1="-328.185972%" y1="-125.343855%" x2="992.107737%" y2="487.153301%" id="linearGradient-6">
            <stop stop-color="#FEB454" offset="0%"></stop>
            <stop stop-color="#FF364A" offset="53%"></stop>
            <stop stop-color="#0065F3" offset="100%"></stop>
        </linearGradient>
        <linearGradient x1="-698.687224%" y1="-297.156183%" x2="487.869525%" y2="253.101008%" id="linearGradient-7">
            <stop stop-color="#FEB454" offset="0%"></stop>
            <stop stop-color="#FF364A" offset="53%"></stop>
            <stop stop-color="#0065F3" offset="100%"></stop>
        </linearGradient>
        <linearGradient x1="-781.712931%" y1="-357.178865%" x2="370.249464%" y2="177.111702%" id="linearGradient-8">
            <stop stop-color="#FEB454" offset="0%"></stop>
            <stop stop-color="#FF364A" offset="53%"></stop>
            <stop stop-color="#0065F3" offset="100%"></stop>
        </linearGradient>
        <linearGradient x1="-882.511618%" y1="-361.60694%" x2="394.765003%" y2="231.036176%" id="linearGradient-9">
            <stop stop-color="#FEB454" offset="0%"></stop>
            <stop stop-color="#FF364A" offset="53%"></stop>
            <stop stop-color="#0065F3" offset="100%"></stop>
        </linearGradient>
        <linearGradient x1="-951.008058%" y1="-414.287157%" x2="369.285651%" y2="198.21%" id="linearGradient-10">
            <stop stop-color="#FEB454" offset="0%"></stop>
            <stop stop-color="#FF364A" offset="53%"></stop>
            <stop stop-color="#0065F3" offset="100%"></stop>
        </linearGradient>
        <linearGradient x1="-819.717318%" y1="-371.603295%" x2="465.621904%" y2="220.711841%" id="linearGradient-11">
            <stop stop-color="#FEB454" offset="0%"></stop>
            <stop stop-color="#FF364A" offset="53%"></stop>
            <stop stop-color="#0065F3" offset="100%"></stop>
        </linearGradient>
        <linearGradient x1="-806.668354%" y1="-347.04731%" x2="513.625356%" y2="265.449846%" id="linearGradient-12">
            <stop stop-color="#FEB454" offset="0%"></stop>
            <stop stop-color="#FF364A" offset="53%"></stop>
            <stop stop-color="#0065F3" offset="100%"></stop>
        </linearGradient>
        <linearGradient x1="-169.127509%" y1="-51.7432502%" x2="1017.42924%" y2="498.809619%" id="linearGradient-13">
            <stop stop-color="#FEB454" offset="0%"></stop>
            <stop stop-color="#FF364A" offset="53%"></stop>
            <stop stop-color="#0065F3" offset="100%"></stop>
        </linearGradient>
        <linearGradient x1="-267.824162%" y1="-118.566531%" x2="884.138233%" y2="415.428358%" id="linearGradient-14">
            <stop stop-color="#FEB454" offset="0%"></stop>
            <stop stop-color="#FF364A" offset="53%"></stop>
            <stop stop-color="#0065F3" offset="100%"></stop>
        </linearGradient>
        <linearGradient x1="-224.419338%" y1="-56.1185476%" x2="927.543057%" y2="478.172019%" id="linearGradient-15">
            <stop stop-color="#FEB454" offset="0%"></stop>
            <stop stop-color="#FF364A" offset="53%"></stop>
            <stop stop-color="#0065F3" offset="100%"></stop>
        </linearGradient>
        <linearGradient x1="-340.856686%" y1="-131.516497%" x2="845.700063%" y2="418.740694%" id="linearGradient-16">
            <stop stop-color="#FEB454" offset="0%"></stop>
            <stop stop-color="#FF364A" offset="53%"></stop>
            <stop stop-color="#0065F3" offset="100%"></stop>
        </linearGradient>
        <linearGradient x1="-313.031549%" y1="-97.2172978%" x2="964.245072%" y2="495.094918%" id="linearGradient-17">
            <stop stop-color="#FEB454" offset="0%"></stop>
            <stop stop-color="#FF364A" offset="53%"></stop>
            <stop stop-color="#0065F3" offset="100%"></stop>
        </linearGradient>
        <linearGradient x1="-364.529469%" y1="-139.707708%" x2="964.263394%" y2="468.762584%" id="linearGradient-18">
            <stop stop-color="#FEB454" offset="0%"></stop>
            <stop stop-color="#FF364A" offset="53%"></stop>
            <stop stop-color="#0065F3" offset="100%"></stop>
        </linearGradient>
        <linearGradient x1="-244.137199%" y1="-106.880426%" x2="1033.13942%" y2="485.431789%" id="linearGradient-19">
            <stop stop-color="#FEB454" offset="0%"></stop>
            <stop stop-color="#FF364A" offset="53%"></stop>
            <stop stop-color="#0065F3" offset="100%"></stop>
        </linearGradient>
        <linearGradient x1="-217.334244%" y1="-73.7233495%" x2="1102.95946%" y2="538.442907%" id="linearGradient-20">
            <stop stop-color="#FEB454" offset="0%"></stop>
            <stop stop-color="#FF364A" offset="53%"></stop>
            <stop stop-color="#0065F3" offset="100%"></stop>
        </linearGradient>
        <linearGradient x1="-383.789906%" y1="-151.281084%" x2="802.766843%" y2="399.040229%" id="linearGradient-21">
            <stop stop-color="#FEB454" offset="0%"></stop>
            <stop stop-color="#FF364A" offset="53%"></stop>
            <stop stop-color="#0065F3" offset="100%"></stop>
        </linearGradient>
        <linearGradient x1="-476.572995%" y1="-215.548991%" x2="675.389401%" y2="318.741576%" id="linearGradient-22">
            <stop stop-color="#FEB454" offset="0%"></stop>
            <stop stop-color="#FF364A" offset="53%"></stop>
            <stop stop-color="#0065F3" offset="100%"></stop>
        </linearGradient>
        <linearGradient x1="-544.331124%" y1="-204.429118%" x2="732.945497%" y2="387.883098%" id="linearGradient-23">
            <stop stop-color="#FEB454" offset="0%"></stop>
            <stop stop-color="#FF364A" offset="53%"></stop>
            <stop stop-color="#0065F3" offset="100%"></stop>
        </linearGradient>
        <linearGradient x1="-600.915986%" y1="-249.83064%" x2="719.087047%" y2="358.639652%" id="linearGradient-24">
            <stop stop-color="#FEB454" offset="0%"></stop>
            <stop stop-color="#FF364A" offset="53%"></stop>
            <stop stop-color="#0065F3" offset="100%"></stop>
        </linearGradient>
        <linearGradient x1="-475.436774%" y1="-214.092246%" x2="801.839847%" y2="378.219969%" id="linearGradient-25">
            <stop stop-color="#FEB454" offset="0%"></stop>
            <stop stop-color="#FF364A" offset="53%"></stop>
            <stop stop-color="#0065F3" offset="100%"></stop>
        </linearGradient>
        <linearGradient x1="-456.244534%" y1="-184.575077%" x2="864.049175%" y2="427.591179%" id="linearGradient-26">
            <stop stop-color="#FEB454" offset="0%"></stop>
            <stop stop-color="#FF364A" offset="53%"></stop>
            <stop stop-color="#0065F3" offset="100%"></stop>
        </linearGradient>
        <linearGradient x1="-599.043659%" y1="-250.734701%" x2="587.513089%" y2="299.522491%" id="linearGradient-27">
            <stop stop-color="#FEB454" offset="0%"></stop>
            <stop stop-color="#FF364A" offset="53%"></stop>
            <stop stop-color="#0065F3" offset="100%"></stop>
        </linearGradient>
        <linearGradient x1="-685.321827%" y1="-312.235773%" x2="466.936246%" y2="222.054794%" id="linearGradient-28">
            <stop stop-color="#FEB454" offset="0%"></stop>
            <stop stop-color="#FF364A" offset="53%"></stop>
            <stop stop-color="#0065F3" offset="100%"></stop>
        </linearGradient>
        <linearGradient x1="-640.142934%" y1="-249.492112%" x2="511.819462%" y2="284.798455%" id="linearGradient-29">
            <stop stop-color="#FEB454" offset="0%"></stop>
            <stop stop-color="#FF364A" offset="53%"></stop>
            <stop stop-color="#0065F3" offset="100%"></stop>
        </linearGradient>
        <linearGradient x1="-770.772836%" y1="-330.803626%" x2="415.783912%" y2="219.453565%" id="linearGradient-30">
            <stop stop-color="#FEB454" offset="0%"></stop>
            <stop stop-color="#FF364A" offset="53%"></stop>
            <stop stop-color="#0065F3" offset="100%"></stop>
        </linearGradient>
        <linearGradient x1="-775.299798%" y1="-311.640938%" x2="501.976823%" y2="280.671278%" id="linearGradient-31">
            <stop stop-color="#FEB454" offset="0%"></stop>
            <stop stop-color="#FF364A" offset="53%"></stop>
            <stop stop-color="#0065F3" offset="100%"></stop>
        </linearGradient>
        <linearGradient x1="-839.713829%" y1="-359.953573%" x2="479.95846%" y2="248.516719%" id="linearGradient-32">
            <stop stop-color="#FEB454" offset="0%"></stop>
            <stop stop-color="#FF364A" offset="53%"></stop>
            <stop stop-color="#0065F3" offset="100%"></stop>
        </linearGradient>
        <linearGradient x1="-705.064831%" y1="-321.271508%" x2="569.565336%" y2="270.994934%" id="linearGradient-33">
            <stop stop-color="#FEB454" offset="0%"></stop>
            <stop stop-color="#FF364A" offset="53%"></stop>
            <stop stop-color="#0065F3" offset="100%"></stop>
        </linearGradient>
        <linearGradient x1="-695.816626%" y1="-295.426804%" x2="624.477083%" y2="316.739452%" id="linearGradient-34">
            <stop stop-color="#FEB454" offset="0%"></stop>
            <stop stop-color="#FF364A" offset="53%"></stop>
            <stop stop-color="#0065F3" offset="100%"></stop>
        </linearGradient>
        <linearGradient x1="-127.732556%" y1="-11.1754562%" x2="1024.22984%" y2="523.115111%" id="linearGradient-35">
            <stop stop-color="#FEB454" offset="0%"></stop>
            <stop stop-color="#FF364A" offset="53%"></stop>
            <stop stop-color="#0065F3" offset="100%"></stop>
        </linearGradient>
        <linearGradient x1="-241.213121%" y1="-85.0950144%" x2="945.343627%" y2="465.162177%" id="linearGradient-36">
            <stop stop-color="#FEB454" offset="0%"></stop>
            <stop stop-color="#FF364A" offset="53%"></stop>
            <stop stop-color="#0065F3" offset="100%"></stop>
        </linearGradient>
        <linearGradient x1="-205.819729%" y1="-47.5821959%" x2="1071.45689%" y2="544.730019%" id="linearGradient-37">
            <stop stop-color="#FEB454" offset="0%"></stop>
            <stop stop-color="#FF364A" offset="53%"></stop>
            <stop stop-color="#0065F3" offset="100%"></stop>
        </linearGradient>
        <linearGradient x1="-250.822222%" y1="-89.5843175%" x2="1069.80239%" y2="522.293811%" id="linearGradient-38">
            <stop stop-color="#FEB454" offset="0%"></stop>
            <stop stop-color="#FF364A" offset="53%"></stop>
            <stop stop-color="#0065F3" offset="100%"></stop>
        </linearGradient>
        <linearGradient x1="-136.293707%" y1="-57.8691881%" x2="1135.80087%" y2="534.631544%" id="linearGradient-39">
            <stop stop-color="#FEB454" offset="0%"></stop>
            <stop stop-color="#FF364A" offset="53%"></stop>
            <stop stop-color="#0065F3" offset="100%"></stop>
        </linearGradient>
        <linearGradient x1="-108.959249%" y1="-20.7793434%" x2="1229.31589%" y2="591.389931%" id="linearGradient-40">
            <stop stop-color="#FEB454" offset="0%"></stop>
            <stop stop-color="#FF364A" offset="53%"></stop>
            <stop stop-color="#0065F3" offset="100%"></stop>
        </linearGradient>
        <linearGradient x1="-336.18571%" y1="-107.862238%" x2="815.776685%" y2="426.428329%" id="linearGradient-41">
            <stop stop-color="#FEB454" offset="0%"></stop>
            <stop stop-color="#FF364A" offset="53%"></stop>
            <stop stop-color="#0065F3" offset="100%"></stop>
        </linearGradient>
        <linearGradient x1="-457.058231%" y1="-184.738579%" x2="729.498517%" y2="365.518613%" id="linearGradient-42">
            <stop stop-color="#FEB454" offset="0%"></stop>
            <stop stop-color="#FF364A" offset="53%"></stop>
            <stop stop-color="#0065F3" offset="100%"></stop>
        </linearGradient>
        <linearGradient x1="-543.456151%" y1="-204.54902%" x2="608.506244%" y2="329.741546%" id="linearGradient-43">
            <stop stop-color="#FEB454" offset="0%"></stop>
            <stop stop-color="#FF364A" offset="53%"></stop>
            <stop stop-color="#0065F3" offset="100%"></stop>
        </linearGradient>
        <linearGradient x1="-671.129272%" y1="-284.382143%" x2="515.427477%" y2="265.875048%" id="linearGradient-44">
            <stop stop-color="#FEB454" offset="0%"></stop>
            <stop stop-color="#FF364A" offset="53%"></stop>
            <stop stop-color="#0065F3" offset="100%"></stop>
        </linearGradient>
        <linearGradient x1="-668.418878%" y1="-262.005836%" x2="609.188643%" y2="330.306379%" id="linearGradient-45">
            <stop stop-color="#FEB454" offset="0%"></stop>
            <stop stop-color="#FF364A" offset="53%"></stop>
            <stop stop-color="#0065F3" offset="100%"></stop>
        </linearGradient>
        <linearGradient x1="-729.304603%" y1="-311.377046%" x2="590.989106%" y2="300.78921%" id="linearGradient-46">
            <stop stop-color="#FEB454" offset="0%"></stop>
            <stop stop-color="#FF364A" offset="53%"></stop>
            <stop stop-color="#0065F3" offset="100%"></stop>
        </linearGradient>
        <linearGradient x1="-601.485413%" y1="-272.332602%" x2="679.371629%" y2="319.982534%" id="linearGradient-47">
            <stop stop-color="#FEB454" offset="0%"></stop>
            <stop stop-color="#FF364A" offset="53%"></stop>
            <stop stop-color="#0065F3" offset="100%"></stop>
        </linearGradient>
        <linearGradient x1="-596.000204%" y1="-242.483891%" x2="746.549246%" y2="369.685383%" id="linearGradient-48">
            <stop stop-color="#FEB454" offset="0%"></stop>
            <stop stop-color="#FF364A" offset="53%"></stop>
            <stop stop-color="#0065F3" offset="100%"></stop>
        </linearGradient>
    </defs>
    <g id="COOKIE-NOTIFICATION" stroke="none" stroke-width="1" fill="none" fill-rule="evenodd">
        <g id="Group" transform="translate(-18.000000, -26.000000)" fill-rule="nonzero">
            <g id="logomark-copy" transform="translate(18.000000, 26.000000)">
                <path d="M0.1625,20.802381 L3.76071429,20.802381 C3.82716938,20.8014146 3.88751459,20.8410141 3.91307694,20.9023638 C3.93863929,20.9637134 3.92426568,21.0344458 3.87678571,21.0809524 L0.278571429,24.6791667 C0.232064807,24.7266466 0.16133247,24.7410202 0.0999828233,24.7154579 C0.0386331762,24.6898955 -0.00096631936,24.6295503 3.19132233e-14,24.5630952 L3.19132233e-14,20.964881 C3.19132233e-14,20.8751347 0.0727537282,20.802381 0.1625,20.802381 Z" id="Shape" fill="url(#linearGradient-1)"></path>
                <path d="M6.15178571,20.802381 L9.75,20.802381 C9.83974627,20.802381 9.9125,20.8751347 9.9125,20.964881 L9.9125,24.5630952 C9.91346632,24.6295503 9.87386682,24.6898955 9.81251718,24.7154579 C9.75116753,24.7410202 9.68043519,24.7266466 9.63392857,24.6791667 L6.03571429,21.0809524 C5.98823432,21.0344458 5.97386071,20.9637134 5.99942306,20.9023638 C6.02498541,20.8410141 6.08533062,20.8014146 6.15178571,20.802381 Z" id="Shape" fill="url(#linearGradient-2)"></path>
                <path d="M5.38571429,25.1782738 L5.38571429,21.9979167 C5.38474797,21.9314616 5.42434746,21.8711164 5.48569711,21.845554 C5.54704676,21.8199917 5.61777909,21.8343653 5.66428571,21.8818452 L8.84464286,25.0622024 C8.89212282,25.108709 8.90649643,25.1794413 8.88093408,25.240791 C8.85537173,25.3021406 8.79502652,25.3417401 8.72857143,25.3407738 L5.54821429,25.3407738 C5.50511661,25.3407738 5.4637841,25.3236533 5.43330943,25.2931787 C5.40283477,25.262704 5.38571429,25.2213715 5.38571429,25.1782738 Z" id="Shape" fill="url(#linearGradient-3)"></path>
                <path d="M5.54821429,26.1764881 L8.70535714,26.1764881 C8.77181224,26.1755218 8.83215744,26.2151213 8.8577198,26.2764709 C8.88328215,26.3378206 8.86890854,26.4085529 8.82142857,26.4550595 L5.64107143,29.6354167 C5.59456481,29.6828966 5.52383247,29.6972702 5.46248282,29.6717079 C5.40113318,29.6461455 5.36153368,29.5858003 5.3625,29.5193452 L5.3625,26.3389881 C5.36201305,26.2915494 5.38228127,26.2462667 5.41798444,26.2150264 C5.45368761,26.1837862 5.50125999,26.1697083 5.54821429,26.1764881 Z" id="Shape" fill="url(#linearGradient-4)"></path>
                <path d="M1.20714286,26.1764881 L4.3875,26.1764881 C4.47724627,26.1764881 4.55,26.2492418 4.55,26.3389881 L4.55,29.5193452 C4.55096632,29.5858003 4.51136682,29.6461455 4.45001718,29.6717079 C4.38866753,29.6972702 4.31793519,29.6828966 4.27142857,29.6354167 L1.09107143,26.4550595 C1.04359146,26.4085529 1.02921785,26.3378206 1.0547802,26.2764709 C1.08034256,26.2151213 1.14068776,26.1755218 1.20714286,26.1764881 Z" id="Shape" fill="url(#linearGradient-5)"></path>
                <path d="M1.09107143,25.0622024 L4.27142857,21.8818452 C4.31793519,21.8343653 4.38866753,21.8199917 4.45001718,21.845554 C4.51136682,21.8711164 4.55096632,21.9314616 4.55,21.9979167 L4.55,25.1782738 C4.55,25.2680201 4.47724627,25.3407738 4.3875,25.3407738 L1.20714286,25.3407738 C1.14068776,25.3417401 1.08034256,25.3021406 1.0547802,25.240791 C1.02921785,25.1794413 1.04359146,25.108709 1.09107143,25.0622024 Z" id="Shape" fill="url(#linearGradient-6)"></path>
                <path d="M21.69375,20.802381 L25.2919643,20.802381 C25.3584194,20.8014146 25.4187646,20.8410141 25.4443269,20.9023638 C25.4698893,20.9637134 25.4555157,21.0344458 25.4080357,21.0809524 L21.8098214,24.6791667 C21.7633148,24.7266466 21.6925825,24.7410202 21.6312328,24.7154579 C21.5698832,24.6898955 21.5302837,24.6295503 21.53125,24.5630952 L21.53125,20.964881 C21.53125,20.9217833 21.5483705,20.8804508 21.5788451,20.8499761 C21.6093198,20.8195014 21.6506523,20.802381 21.69375,20.802381 Z" id="Shape" fill="url(#linearGradient-7)"></path>
                <path d="M27.6830357,20.802381 L31.28125,20.802381 C31.3709963,20.802381 31.44375,20.8751347 31.44375,20.964881 L31.44375,24.5630952 C31.4447163,24.6295503 31.4051168,24.6898955 31.3437672,24.7154579 C31.2824175,24.7410202 31.2116852,24.7266466 31.1651786,24.6791667 L27.5669643,21.0809524 C27.5194843,21.0344458 27.5051107,20.9637134 27.5306731,20.9023638 C27.5562354,20.8410141 27.6165806,20.8014146 27.6830357,20.802381 Z" id="Shape" fill="url(#linearGradient-8)"></path>
                <path d="M26.9053571,25.1782738 L26.9053571,21.9979167 C26.9043908,21.9314616 26.9439903,21.8711164 27.00534,21.845554 C27.0666896,21.8199917 27.1374219,21.8343653 27.1839286,21.8818452 L30.3642857,25.0622024 C30.4117657,25.108709 30.4261393,25.1794413 30.4005769,25.240791 C30.3750146,25.3021406 30.3146694,25.3417401 30.2482143,25.3407738 L27.0678571,25.3407738 C27.0247595,25.3407738 26.983427,25.3236533 26.9529523,25.2931787 C26.9224776,25.262704 26.9053571,25.2213715 26.9053571,25.1782738 Z" id="Shape" fill="url(#linearGradient-9)"></path>
                <path d="M27.0678571,26.1764881 L30.2482143,26.1764881 C30.3146694,26.1755218 30.3750146,26.2151213 30.4005769,26.2764709 C30.4261393,26.3378206 30.4117657,26.4085529 30.3642857,26.4550595 L27.1839286,29.6354167 C27.1374219,29.6828966 27.0666896,29.6972702 27.00534,29.6717079 C26.9439903,29.6461455 26.9043908,29.5858003 26.9053571,29.5193452 L26.9053571,26.3389881 C26.9053571,26.2492418 26.9781109,26.1764881 27.0678571,26.1764881 Z" id="Shape" fill="url(#linearGradient-10)"></path>
                <path d="M22.7267857,26.1764881 L25.9071429,26.1764881 C25.9968891,26.1764881 26.0696429,26.2492418 26.0696429,26.3389881 L26.0696429,29.5193452 C26.0706092,29.5858003 26.0310097,29.6461455 25.96966,29.6717079 C25.9083104,29.6972702 25.8375781,29.6828966 25.7910714,29.6354167 L22.6339286,26.4550595 C22.5886355,26.411607 22.5724167,26.345955 22.5922651,26.2864098 C22.6121135,26.2268646 22.6644797,26.1840743 22.7267857,26.1764881 Z" id="Shape" fill="url(#linearGradient-11)"></path>
                <path d="M22.6339286,25.0622024 L25.8142857,21.8818452 C25.8607923,21.8343653 25.9315247,21.8199917 25.9928743,21.845554 C26.054224,21.8711164 26.0938235,21.9314616 26.0928571,21.9979167 L26.0928571,25.1782738 C26.0928571,25.2680201 26.0201034,25.3407738 25.9303571,25.3407738 L22.75,25.3407738 C22.6835449,25.3417401 22.6231997,25.3021406 22.5976373,25.240791 C22.572075,25.1794413 22.5864486,25.108709 22.6339286,25.0622024 Z" id="Shape" fill="url(#linearGradient-12)"></path>
                <path d="M0.1625,10.0425595 L3.76071429,10.0425595 C3.82716938,10.0415932 3.88751459,10.0811927 3.91307694,10.1425423 C3.93863929,10.203892 3.92426568,10.2746243 3.87678571,10.321131 L0.278571429,13.9193452 C0.232064807,13.9668252 0.16133247,13.9811988 0.0999828233,13.9556365 C0.0386331762,13.9300741 -0.00096631936,13.8697289 3.19293305e-14,13.8032738 L3.19293305e-14,10.2050595 C3.19293305e-14,10.1153133 0.0727537282,10.0425595 0.1625,10.0425595 Z" id="Shape" fill="url(#linearGradient-13)"></path>
                <path d="M6.15178571,10.0425595 L9.75,10.0425595 C9.83974627,10.0425595 9.9125,10.1153133 9.9125,10.2050595 L9.9125,13.8032738 C9.91346632,13.8697289 9.87386682,13.9300741 9.81251718,13.9556365 C9.75116753,13.9811988 9.68043519,13.9668252 9.63392857,13.9193452 L6.03571429,10.321131 C5.98823432,10.2746243 5.97386071,10.203892 5.99942306,10.1425423 C6.02498541,10.0811927 6.08533062,10.0415932 6.15178571,10.0425595 Z" id="Shape" fill="url(#linearGradient-14)"></path>
                <path d="M-1.13825982e-15,19.8041667 L-1.13825982e-15,16.2059524 C-0.00096631936,16.1394973 0.0386331762,16.0791521 0.0999828233,16.0535897 C0.16133247,16.0280274 0.232064807,16.042401 0.278571429,16.089881 L3.87678571,19.6880952 C3.92426568,19.7346019 3.93863929,19.8053342 3.91307694,19.8666838 C3.88751459,19.9280335 3.82716938,19.967633 3.76071429,19.9666667 L0.1625,19.9666667 C0.11940232,19.9666667 0.0780698096,19.9495462 0.0475951481,19.9190715 C0.0171204866,19.8885969 3.18512272e-14,19.8472643 3.18512272e-14,19.8041667 Z" id="Shape" fill="url(#linearGradient-15)"></path>
                <path d="M6.03571429,19.6880952 L9.63392857,16.089881 C9.68043519,16.042401 9.75116753,16.0280274 9.81251718,16.0535897 C9.87386682,16.0791521 9.91346632,16.1394973 9.9125,16.2059524 L9.9125,19.8041667 C9.9125,19.8939129 9.83974627,19.9666667 9.75,19.9666667 L6.15178571,19.9666667 C6.08533062,19.967633 6.02498541,19.9280335 5.99942306,19.8666838 C5.97386071,19.8053342 5.98823432,19.7346019 6.03571429,19.6880952 Z" id="Shape" fill="url(#linearGradient-16)"></path>
                <path d="M5.38571429,14.4184524 L5.38571429,11.2380952 C5.38474797,11.1716401 5.42434746,11.1112949 5.48569711,11.0857326 C5.54704676,11.0601702 5.61777909,11.0745438 5.66428571,11.1220238 L8.84464286,14.302381 C8.89212282,14.3488876 8.90649643,14.4196199 8.88093408,14.4809696 C8.85537173,14.5423192 8.79502652,14.5819187 8.72857143,14.5809524 L5.54821429,14.5809524 C5.50511661,14.5809524 5.4637841,14.5638319 5.43330943,14.5333572 C5.40283477,14.5028826 5.38571429,14.4615501 5.38571429,14.4184524 Z" id="Shape" fill="url(#linearGradient-17)"></path>
                <path d="M5.54821429,15.4050595 L8.70535714,15.4050595 C8.77181224,15.4040932 8.83215744,15.4436927 8.8577198,15.5050423 C8.88328215,15.566392 8.86890854,15.6371243 8.82142857,15.683631 L5.66428571,18.8872024 C5.61777909,18.9346823 5.54704676,18.949056 5.48569711,18.9234936 C5.42434746,18.8979313 5.38474797,18.837586 5.38571429,18.771131 L5.38571429,15.5907738 C5.37893447,15.5438195 5.39301235,15.4962471 5.42425263,15.460544 C5.4554929,15.4248408 5.50077554,15.4045726 5.54821429,15.4050595 Z" id="Shape" fill="url(#linearGradient-18)"></path>
                <path d="M1.20714286,15.4050595 L4.3875,15.4050595 C4.47724627,15.4050595 4.55,15.4778133 4.55,15.5675595 L4.55,18.7479167 C4.55096632,18.8143718 4.51136682,18.874717 4.45001718,18.9002793 C4.38866753,18.9258417 4.31793519,18.9114681 4.27142857,18.8639881 L1.09107143,15.683631 C1.04359146,15.6371243 1.02921785,15.566392 1.0547802,15.5050423 C1.08034256,15.4436927 1.14068776,15.4040932 1.20714286,15.4050595 Z" id="Shape" fill="url(#linearGradient-19)"></path>
                <path d="M1.09107143,14.302381 L4.27142857,11.1220238 C4.31793519,11.0745438 4.38866753,11.0601702 4.45001718,11.0857326 C4.51136682,11.1112949 4.55096632,11.1716401 4.55,11.2380952 L4.55,14.4184524 C4.55,14.5081987 4.47724627,14.5809524 4.3875,14.5809524 L1.20714286,14.5809524 C1.14068776,14.5819187 1.08034256,14.5423192 1.0547802,14.4809696 C1.02921785,14.4196199 1.04359146,14.3488876 1.09107143,14.302381 Z" id="Shape" fill="url(#linearGradient-20)"></path>
                <path d="M10.9339286,10.0425595 L14.5089286,10.0425595 C14.5753837,10.0415932 14.6357289,10.0811927 14.6612912,10.1425423 C14.6868536,10.203892 14.67248,10.2746243 14.625,10.321131 L11.0267857,13.9193452 C10.9802791,13.9668252 10.9095468,13.9811988 10.8481971,13.9556365 C10.7868475,13.9300741 10.747248,13.8697289 10.7482143,13.8032738 L10.7482143,10.2050595 C10.7477273,10.1576208 10.7679956,10.1123381 10.8036987,10.0810979 C10.8394019,10.0498576 10.8869743,10.0357797 10.9339286,10.0425595 Z" id="Shape" fill="url(#linearGradient-21)"></path>
                <path d="M16.9232143,10.0425595 L20.5214286,10.0425595 C20.6111748,10.0425595 20.6839286,10.1153133 20.6839286,10.2050595 L20.6839286,13.8032738 C20.6848949,13.8697289 20.6452954,13.9300741 20.5839457,13.9556365 C20.5225961,13.9811988 20.4518638,13.9668252 20.4053571,13.9193452 L16.8071429,10.321131 C16.7596629,10.2746243 16.7452893,10.203892 16.7708516,10.1425423 C16.796414,10.0811927 16.8567592,10.0415932 16.9232143,10.0425595 Z" id="Shape" fill="url(#linearGradient-22)"></path>
                <path d="M16.1455357,14.4184524 L16.1455357,11.2380952 C16.1445694,11.1716401 16.1841689,11.1112949 16.2455185,11.0857326 C16.3068682,11.0601702 16.3776005,11.0745438 16.4241071,11.1220238 L19.6044643,14.302381 C19.6519443,14.3488876 19.6663179,14.4196199 19.6407555,14.4809696 C19.6151932,14.5423192 19.5548479,14.5819187 19.4883929,14.5809524 L16.3080357,14.5809524 C16.264938,14.5809524 16.2236055,14.5638319 16.1931309,14.5333572 C16.1626562,14.5028826 16.1455357,14.4615501 16.1455357,14.4184524 Z" id="Shape" fill="url(#linearGradient-23)"></path>
                <path d="M16.3080357,15.4050595 L19.4883929,15.4050595 C19.5548479,15.4040932 19.6151932,15.4436927 19.6407555,15.5050423 C19.6663179,15.566392 19.6519443,15.6371243 19.6044643,15.683631 L16.4241071,18.8872024 C16.3776005,18.9346823 16.3068682,18.949056 16.2455185,18.9234936 C16.1841689,18.8979313 16.1445694,18.837586 16.1455357,18.771131 L16.1455357,15.5907738 C16.1387559,15.5438195 16.1528338,15.4962471 16.1840741,15.460544 C16.2153143,15.4248408 16.260597,15.4045726 16.3080357,15.4050595 Z" id="Shape" fill="url(#linearGradient-24)"></path>
                <path d="M11.9669643,15.4050595 L15.1473214,15.4050595 C15.2370677,15.4050595 15.3098214,15.4778133 15.3098214,15.5675595 L15.3098214,18.7479167 C15.3107877,18.8143718 15.2711883,18.874717 15.2098386,18.9002793 C15.148489,18.9258417 15.0777566,18.9114681 15.03125,18.8639881 L11.8508929,15.683631 C11.8034129,15.6371243 11.7890393,15.566392 11.8146016,15.5050423 C11.840164,15.4436927 11.9005092,15.4040932 11.9669643,15.4050595 Z" id="Shape" fill="url(#linearGradient-25)"></path>
                <path d="M11.8508929,14.302381 L15.03125,11.1220238 C15.0777566,11.0745438 15.148489,11.0601702 15.2098386,11.0857326 C15.2711883,11.1112949 15.3107877,11.1716401 15.3098214,11.2380952 L15.3098214,14.4184524 C15.3098214,14.5081987 15.2370677,14.5809524 15.1473214,14.5809524 L11.9669643,14.5809524 C11.9005092,14.5819187 11.840164,14.5423192 11.8146016,14.4809696 C11.7890393,14.4196199 11.8034129,14.3488876 11.8508929,14.302381 Z" id="Shape" fill="url(#linearGradient-26)"></path>
                <path d="M21.69375,10.0425595 L25.2919643,10.0425595 C25.3584194,10.0415932 25.4187646,10.0811927 25.4443269,10.1425423 C25.4698893,10.203892 25.4555157,10.2746243 25.4080357,10.321131 L21.8098214,13.9193452 C21.7633148,13.9668252 21.6925825,13.9811988 21.6312328,13.9556365 C21.5698832,13.9300741 21.5302837,13.8697289 21.53125,13.8032738 L21.53125,10.2050595 C21.53125,10.1619618 21.5483705,10.1206293 21.5788451,10.0901547 C21.6093198,10.05968 21.6506523,10.0425595 21.69375,10.0425595 Z" id="Shape" fill="url(#linearGradient-27)"></path>
                <path d="M27.6830357,10.0425595 L31.28125,10.0425595 C31.3709963,10.0425595 31.44375,10.1153133 31.44375,10.2050595 L31.44375,13.8032738 C31.4447163,13.8697289 31.4051168,13.9300741 31.3437672,13.9556365 C31.2824175,13.9811988 31.2116852,13.9668252 31.1651786,13.9193452 L27.5669643,10.321131 C27.5194843,10.2746243 27.5051107,10.203892 27.5306731,10.1425423 C27.5562354,10.0811927 27.6165806,10.0415932 27.6830357,10.0425595 Z" id="Shape" fill="url(#linearGradient-28)"></path>
                <path d="M21.4732143,19.8041667 L21.4732143,16.2059524 C21.472248,16.1394973 21.5118475,16.0791521 21.5731971,16.0535897 C21.6345468,16.0280274 21.7052791,16.042401 21.7517857,16.089881 L25.35,19.6880952 C25.39748,19.7346019 25.4118536,19.8053342 25.3862912,19.8666838 C25.3607289,19.9280335 25.3003837,19.967633 25.2339286,19.9666667 L21.6357143,19.9666667 C21.545968,19.9666667 21.4732143,19.8939129 21.4732143,19.8041667 Z" id="Shape" fill="url(#linearGradient-29)"></path>
                <path d="M27.5669643,19.6880952 L31.1651786,16.089881 C31.2116852,16.042401 31.2824175,16.0280274 31.3437672,16.0535897 C31.4051168,16.0791521 31.4447163,16.1394973 31.44375,16.2059524 L31.44375,19.8041667 C31.44375,19.8939129 31.3709963,19.9666667 31.28125,19.9666667 L27.6830357,19.9666667 C27.6165806,19.967633 27.5562354,19.9280335 27.5306731,19.8666838 C27.5051107,19.8053342 27.5194843,19.7346019 27.5669643,19.6880952 Z" id="Shape" fill="url(#linearGradient-30)"></path>
                <path d="M26.9053571,14.4184524 L26.9053571,11.2380952 C26.9043908,11.1716401 26.9439903,11.1112949 27.00534,11.0857326 C27.0666896,11.0601702 27.1374219,11.0745438 27.1839286,11.1220238 L30.3642857,14.302381 C30.4117657,14.3488876 30.4261393,14.4196199 30.4005769,14.4809696 C30.3750146,14.5423192 30.3146694,14.5819187 30.2482143,14.5809524 L27.0678571,14.5809524 C27.0247595,14.5809524 26.983427,14.5638319 26.9529523,14.5333572 C26.9224776,14.5028826 26.9053571,14.4615501 26.9053571,14.4184524 Z" id="Shape" fill="url(#linearGradient-31)"></path>
                <path d="M27.0678571,15.4050595 L30.2482143,15.4050595 C30.3146694,15.4040932 30.3750146,15.4436927 30.4005769,15.5050423 C30.4261393,15.566392 30.4117657,15.6371243 30.3642857,15.683631 L27.1839286,18.8872024 C27.1374219,18.9346823 27.0666896,18.949056 27.00534,18.9234936 C26.9439903,18.8979313 26.9043908,18.837586 26.9053571,18.771131 L26.9053571,15.5907738 C26.8985773,15.5438195 26.9126552,15.4962471 26.9438955,15.460544 C26.9751358,15.4248408 27.0204184,15.4045726 27.0678571,15.4050595 Z" id="Shape" fill="url(#linearGradient-32)"></path>
                <path d="M22.7267857,15.4050595 L25.9071429,15.4050595 C25.9968891,15.4050595 26.0696429,15.4778133 26.0696429,15.5675595 L26.0696429,18.7479167 C26.0706092,18.8143718 26.0310097,18.874717 25.96966,18.9002793 C25.9083104,18.9258417 25.8375781,18.9114681 25.7910714,18.8639881 L22.6339286,15.7068452 C22.5695816,15.6684769 22.539805,15.5910895 22.5618372,15.5194847 C22.5838695,15.4478799 22.6519998,15.4006178 22.7267857,15.4050595 Z" id="Shape" fill="url(#linearGradient-33)"></path>
                <path d="M22.6339286,14.302381 L25.8142857,11.1220238 C25.8607923,11.0745438 25.9315247,11.0601702 25.9928743,11.0857326 C26.054224,11.1112949 26.0938235,11.1716401 26.0928571,11.2380952 L26.0928571,14.4184524 C26.0928571,14.5081987 26.0201034,14.5809524 25.9303571,14.5809524 L22.75,14.5809524 C22.6835449,14.5819187 22.6231997,14.5423192 22.5976373,14.4809696 C22.572075,14.4196199 22.5864486,14.3488876 22.6339286,14.302381 Z" id="Shape" fill="url(#linearGradient-34)"></path>
                <path d="M-1.13825982e-15,9.04434524 L-1.13825982e-15,5.44613095 C-0.00096631936,5.37967586 0.0386331762,5.31933065 0.0999828233,5.2937683 C0.16133247,5.26820595 0.232064807,5.28257956 0.278571429,5.33005952 L3.87678571,8.92827381 C3.92426568,8.97478043 3.93863929,9.04551277 3.91307694,9.10686241 C3.88751459,9.16821206 3.82716938,9.20781156 3.76071429,9.20684524 L0.1625,9.20684524 C0.11940232,9.20684524 0.0780698096,9.18972475 0.0475951481,9.15925009 C0.0171204866,9.12877543 3.18512272e-14,9.08744292 3.18512272e-14,9.04434524 Z" id="Shape" fill="url(#linearGradient-35)"></path>
                <path d="M6.03571429,8.92827381 L9.63392857,5.33005952 C9.68043519,5.28257956 9.75116753,5.26820595 9.81251718,5.2937683 C9.87386682,5.31933065 9.91346632,5.37967586 9.9125,5.44613095 L9.9125,9.04434524 C9.9125,9.13409151 9.83974627,9.20684524 9.75,9.20684524 L6.15178571,9.20684524 C6.08533062,9.20781156 6.02498541,9.16821206 5.99942306,9.10686241 C5.97386071,9.04551277 5.98823432,8.97478043 6.03571429,8.92827381 Z" id="Shape" fill="url(#linearGradient-36)"></path>
                <path d="M5.38571429,3.6702381 L5.38571429,0.489880952 C5.38474797,0.42342586 5.42434746,0.363080653 5.48569711,0.3375183 C5.54704676,0.311955947 5.61777909,0.326329557 5.66428571,0.373809524 L8.84464286,3.55416667 C8.89212282,3.60067329 8.90649643,3.67140562 8.88093408,3.73275527 C8.85537173,3.79410492 8.79502652,3.83370441 8.72857143,3.8327381 L5.54821429,3.8327381 C5.50511661,3.8327381 5.4637841,3.81561761 5.43330943,3.78514295 C5.40283477,3.75466829 5.38571429,3.71333577 5.38571429,3.6702381 Z" id="Shape" fill="url(#linearGradient-37)"></path>
                <path d="M5.54821429,4.66845238 L8.70535714,4.66845238 C8.77181224,4.66748606 8.83215744,4.70708556 8.8577198,4.7684352 C8.88328215,4.82978485 8.86890854,4.90051719 8.82142857,4.94702381 L5.64107143,8.12738095 C5.59456481,8.17486092 5.52383247,8.18923453 5.46248282,8.16367218 C5.40113318,8.13810982 5.36153368,8.07776462 5.3625,8.01130952 L5.3625,4.83095238 C5.36201305,4.78351364 5.38228127,4.738231 5.41798444,4.70699072 C5.45368761,4.67575045 5.50125999,4.66167256 5.54821429,4.66845238 Z" id="Shape" fill="url(#linearGradient-38)"></path>
                <path d="M1.20714286,4.66845238 L4.3875,4.66845238 C4.47724627,4.66845238 4.55,4.74120611 4.55,4.83095238 L4.55,8.01130952 C4.55096632,8.07776462 4.51136682,8.13810982 4.45001718,8.16367218 C4.38866753,8.18923453 4.31793519,8.17486092 4.27142857,8.12738095 L1.09107143,4.95863095 C1.03366424,4.91422433 1.01266468,4.83713334 1.03961939,4.76974656 C1.0665741,4.70235979 1.13494688,4.66101773 1.20714286,4.66845238 Z" id="Shape" fill="url(#linearGradient-39)"></path>
                <path d="M1.09107143,3.55416667 L4.25982143,0.31577381 C4.30632805,0.268293843 4.37706039,0.253920233 4.43841003,0.279482585 C4.49975968,0.305044938 4.53935918,0.365390146 4.53839286,0.431845238 L4.53839286,3.61220238 C4.53839286,3.70194865 4.46563913,3.77470238 4.37589286,3.77470238 L1.19553571,3.77470238 C1.15063243,3.76183524 1.11343763,3.73026742 1.09344151,3.6880534 C1.07344539,3.64583937 1.07258193,3.59706197 1.09107143,3.55416667 Z" id="Shape" fill="url(#linearGradient-40)"></path>
                <path d="M10.7598214,9.04434524 L10.7598214,5.44613095 C10.7588551,5.37967586 10.7984546,5.31933065 10.8598043,5.2937683 C10.9211539,5.26820595 10.9918862,5.28257956 11.0383929,5.33005952 L14.6366071,8.92827381 C14.6840871,8.97478043 14.6984607,9.04551277 14.6728984,9.10686241 C14.647336,9.16821206 14.5869908,9.20781156 14.5205357,9.20684524 L10.9223214,9.20684524 C10.8792237,9.20684524 10.8378912,9.18972475 10.8074166,9.15925009 C10.7769419,9.12877543 10.7598214,9.08744292 10.7598214,9.04434524 Z" id="Shape" fill="url(#linearGradient-41)"></path>
                <path d="M16.8303571,8.92827381 L20.4285714,5.33005952 C20.4750781,5.28257956 20.5458104,5.26820595 20.60716,5.2937683 C20.6685097,5.31933065 20.7081092,5.37967586 20.7071429,5.44613095 L20.7071429,9.04434524 C20.7071429,9.13409151 20.6343891,9.20684524 20.5446429,9.20684524 L16.9464286,9.20684524 C16.8799735,9.20781156 16.8196283,9.16821206 16.7940659,9.10686241 C16.7685036,9.04551277 16.7828772,8.97478043 16.8303571,8.92827381 Z" id="Shape" fill="url(#linearGradient-42)"></path>
                <path d="M21.4732143,9.04434524 L21.4732143,5.44613095 C21.472248,5.37967586 21.5118475,5.31933065 21.5731971,5.2937683 C21.6345468,5.26820595 21.7052791,5.28257956 21.7517857,5.33005952 L25.35,8.92827381 C25.39748,8.97478043 25.4118536,9.04551277 25.3862912,9.10686241 C25.3607289,9.16821206 25.3003837,9.20781156 25.2339286,9.20684524 L21.6357143,9.20684524 C21.545968,9.20684524 21.4732143,9.13409151 21.4732143,9.04434524 Z" id="Shape" fill="url(#linearGradient-43)"></path>
                <path d="M27.5669643,8.92827381 L31.1651786,5.33005952 C31.2116852,5.28257956 31.2824175,5.26820595 31.3437672,5.2937683 C31.4051168,5.31933065 31.4447163,5.37967586 31.44375,5.44613095 L31.44375,9.04434524 C31.44375,9.13409151 31.3709963,9.20684524 31.28125,9.20684524 L27.6830357,9.20684524 C27.6165806,9.20781156 27.5562354,9.16821206 27.5306731,9.10686241 C27.5051107,9.04551277 27.5194843,8.97478043 27.5669643,8.92827381 Z" id="Shape" fill="url(#linearGradient-44)"></path>
                <path d="M26.9053571,3.6702381 L26.9053571,0.489880952 C26.9043908,0.42342586 26.9439903,0.363080653 27.00534,0.3375183 C27.0666896,0.311955947 27.1374219,0.326329557 27.1839286,0.373809524 L30.3642857,3.55416667 C30.4117657,3.60067329 30.4261393,3.67140562 30.4005769,3.73275527 C30.3750146,3.79410492 30.3146694,3.83370441 30.2482143,3.8327381 L27.0678571,3.8327381 C27.0247595,3.8327381 26.983427,3.81561761 26.9529523,3.78514295 C26.9224776,3.75466829 26.9053571,3.71333577 26.9053571,3.6702381 Z" id="Shape" fill="url(#linearGradient-45)"></path>
                <path d="M27.0678571,4.66845238 L30.2482143,4.66845238 C30.3146694,4.66748606 30.3750146,4.70708556 30.4005769,4.7684352 C30.4261393,4.82978485 30.4117657,4.90051719 30.3642857,4.94702381 L27.1839286,8.12738095 C27.1374219,8.17486092 27.0666896,8.18923453 27.00534,8.16367218 C26.9439903,8.13810982 26.9043908,8.07776462 26.9053571,8.01130952 L26.9053571,4.83095238 C26.9053571,4.7878547 26.9224776,4.74652219 26.9529523,4.71604753 C26.983427,4.68557287 27.0247595,4.66845238 27.0678571,4.66845238 Z" id="Shape" fill="url(#linearGradient-46)"></path>
                <path d="M22.7267857,4.66845238 L25.9071429,4.66845238 C25.9968891,4.66845238 26.0696429,4.74120611 26.0696429,4.83095238 L26.0696429,8.01130952 C26.0706092,8.07776462 26.0310097,8.13810982 25.96966,8.16367218 C25.9083104,8.18923453 25.8375781,8.17486092 25.7910714,8.12738095 L22.6339286,4.95863095 C22.5804843,4.91670146 22.5587601,4.84595302 22.5794633,4.78125562 C22.6001664,4.71655822 22.6589279,4.67156519 22.7267857,4.66845238 Z" id="Shape" fill="url(#linearGradient-47)"></path>
                <path d="M22.6339286,3.55416667 L25.7910714,0.31577381 C25.8375781,0.268293843 25.9083104,0.253920233 25.96966,0.279482585 C26.0310097,0.305044938 26.0706092,0.365390146 26.0696429,0.431845238 L26.0696429,3.61220238 C26.0696429,3.70194865 25.9968891,3.77470238 25.9071429,3.77470238 L22.7267857,3.77470238 C22.6839855,3.75933402 22.6495834,3.72673432 22.6319362,3.68482227 C22.6142891,3.64291022 22.6150117,3.59552117 22.6339286,3.55416667 Z" id="Shape" fill="url(#linearGradient-48)"></path>
            </g>
        </g>
    </g>
</svg>